<svg width="4001" height="2773" viewBox="0 0 4001 2773" fill="none" xmlns="http://www.w3.org/2000/svg">
<path d="M2000.09 0.731445L1450.71 319.278L1450.27 950.267L2001.35 1270.74L2550.27 953.242V909.149L2095.2 1172.38L1581.08 879.388V286.849L2040.04 23.928L2000.09 0.731445Z" fill="#828286"/>
<path d="M1662.99 828.934L1663.1 323.412L2098.79 72.1179L2534.61 323.406L2534.77 828.472L2383.01 915.838V260.616H2220.87L2220.82 1008.46L2179.04 1033.01L2180.78 396.621H2018.63L2018.49 1032.86L1978.43 1010.08V532.592H1816.41L1816.33 916.065L1662.99 828.934Z" fill="#EF1C26"/>
<path d="M440.25 1518.73C440.25 1536.95 437.998 1553.22 433.495 1567.55C428.992 1581.87 422.851 1594.56 415.073 1605.62C407.5 1616.47 398.698 1625.78 388.669 1633.56C378.639 1641.34 368.098 1647.78 357.044 1652.9C346.196 1657.81 335.143 1661.4 323.885 1663.65C312.832 1665.9 302.393 1667.02 292.568 1667.02L459.286 1811.02H335.859L169.448 1667.02H112.034V1587.2H292.568C302.598 1586.38 311.706 1584.33 319.894 1581.06C328.286 1577.58 335.45 1572.97 341.386 1567.24C347.526 1561.51 352.234 1554.65 355.509 1546.67C358.784 1538.48 360.422 1529.17 360.422 1518.73V1468.38C360.422 1463.87 359.808 1460.49 358.58 1458.24C357.556 1455.79 356.123 1454.05 354.281 1453.02C352.644 1451.8 350.801 1451.08 348.755 1450.87C346.912 1450.67 345.173 1450.57 343.535 1450.57H80.1025V1811.02H0.274414V1410.96C0.274414 1405.43 1.29785 1400.21 3.34472 1395.3C5.3916 1390.39 8.15488 1386.09 11.6346 1382.41C15.3189 1378.72 19.6174 1375.86 24.5299 1373.81C29.4424 1371.76 34.7642 1370.74 40.4955 1370.74H343.535C361.343 1370.74 376.387 1374.01 388.669 1380.56C400.95 1386.91 410.877 1394.99 418.451 1404.82C426.229 1414.44 431.755 1424.88 435.03 1436.14C438.51 1447.39 440.25 1457.94 440.25 1467.76V1518.73Z" fill="#EF1C26"/>
<path d="M882.374 1631.1H630.302V1550.66H882.374V1631.1ZM918.297 1811.02H630.302C619.249 1811.02 607.172 1809.08 594.072 1805.19C580.972 1801.3 568.793 1794.95 557.536 1786.15C546.483 1777.15 537.169 1765.58 529.596 1751.46C522.227 1737.13 518.543 1719.63 518.543 1698.96V1410.96C518.543 1405.43 519.566 1400.21 521.613 1395.3C523.66 1390.39 526.423 1386.09 529.903 1382.41C533.587 1378.72 537.886 1375.86 542.798 1373.81C547.711 1371.76 553.033 1370.74 558.764 1370.74H918.297V1450.57H598.371V1698.96C598.371 1709.39 601.134 1717.38 606.661 1722.9C612.187 1728.43 620.272 1731.19 630.916 1731.19H918.297V1811.02Z" fill="#EF1C26"/>
<path d="M1435.03 1626.8C1435.03 1653.62 1430.32 1678.28 1420.91 1700.8C1411.7 1723.31 1398.9 1742.76 1382.53 1759.13C1366.15 1775.3 1346.71 1787.99 1324.19 1797.21C1301.68 1806.42 1277.22 1811.02 1250.81 1811.02H1035.28C1029.54 1811.02 1024.22 1810 1019.31 1807.95C1014.4 1805.9 1010.1 1803.14 1006.42 1799.66C1002.94 1795.98 1000.17 1791.68 998.125 1786.77C996.078 1781.85 995.055 1776.53 995.055 1770.8V1410.96C995.055 1405.43 996.078 1400.21 998.125 1395.3C1000.17 1390.39 1002.94 1386.09 1006.42 1382.41C1010.1 1378.72 1014.4 1375.86 1019.31 1373.81C1024.22 1371.76 1029.54 1370.74 1035.28 1370.74H1250.81C1277.22 1370.74 1301.68 1375.34 1324.19 1384.56C1346.71 1393.77 1366.15 1406.56 1382.53 1422.93C1398.9 1439.1 1411.7 1458.55 1420.91 1481.27C1430.32 1503.79 1435.03 1528.35 1435.03 1554.96V1626.8ZM1355.2 1554.96C1355.2 1539.4 1352.64 1525.18 1347.53 1512.28C1342.61 1499.39 1335.55 1488.43 1326.34 1479.43C1317.13 1470.22 1306.08 1463.16 1293.18 1458.24C1280.49 1453.13 1266.37 1450.57 1250.81 1450.57H1074.88V1731.19H1250.81C1266.37 1731.19 1280.49 1728.74 1293.18 1723.82C1306.08 1718.71 1317.13 1711.65 1326.34 1702.64C1335.55 1693.43 1342.61 1682.48 1347.53 1669.79C1352.64 1656.89 1355.2 1642.56 1355.2 1626.8V1554.96Z" fill="#EF1C26"/>
<path d="M1876.23 1698.96C1876.23 1719.63 1872.45 1737.13 1864.87 1751.46C1857.5 1765.58 1848.19 1777.15 1836.93 1786.15C1825.88 1794.95 1813.8 1801.3 1800.7 1805.19C1787.6 1809.08 1775.43 1811.02 1764.17 1811.02H1508.1V1731.19H1764.17C1775.02 1731.19 1783 1728.43 1788.12 1722.9C1793.44 1717.38 1796.1 1709.39 1796.1 1698.96V1631.1H1508.1V1550.66H1796.1V1483.42C1796.1 1461.52 1785.46 1450.57 1764.17 1450.57H1508.1V1370.74H1764.17C1777.88 1370.74 1790.16 1372.48 1801.01 1375.96C1811.86 1379.44 1821.38 1384.15 1829.57 1390.08C1837.96 1395.81 1845.12 1402.47 1851.06 1410.04C1856.99 1417.61 1861.8 1425.6 1865.49 1433.99C1869.17 1442.18 1871.83 1450.57 1873.47 1459.16C1875.31 1467.56 1876.23 1475.44 1876.23 1482.81V1698.96Z" fill="#EF1C26"/>
<path d="M2388.98 1681.45C2388.98 1697.22 2386.93 1711.44 2382.84 1724.13C2378.95 1736.62 2373.73 1747.67 2367.18 1757.29C2360.63 1766.91 2352.95 1775.1 2344.15 1781.85C2335.35 1788.61 2326.24 1794.14 2316.82 1798.43C2307.41 1802.73 2297.79 1805.9 2287.96 1807.95C2278.34 1810 2269.23 1811.02 2260.64 1811.02H1952.68V1731.19H2260.64C2275.99 1731.19 2287.86 1726.69 2296.25 1717.68C2304.85 1708.68 2309.15 1696.6 2309.15 1681.45C2309.15 1674.09 2308.02 1667.33 2305.77 1661.19C2303.52 1655.05 2300.24 1649.73 2295.95 1645.22C2291.85 1640.72 2286.73 1637.24 2280.59 1634.79C2274.66 1632.33 2268.01 1631.1 2260.64 1631.1H2077.03C2064.14 1631.1 2050.22 1628.85 2035.28 1624.35C2020.33 1619.64 2006.42 1612.17 1993.52 1601.93C1980.83 1591.7 1970.19 1578.29 1961.59 1561.71C1953.2 1545.13 1949 1524.87 1949 1500.92C1949 1476.97 1953.2 1456.81 1961.59 1440.44C1970.19 1423.86 1980.83 1410.45 1993.52 1400.21C2006.42 1389.78 2020.33 1382.3 2035.28 1377.8C2050.22 1373.09 2064.14 1370.74 2077.03 1370.74H2348.75V1450.57H2077.03C2061.89 1450.57 2050.01 1455.17 2041.42 1464.38C2033.02 1473.59 2028.83 1485.77 2028.83 1500.92C2028.83 1516.27 2033.02 1528.45 2041.42 1537.46C2050.01 1546.26 2061.89 1550.66 2077.03 1550.66H2260.64H2261.25C2269.85 1550.86 2278.96 1552.09 2288.58 1554.34C2298.2 1556.39 2307.71 1559.67 2317.13 1564.17C2326.75 1568.67 2335.86 1574.4 2344.46 1581.36C2353.05 1588.12 2360.63 1596.3 2367.18 1605.93C2373.93 1615.55 2379.25 1626.6 2383.14 1639.08C2387.03 1651.57 2388.98 1665.69 2388.98 1681.45Z" fill="#EF1C26"/>
<path d="M2535.74 1811.02H2455.91V1370.74H2535.74V1811.02Z" fill="#EF1C26"/>
<path d="M2830.18 1527.94L2964.66 1370.74H3073.65L2884.22 1591.49L3072.43 1811.02H2964.04L2830.18 1655.05L2696.93 1811.02H2588.24L2776.14 1591.49L2587.62 1370.74H2695.7L2830.18 1527.94Z" fill="#EF1C26"/>
<path d="M3521.92 1450.57H3345.99V1811.02H3266.16V1450.57H3089.93V1370.74H3521.92V1450.57Z" fill="#EF1C26"/>
<path d="M4000.27 1518.11C4000.27 1536.33 3997.92 1552.6 3993.21 1566.93C3988.71 1581.26 3982.67 1593.95 3975.1 1605C3967.52 1615.85 3958.62 1625.17 3948.39 1632.94C3938.36 1640.72 3927.92 1647.17 3917.07 1652.29C3906.22 1657.2 3895.17 1660.78 3883.91 1663.03C3872.86 1665.28 3862.42 1666.41 3852.59 1666.41H3820.35V1811.02H3739.91V1666.41H3707.98C3698.16 1666.41 3687.61 1665.28 3676.36 1663.03C3665.3 1660.78 3654.25 1657.2 3643.2 1652.29C3632.35 1647.17 3621.91 1640.72 3611.88 1632.94C3601.85 1625.17 3592.95 1615.85 3585.17 1605C3577.59 1593.95 3571.45 1581.26 3566.75 1566.93C3562.24 1552.4 3559.99 1536.13 3559.99 1518.11V1370.74H3639.82V1518.11C3639.82 1528.55 3641.46 1537.97 3644.73 1546.36C3648.01 1554.55 3652.61 1561.61 3658.55 1567.55C3664.48 1573.48 3671.65 1578.09 3680.04 1581.36C3688.64 1584.43 3698.16 1585.97 3708.59 1585.97H3852.59C3860.17 1584.74 3867.94 1583.2 3875.93 1581.36C3883.91 1579.32 3891.18 1575.94 3897.73 1571.23C3904.28 1566.52 3909.7 1559.97 3914 1551.58C3918.3 1543.19 3920.45 1532.03 3920.45 1518.11V1370.74H4000.27V1518.11Z" fill="#EF1C26"/>
<path d="M0.274414 1955.24H85.8604C108.899 1955.24 126.769 1960.84 139.473 1972.04C152.176 1983.23 158.528 1997.45 158.528 2014.67C158.528 2039.86 143.994 2056.44 114.927 2064.41C129.568 2066.78 141.303 2073.34 150.131 2084.11C159.174 2094.66 163.695 2106.82 163.695 2120.6C163.695 2137.83 157.021 2152.04 143.671 2163.23C130.322 2174.21 112.451 2179.71 90.0589 2179.71H0.274414V1955.24ZM37.0925 1983.99V2050.52H82.6307C94.6881 2050.52 104.054 2047.61 110.729 2041.8C117.619 2035.99 121.064 2027.91 121.064 2017.58C121.064 2007.03 117.619 1998.84 110.729 1993.03C104.054 1987 94.6881 1983.99 82.6307 1983.99H37.0925ZM37.0925 2150.96H86.8293C99.3173 2150.96 109.114 2147.84 116.219 2141.6C123.324 2135.35 126.877 2126.74 126.877 2115.76C126.877 2104.56 123.109 2095.73 115.573 2089.27C108.037 2082.6 98.0254 2079.26 85.5374 2079.26H37.0925V2150.96Z" fill="#EF1C26"/>
<path d="M328.047 2001.75H364.865V2179.71H328.047V2151.61C316.42 2172.06 297.473 2182.29 271.205 2182.29C251.181 2182.29 234.602 2175.72 221.468 2162.59C208.55 2149.24 202.09 2130.61 202.09 2106.72V2001.75H238.585V2101.22C238.585 2117.16 242.569 2129.43 250.535 2138.04C258.502 2146.44 269.375 2150.64 283.155 2150.64C296.935 2150.64 307.808 2146.44 315.774 2138.04C323.956 2129.43 328.047 2117.16 328.047 2101.22V2001.75Z" fill="#EF1C26"/>
<path d="M405.369 2052.78C405.369 2037.71 411.721 2025 424.424 2014.67C437.128 2004.12 453.814 1998.84 474.484 1998.84C495.154 1998.84 511.518 2004.01 523.575 2014.35C535.848 2024.47 542.415 2038.35 543.276 2056.01H505.489C504.843 2047.18 501.721 2040.29 496.123 2035.34C490.74 2030.39 483.097 2027.91 473.192 2027.91C463.288 2027.91 455.537 2030.17 449.939 2034.69C444.341 2039 441.542 2044.81 441.542 2052.13C441.542 2059.24 445.094 2064.84 452.199 2068.93C459.305 2073.02 467.917 2076.03 478.037 2077.97C488.372 2079.91 498.599 2082.28 508.719 2085.08C519.053 2087.88 527.773 2093.04 534.879 2100.58C541.984 2107.9 545.537 2117.8 545.537 2130.29C545.537 2145.79 538.97 2158.39 525.836 2168.08C512.917 2177.77 496.23 2182.61 475.776 2182.61C455.321 2182.61 438.743 2177.66 426.039 2167.76C413.336 2157.85 406.338 2143.75 405.046 2125.45H443.156C443.802 2134.27 447.032 2141.16 452.845 2146.12C458.659 2151.07 466.518 2153.55 476.422 2153.55C486.542 2153.55 494.508 2151.39 500.321 2147.09C506.35 2142.56 509.364 2136.64 509.364 2129.32C509.364 2122 505.812 2116.3 498.707 2112.21C491.601 2108.11 482.881 2105.1 472.546 2103.16C462.427 2101.01 452.199 2098.64 441.865 2096.06C431.745 2093.26 423.133 2088.31 416.027 2081.2C408.922 2074.1 405.369 2064.62 405.369 2052.78Z" fill="#EF1C26"/>
<path d="M627.951 1954.6C627.951 1961.27 625.69 1966.87 621.169 1971.39C616.647 1975.91 611.049 1978.17 604.374 1978.17C597.915 1978.17 592.425 1975.91 587.903 1971.39C583.382 1966.87 581.121 1961.27 581.121 1954.6C581.121 1947.92 583.382 1942.33 587.903 1937.8C592.425 1933.28 597.915 1931.02 604.374 1931.02C611.049 1931.02 616.647 1933.28 621.169 1937.8C625.69 1942.33 627.951 1947.92 627.951 1954.6ZM585.965 2179.71V2001.75H622.783V2179.71H585.965Z" fill="#EF1C26"/>
<path d="M707.94 2001.75V2029.85C719.783 2009.18 738.73 1998.84 764.782 1998.84C784.806 1998.84 801.278 2005.52 814.196 2018.87C827.33 2032.22 833.897 2050.84 833.897 2074.74V2179.71H797.402V2080.23C797.402 2064.3 793.419 2052.13 785.452 2043.74C777.486 2035.12 766.613 2030.82 752.833 2030.82C739.053 2030.82 728.072 2035.12 719.89 2043.74C711.924 2052.13 707.94 2064.3 707.94 2080.23V2179.71H671.122V2001.75H707.94Z" fill="#EF1C26"/>
<path d="M955.789 2182.61C929.952 2182.61 908.959 2174.22 892.811 2157.42C876.662 2140.63 868.588 2118.34 868.588 2090.57C868.588 2062.79 876.77 2040.61 893.134 2024.04C909.497 2007.24 930.598 1998.84 956.435 1998.84C982.488 1998.84 1003.59 2006.92 1019.74 2023.07C1035.88 2039 1043.96 2059.89 1043.96 2085.72C1043.96 2091.97 1043.53 2097.78 1042.67 2103.16H906.375C907.236 2118.02 912.189 2129.86 921.232 2138.69C930.49 2147.3 942.009 2151.61 955.789 2151.61C975.813 2151.61 989.916 2143.32 998.098 2126.74H1037.82C1032.44 2143.1 1022.64 2156.56 1008.43 2167.11C994.222 2177.44 976.674 2182.61 955.789 2182.61ZM1005.53 2077.97C1005.31 2063.33 1000.47 2051.7 990.992 2043.09C981.519 2034.26 970 2029.85 956.435 2029.85C942.87 2029.85 931.459 2034.26 922.201 2043.09C913.158 2051.7 907.99 2063.33 906.698 2077.97H1005.53Z" fill="#EF1C26"/>
<path d="M1072.12 2052.78C1072.12 2037.71 1078.47 2025 1091.17 2014.67C1103.88 2004.12 1120.56 1998.84 1141.23 1998.84C1161.9 1998.84 1178.27 2004.01 1190.32 2014.35C1202.6 2024.47 1209.16 2038.35 1210.02 2056.01H1172.24C1171.59 2047.18 1168.47 2040.29 1162.87 2035.34C1157.49 2030.39 1149.84 2027.91 1139.94 2027.91C1130.04 2027.91 1122.28 2030.17 1116.69 2034.69C1111.09 2039 1108.29 2044.81 1108.29 2052.13C1108.29 2059.24 1111.84 2064.84 1118.95 2068.93C1126.05 2073.02 1134.66 2076.03 1144.78 2077.97C1155.12 2079.91 1165.35 2082.28 1175.47 2085.08C1185.8 2087.88 1194.52 2093.04 1201.63 2100.58C1208.73 2107.9 1212.28 2117.8 1212.28 2130.29C1212.28 2145.79 1205.72 2158.39 1192.58 2168.08C1179.66 2177.77 1162.98 2182.61 1142.52 2182.61C1122.07 2182.61 1105.49 2177.66 1092.79 2167.76C1080.08 2157.85 1073.09 2143.75 1071.79 2125.45H1109.9C1110.55 2134.27 1113.78 2141.16 1119.59 2146.12C1125.41 2151.07 1133.27 2153.55 1143.17 2153.55C1153.29 2153.55 1161.26 2151.39 1167.07 2147.09C1173.1 2142.56 1176.11 2136.64 1176.11 2129.32C1176.11 2122 1172.56 2116.3 1165.45 2112.21C1158.35 2108.11 1149.63 2105.1 1139.29 2103.16C1129.17 2101.01 1118.95 2098.64 1108.61 2096.06C1098.49 2093.26 1089.88 2088.31 1082.78 2081.2C1075.67 2074.1 1072.12 2064.62 1072.12 2052.78Z" fill="#EF1C26"/>
<path d="M1244.64 2052.78C1244.64 2037.71 1250.99 2025 1263.69 2014.67C1276.4 2004.12 1293.08 1998.84 1313.75 1998.84C1334.42 1998.84 1350.79 2004.01 1362.84 2014.35C1375.12 2024.47 1381.68 2038.35 1382.55 2056.01H1344.76C1344.11 2047.18 1340.99 2040.29 1335.39 2035.34C1330.01 2030.39 1322.37 2027.91 1312.46 2027.91C1302.56 2027.91 1294.81 2030.17 1289.21 2034.69C1283.61 2039 1280.81 2044.81 1280.81 2052.13C1280.81 2059.24 1284.36 2064.84 1291.47 2068.93C1298.57 2073.02 1307.19 2076.03 1317.31 2077.97C1327.64 2079.91 1337.87 2082.28 1347.99 2085.08C1358.32 2087.88 1367.04 2093.04 1374.15 2100.58C1381.25 2107.9 1384.81 2117.8 1384.81 2130.29C1384.81 2145.79 1378.24 2158.39 1365.11 2168.08C1352.19 2177.77 1335.5 2182.61 1315.05 2182.61C1294.59 2182.61 1278.01 2177.66 1265.31 2167.76C1252.61 2157.85 1245.61 2143.75 1244.32 2125.45H1282.43C1283.07 2134.27 1286.3 2141.16 1292.12 2146.12C1297.93 2151.07 1305.79 2153.55 1315.69 2153.55C1325.81 2153.55 1333.78 2151.39 1339.59 2147.09C1345.62 2142.56 1348.63 2136.64 1348.63 2129.32C1348.63 2122 1345.08 2116.3 1337.98 2112.21C1330.87 2108.11 1322.15 2105.1 1311.82 2103.16C1301.7 2101.01 1291.47 2098.64 1281.13 2096.06C1271.01 2093.26 1262.4 2088.31 1255.3 2081.2C1248.19 2074.1 1244.64 2064.62 1244.64 2052.78Z" fill="#EF1C26"/>
<path d="M1673.53 2179.71L1657.38 2133.84H1563.4L1547.25 2179.71H1508.82L1589.24 1954.92H1631.87L1712.29 2179.71H1673.53ZM1573.41 2105.1H1647.37L1610.55 1999.49L1573.41 2105.1Z" fill="#EF1C26"/>
<path d="M1864.49 2134.49C1875.26 2123.51 1880.64 2108.87 1880.64 2090.57C1880.64 2072.27 1875.26 2057.73 1864.49 2046.97C1853.94 2036.2 1841.35 2030.82 1826.7 2030.82C1812.06 2030.82 1799.36 2036.09 1788.59 2046.64C1778.04 2057.19 1772.77 2071.62 1772.77 2089.92C1772.77 2108.22 1778.04 2122.97 1788.59 2134.17C1799.36 2145.15 1812.06 2150.64 1826.7 2150.64C1841.35 2150.64 1853.94 2145.26 1864.49 2134.49ZM1818.95 2182.61C1795.27 2182.61 1775.35 2174 1759.2 2156.77C1743.06 2139.33 1734.98 2117.16 1734.98 2090.24C1734.98 2063.11 1742.95 2041.15 1758.88 2024.36C1775.03 2007.35 1795.05 1998.84 1818.95 1998.84C1832.95 1998.84 1845.22 2002.07 1855.77 2008.53C1866.54 2014.78 1874.83 2023.07 1880.64 2033.4V1940.71H1917.78V2179.71H1880.64V2146.44C1874.61 2157.42 1866.32 2166.25 1855.77 2172.92C1845.22 2179.38 1832.95 2182.61 1818.95 2182.61Z" fill="#EF1C26"/>
<path d="M1945.15 2001.75H1984.55L2034.93 2146.76L2085.31 2001.75H2125.04L2057.22 2179.71H2012.65L1945.15 2001.75Z" fill="#EF1C26"/>
<path d="M2194.21 1954.6C2194.21 1961.27 2191.95 1966.87 2187.43 1971.39C2182.91 1975.91 2177.31 1978.17 2170.63 1978.17C2164.17 1978.17 2158.68 1975.91 2154.16 1971.39C2149.64 1966.87 2147.38 1961.27 2147.38 1954.6C2147.38 1947.92 2149.64 1942.33 2154.16 1937.8C2158.68 1933.28 2164.17 1931.02 2170.63 1931.02C2177.31 1931.02 2182.91 1933.28 2187.43 1937.8C2191.95 1942.33 2194.21 1947.92 2194.21 1954.6ZM2152.22 2179.71V2001.75H2189.04V2179.71H2152.22Z" fill="#EF1C26"/>
<path d="M2229.31 2052.78C2229.31 2037.71 2235.66 2025 2248.36 2014.67C2261.06 2004.12 2277.75 1998.84 2298.42 1998.84C2319.09 1998.84 2335.45 2004.01 2347.51 2014.35C2359.78 2024.47 2366.35 2038.35 2367.21 2056.01H2329.43C2328.78 2047.18 2325.66 2040.29 2320.06 2035.34C2314.68 2030.39 2307.03 2027.91 2297.13 2027.91C2287.22 2027.91 2279.47 2030.17 2273.88 2034.69C2268.28 2039 2265.48 2044.81 2265.48 2052.13C2265.48 2059.24 2269.03 2064.84 2276.14 2068.93C2283.24 2073.02 2291.85 2076.03 2301.97 2077.97C2312.31 2079.91 2322.54 2082.28 2332.66 2085.08C2342.99 2087.88 2351.71 2093.04 2358.82 2100.58C2365.92 2107.9 2369.47 2117.8 2369.47 2130.29C2369.47 2145.79 2362.91 2158.39 2349.77 2168.08C2336.85 2177.77 2320.17 2182.61 2299.71 2182.61C2279.26 2182.61 2262.68 2177.66 2249.98 2167.76C2237.27 2157.85 2230.28 2143.75 2228.98 2125.45H2267.09C2267.74 2134.27 2270.97 2141.16 2276.78 2146.12C2282.6 2151.07 2290.45 2153.55 2300.36 2153.55C2310.48 2153.55 2318.44 2151.39 2324.26 2147.09C2330.29 2142.56 2333.3 2136.64 2333.3 2129.32C2333.3 2122 2329.75 2116.3 2322.64 2112.21C2315.54 2108.11 2306.82 2105.1 2296.48 2103.16C2286.36 2101.01 2276.14 2098.64 2265.8 2096.06C2255.68 2093.26 2247.07 2088.31 2239.96 2081.2C2232.86 2074.1 2229.31 2064.62 2229.31 2052.78Z" fill="#EF1C26"/>
<path d="M2525.52 2135.46C2536.29 2124.69 2541.67 2109.73 2541.67 2090.57C2541.67 2071.4 2536.4 2056.55 2525.85 2046C2515.51 2035.23 2502.92 2029.85 2488.06 2029.85C2473.2 2029.85 2460.72 2035.23 2450.6 2046C2440.48 2056.55 2435.42 2071.51 2435.42 2090.89C2435.42 2110.05 2440.37 2125.02 2450.27 2135.78C2460.18 2146.33 2472.45 2151.61 2487.09 2151.61C2501.95 2151.61 2514.76 2146.22 2525.52 2135.46ZM2487.09 2182.61C2461.25 2182.61 2439.94 2174.22 2423.14 2157.42C2406.35 2140.41 2397.95 2118.23 2397.95 2090.89C2397.95 2063.33 2406.56 2041.15 2423.79 2024.36C2441.23 2007.35 2462.87 1998.84 2488.71 1998.84C2514.54 1998.84 2536.07 2007.35 2553.3 2024.36C2570.74 2041.15 2579.46 2063.22 2579.46 2090.57C2579.46 2117.91 2570.52 2140.09 2552.65 2157.1C2535 2174.11 2513.14 2182.61 2487.09 2182.61Z" fill="#EF1C26"/>
<path d="M2652.67 2001.75V2032.76C2664.09 2010.15 2681.85 1998.84 2705.96 1998.84V2036.95H2696.6C2682.17 2036.95 2671.19 2040.61 2663.66 2047.94C2656.33 2055.26 2652.67 2067.96 2652.67 2086.05V2179.71H2615.86V2001.75H2652.67Z" fill="#EF1C26"/>
<path d="M2906.39 1982.37C2895.41 1982.37 2886.48 1985.17 2879.59 1990.77C2872.7 1996.37 2869.25 2004.55 2869.25 2015.32C2869.25 2025.87 2873.34 2033.94 2881.53 2039.54C2889.71 2045.14 2899.61 2049.23 2911.24 2051.81C2922.87 2054.39 2934.49 2057.41 2946.12 2060.85C2957.75 2064.08 2967.65 2070.22 2975.83 2079.26C2984.01 2088.31 2988.1 2101.12 2988.1 2117.7C2988.1 2134.27 2981.11 2149.13 2967.11 2162.27C2953.12 2175.4 2934.38 2181.97 2910.92 2181.97C2887.45 2181.97 2868.39 2176.48 2853.75 2165.49C2839.11 2154.51 2831.79 2139.33 2831.79 2119.96H2871.19C2872.05 2129.86 2875.71 2137.72 2882.17 2143.53C2888.63 2149.35 2898.1 2152.25 2910.59 2152.25C2923.08 2152.25 2932.88 2149.02 2939.98 2142.56C2947.3 2136.11 2950.96 2128.46 2950.96 2119.63C2950.96 2110.81 2948.7 2103.92 2944.18 2098.96C2939.87 2094.01 2934.17 2090.35 2927.06 2087.98C2920.17 2085.4 2912.53 2083.14 2904.13 2081.2C2895.74 2079.26 2887.23 2077 2878.62 2074.42C2870.22 2071.83 2862.47 2068.5 2855.37 2064.41C2848.48 2060.32 2842.77 2054.39 2838.25 2046.64C2833.94 2038.68 2831.79 2028.99 2831.79 2017.58C2831.79 1997.98 2838.79 1982.27 2852.78 1970.42C2866.99 1958.37 2885.29 1952.34 2907.69 1952.34C2930.29 1952.34 2948.27 1957.5 2961.62 1967.84C2975.19 1978.17 2982.72 1993.14 2984.23 2012.73H2943.54C2942.67 2004.12 2939.01 1996.91 2932.55 1991.09C2926.1 1985.28 2917.37 1982.37 2906.39 1982.37Z" fill="#EF1C26"/>
<path d="M3080.64 2176.8L3010.56 2001.75H3051.57L3101.63 2137.4L3153.63 2001.75H3191.74L3082.58 2263.35H3044.47L3080.64 2176.8Z" fill="#EF1C26"/>
<path d="M3211.45 2052.78C3211.45 2037.71 3217.8 2025 3230.51 2014.67C3243.21 2004.12 3259.9 1998.84 3280.57 1998.84C3301.23 1998.84 3317.6 2004.01 3329.66 2014.35C3341.93 2024.47 3348.5 2038.35 3349.36 2056.01H3311.57C3310.92 2047.18 3307.8 2040.29 3302.2 2035.34C3296.82 2030.39 3289.18 2027.91 3279.27 2027.91C3269.37 2027.91 3261.62 2030.17 3256.02 2034.69C3250.42 2039 3247.62 2044.81 3247.62 2052.13C3247.62 2059.24 3251.18 2064.84 3258.28 2068.93C3265.39 2073.02 3274 2076.03 3284.12 2077.97C3294.45 2079.91 3304.68 2082.28 3314.8 2085.08C3325.13 2087.88 3333.85 2093.04 3340.96 2100.58C3348.07 2107.9 3351.62 2117.8 3351.62 2130.29C3351.62 2145.79 3345.05 2158.39 3331.92 2168.08C3319 2177.77 3302.31 2182.61 3281.86 2182.61C3261.4 2182.61 3244.82 2177.66 3232.12 2167.76C3219.42 2157.85 3212.42 2143.75 3211.13 2125.45H3249.24C3249.88 2134.27 3253.11 2141.16 3258.93 2146.12C3264.74 2151.07 3272.6 2153.55 3282.5 2153.55C3292.62 2153.55 3300.59 2151.39 3306.4 2147.09C3312.43 2142.56 3315.45 2136.64 3315.45 2129.32C3315.45 2122 3311.89 2116.3 3304.79 2112.21C3297.68 2108.11 3288.96 2105.1 3278.63 2103.16C3268.51 2101.01 3258.28 2098.64 3247.95 2096.06C3237.83 2093.26 3229.21 2088.31 3222.11 2081.2C3215 2074.1 3211.45 2064.62 3211.45 2052.78Z" fill="#EF1C26"/>
<path d="M3478.28 2031.79H3435V2130.29C3435 2136.97 3436.51 2141.81 3439.52 2144.83C3442.75 2147.62 3448.13 2149.02 3455.67 2149.02H3478.28V2179.71H3449.21C3414.98 2179.71 3397.86 2163.23 3397.86 2130.29V2031.79H3376.87V2001.75H3397.86V1957.5H3435V2001.75H3478.28V2031.79Z" fill="#EF1C26"/>
<path d="M3587.14 2182.61C3561.3 2182.61 3540.31 2174.22 3524.16 2157.42C3508.01 2140.63 3499.94 2118.34 3499.94 2090.57C3499.94 2062.79 3508.12 2040.61 3524.49 2024.04C3540.85 2007.24 3561.95 1998.84 3587.79 1998.84C3613.84 1998.84 3634.94 2006.92 3651.09 2023.07C3667.24 2039 3675.31 2059.89 3675.31 2085.72C3675.31 2091.97 3674.88 2097.78 3674.02 2103.16H3537.73C3538.59 2118.02 3543.54 2129.86 3552.58 2138.69C3561.84 2147.3 3573.36 2151.61 3587.14 2151.61C3607.16 2151.61 3621.27 2143.32 3629.45 2126.74H3669.17C3663.79 2143.1 3653.99 2156.56 3639.78 2167.11C3625.57 2177.44 3608.03 2182.61 3587.14 2182.61ZM3636.88 2077.97C3636.66 2063.33 3631.82 2051.7 3622.34 2043.09C3612.87 2034.26 3601.35 2029.85 3587.79 2029.85C3574.22 2029.85 3562.81 2034.26 3553.55 2043.09C3544.51 2051.7 3539.34 2063.33 3538.05 2077.97H3636.88Z" fill="#EF1C26"/>
<path d="M3748.36 2001.75V2029.85C3760.2 2009.18 3779.15 1998.84 3805.2 1998.84C3818.98 1998.84 3831.26 2002.07 3842.02 2008.53C3852.79 2014.99 3860.97 2024.36 3866.57 2036.63C3872.81 2024.79 3881.42 2015.53 3892.4 2008.86C3903.6 2002.18 3916.2 1998.84 3930.19 1998.84C3950.65 1998.84 3967.44 2005.52 3980.57 2018.87C3993.71 2032 4000.27 2050.63 4000.27 2074.74V2179.71H3963.46V2080.23C3963.46 2064.3 3959.47 2052.13 3951.51 2043.74C3943.54 2035.12 3932.67 2030.82 3918.89 2030.82C3905.11 2030.82 3894.23 2035.12 3886.27 2043.74C3878.3 2052.13 3874.32 2064.3 3874.32 2080.23V2179.71H3837.82V2080.23C3837.82 2064.3 3833.84 2052.13 3825.87 2043.74C3817.91 2035.12 3807.03 2030.82 3793.25 2030.82C3779.47 2030.82 3768.49 2035.12 3760.31 2043.74C3752.34 2052.13 3748.36 2064.3 3748.36 2080.23V2179.71H3711.54V2001.75H3748.36Z" fill="#EF1C26"/>
<path d="M88.9264 2318.9V2337.6H32.2059V2381.92H82.6241V2400.41H32.2059V2446.42H88.9264V2465.11H8.25729V2318.9H88.9264Z" fill="#828286"/>
<path d="M104.769 2349.36H130.398L163.17 2443.68L195.942 2349.36H221.781L177.665 2465.11H148.675L104.769 2349.36Z" fill="#828286"/>
<path d="M288.201 2467C271.395 2467 257.74 2461.54 247.237 2450.62C236.733 2439.69 231.481 2425.2 231.481 2407.13C231.481 2389.06 236.803 2374.64 247.447 2363.86C258.09 2352.93 271.815 2347.47 288.621 2347.47C305.568 2347.47 319.293 2352.72 329.796 2363.23C340.3 2373.59 345.552 2387.17 345.552 2403.98C345.552 2408.04 345.272 2411.82 344.712 2415.32H256.06C256.62 2424.99 259.841 2432.69 265.723 2438.43C271.745 2444.03 279.238 2446.84 288.201 2446.84C301.226 2446.84 310.399 2441.44 315.721 2430.66H341.561C338.059 2441.3 331.687 2450.06 322.444 2456.92C313.2 2463.64 301.786 2467 288.201 2467ZM320.553 2398.94C320.413 2389.41 317.262 2381.85 311.1 2376.25C304.937 2370.51 297.445 2367.64 288.621 2367.64C279.798 2367.64 272.376 2370.51 266.353 2376.25C260.471 2381.85 257.11 2389.41 256.27 2398.94H320.553Z" fill="#828286"/>
<path d="M393.069 2349.36V2369.53C400.491 2354.82 412.045 2347.47 427.731 2347.47V2372.26H421.639C412.255 2372.26 405.113 2374.64 400.211 2379.4C395.449 2384.16 393.069 2392.43 393.069 2404.19V2465.11H369.12V2349.36H393.069Z" fill="#828286"/>
<path d="M481.676 2463.22L436.09 2349.36H462.769L495.331 2437.59L529.153 2349.36H553.942L482.937 2519.52H458.148L481.676 2463.22Z" fill="#828286"/>
<path d="M628.106 2368.9H599.955V2432.97C599.955 2437.31 600.936 2440.46 602.896 2442.42C604.997 2444.24 608.498 2445.15 613.4 2445.15H628.106V2465.11H609.199C586.931 2465.11 575.797 2454.4 575.797 2432.97V2368.9H562.142V2349.36H575.797V2320.58H599.955V2349.36H628.106V2368.9Z" fill="#828286"/>
<path d="M674.127 2309.66V2367.64C681.83 2354.19 694.154 2347.47 711.1 2347.47C724.125 2347.47 734.839 2351.81 743.242 2360.49C751.785 2369.18 756.056 2381.29 756.056 2396.84V2465.11H732.318V2400.41C732.318 2390.04 729.727 2382.13 724.545 2376.67C719.363 2371.07 712.291 2368.27 703.327 2368.27C694.364 2368.27 687.222 2371.07 681.9 2376.67C676.718 2382.13 674.127 2390.04 674.127 2400.41V2465.11H650.178V2309.66H674.127Z" fill="#828286"/>
<path d="M813.914 2318.69C813.914 2323.03 812.444 2326.67 809.503 2329.61C806.562 2332.55 802.92 2334.02 798.579 2334.02C794.377 2334.02 790.806 2332.55 787.865 2329.61C784.924 2326.67 783.453 2323.03 783.453 2318.69C783.453 2314.35 784.924 2310.71 787.865 2307.77C790.806 2304.82 794.377 2303.35 798.579 2303.35C802.92 2303.35 806.562 2304.82 809.503 2307.77C812.444 2310.71 813.914 2314.35 813.914 2318.69ZM786.604 2465.11V2349.36H810.553V2465.11H786.604Z" fill="#828286"/>
<path d="M865.944 2349.36V2367.64C873.647 2354.19 885.971 2347.47 902.917 2347.47C915.942 2347.47 926.656 2351.81 935.059 2360.49C943.602 2369.18 947.874 2381.29 947.874 2396.84V2465.11H924.135V2400.41C924.135 2390.04 921.544 2382.13 916.362 2376.67C911.18 2371.07 904.108 2368.27 895.145 2368.27C886.181 2368.27 879.039 2371.07 873.717 2376.67C868.535 2382.13 865.944 2390.04 865.944 2400.41V2465.11H841.995V2349.36H865.944Z" fill="#828286"/>
<path d="M1025.06 2467C1009.65 2467 996.698 2461.4 986.194 2450.2C975.691 2438.85 970.439 2424.43 970.439 2406.92C970.439 2389.27 975.621 2374.99 985.984 2364.07C996.488 2353 1009.51 2347.47 1025.06 2347.47C1034.16 2347.47 1042.14 2349.57 1049.01 2353.77C1056.01 2357.83 1061.4 2363.23 1065.18 2369.95V2349.36H1089.34V2467C1089.34 2483.25 1084.3 2496.48 1074.22 2506.71C1064.27 2517.07 1050.97 2522.25 1034.3 2522.25C1017.64 2522.25 1004.12 2518.54 993.757 2511.12C983.393 2503.84 977.511 2493.89 976.111 2481.29H999.849C1001.67 2487.31 1005.52 2492.14 1011.4 2495.78C1017.43 2499.56 1024.92 2501.45 1033.88 2501.45C1042.84 2501.45 1050.27 2498.51 1056.15 2492.63C1062.17 2486.75 1065.18 2478.21 1065.18 2467V2443.47C1061.26 2450.62 1055.87 2456.36 1049.01 2460.7C1042.14 2464.9 1034.16 2467 1025.06 2467ZM1054.68 2435.7C1061.68 2428.56 1065.18 2419.04 1065.18 2407.13C1065.18 2395.23 1061.68 2385.77 1054.68 2378.77C1047.82 2371.77 1039.62 2368.27 1030.1 2368.27C1020.58 2368.27 1012.31 2371.7 1005.31 2378.56C998.449 2385.42 995.018 2394.81 995.018 2406.71C995.018 2418.62 998.449 2428.21 1005.31 2435.49C1012.31 2442.63 1020.58 2446.21 1030.1 2446.21C1039.62 2446.21 1047.82 2442.7 1054.68 2435.7Z" fill="#828286"/>
<path d="M1239.87 2368.9H1211.72V2432.97C1211.72 2437.31 1212.7 2440.46 1214.66 2442.42C1216.76 2444.24 1220.26 2445.15 1225.16 2445.15H1239.87V2465.11H1220.96C1198.69 2465.11 1187.56 2454.4 1187.56 2432.97V2368.9H1173.91V2349.36H1187.56V2320.58H1211.72V2349.36H1239.87V2368.9Z" fill="#828286"/>
<path d="M1337.15 2436.33C1344.15 2429.33 1347.65 2419.6 1347.65 2407.13C1347.65 2394.67 1344.22 2385 1337.36 2378.14C1330.64 2371.14 1322.44 2367.64 1312.78 2367.64C1303.12 2367.64 1294.99 2371.14 1288.41 2378.14C1281.83 2385 1278.54 2394.74 1278.54 2407.34C1278.54 2419.81 1281.76 2429.54 1288.2 2436.54C1294.64 2443.4 1302.63 2446.84 1312.15 2446.84C1321.81 2446.84 1330.15 2443.33 1337.15 2436.33ZM1312.15 2467C1295.34 2467 1281.48 2461.54 1270.55 2450.62C1259.63 2439.55 1254.17 2425.13 1254.17 2407.34C1254.17 2389.41 1259.77 2374.99 1270.98 2364.07C1282.32 2353 1296.39 2347.47 1313.2 2347.47C1330.01 2347.47 1344.01 2353 1355.22 2364.07C1366.56 2374.99 1372.23 2389.34 1372.23 2407.13C1372.23 2424.92 1366.42 2439.34 1354.8 2450.41C1343.31 2461.47 1329.1 2467 1312.15 2467Z" fill="#828286"/>
<path d="M1453.64 2382.55C1453.64 2372.75 1457.77 2364.49 1466.03 2357.76C1474.29 2350.9 1485.15 2347.47 1498.59 2347.47C1512.04 2347.47 1522.68 2350.83 1530.52 2357.55C1538.51 2364.14 1542.78 2373.17 1543.34 2384.65H1518.76C1518.34 2378.91 1516.31 2374.43 1512.67 2371.21C1509.17 2367.99 1504.19 2366.38 1497.75 2366.38C1491.31 2366.38 1486.27 2367.85 1482.63 2370.79C1478.99 2373.59 1477.16 2377.37 1477.16 2382.13C1477.16 2386.75 1479.48 2390.39 1484.1 2393.06C1488.72 2395.72 1494.32 2397.68 1500.9 2398.94C1507.63 2400.2 1514.28 2401.74 1520.86 2403.56C1527.58 2405.38 1533.25 2408.74 1537.88 2413.64C1542.5 2418.41 1544.81 2424.85 1544.81 2432.97C1544.81 2443.05 1540.54 2451.25 1531.99 2457.55C1523.59 2463.85 1512.74 2467 1499.43 2467C1486.13 2467 1475.34 2463.78 1467.08 2457.34C1458.82 2450.9 1454.27 2441.72 1453.43 2429.82H1478.21C1478.64 2435.56 1480.74 2440.04 1484.52 2443.26C1488.3 2446.49 1493.41 2448.1 1499.85 2448.1C1506.44 2448.1 1511.62 2446.7 1515.4 2443.89C1519.32 2440.95 1521.28 2437.1 1521.28 2432.34C1521.28 2427.58 1518.97 2423.87 1514.35 2421.21C1509.73 2418.55 1504.05 2416.58 1497.33 2415.32C1490.75 2413.92 1484.1 2412.38 1477.37 2410.7C1470.79 2408.88 1465.19 2405.66 1460.57 2401.04C1455.95 2396.42 1453.64 2390.25 1453.64 2382.55Z" fill="#828286"/>
<path d="M1627.2 2368.9H1599.05V2432.97C1599.05 2437.31 1600.03 2440.46 1601.99 2442.42C1604.09 2444.24 1607.59 2445.15 1612.49 2445.15H1627.2V2465.11H1608.29C1586.02 2465.11 1574.89 2454.4 1574.89 2432.97V2368.9H1561.23V2349.36H1574.89V2320.58H1599.05V2349.36H1627.2V2368.9Z" fill="#828286"/>
<path d="M1725.53 2435.7C1732.53 2428.56 1736.03 2419.04 1736.03 2407.13C1736.03 2395.23 1732.53 2385.77 1725.53 2378.77C1718.66 2371.77 1710.47 2368.27 1700.95 2368.27C1691.42 2368.27 1683.16 2371.7 1676.16 2378.56C1669.3 2385.42 1665.87 2394.81 1665.87 2406.71C1665.87 2418.62 1669.3 2428.21 1676.16 2435.49C1683.16 2442.63 1691.42 2446.21 1700.95 2446.21C1710.47 2446.21 1718.66 2442.7 1725.53 2435.7ZM1695.91 2467C1680.5 2467 1667.55 2461.4 1657.04 2450.2C1646.54 2438.85 1641.29 2424.43 1641.29 2406.92C1641.29 2389.27 1646.47 2374.99 1656.83 2364.07C1667.34 2353 1680.36 2347.47 1695.91 2347.47C1705.01 2347.47 1712.99 2349.57 1719.85 2353.77C1726.86 2357.83 1732.25 2363.23 1736.03 2369.95V2349.36H1760.19V2465.11H1736.03V2443.47C1732.11 2450.62 1726.72 2456.36 1719.85 2460.7C1712.99 2464.9 1705.01 2467 1695.91 2467Z" fill="#828286"/>
<path d="M1815.59 2349.36V2369.53C1823.02 2354.82 1834.57 2347.47 1850.26 2347.47V2372.26H1844.16C1834.78 2372.26 1827.64 2374.64 1822.74 2379.4C1817.97 2384.16 1815.59 2392.43 1815.59 2404.19V2465.11H1791.64V2349.36H1815.59Z" fill="#828286"/>
<path d="M1928.36 2368.9H1900.21V2432.97C1900.21 2437.31 1901.19 2440.46 1903.15 2442.42C1905.25 2444.24 1908.75 2445.15 1913.65 2445.15H1928.36V2465.11H1909.45C1887.18 2465.11 1876.05 2454.4 1876.05 2432.97V2368.9H1862.4V2349.36H1876.05V2320.58H1900.21V2349.36H1928.36V2368.9Z" fill="#828286"/>
<path d="M2088.62 2436.33C2095.62 2429.33 2099.12 2419.6 2099.12 2407.13C2099.12 2394.67 2095.69 2385 2088.83 2378.14C2082.11 2371.14 2073.92 2367.64 2064.25 2367.64C2054.59 2367.64 2046.47 2371.14 2039.88 2378.14C2033.3 2385 2030.01 2394.74 2030.01 2407.34C2030.01 2419.81 2033.23 2429.54 2039.67 2436.54C2046.12 2443.4 2054.1 2446.84 2063.62 2446.84C2073.29 2446.84 2081.62 2443.33 2088.62 2436.33ZM2063.62 2467C2046.82 2467 2032.95 2461.54 2022.03 2450.62C2011.1 2439.55 2005.64 2425.13 2005.64 2407.34C2005.64 2389.41 2011.24 2374.99 2022.45 2364.07C2033.79 2353 2047.87 2347.47 2064.67 2347.47C2081.48 2347.47 2095.48 2353 2106.69 2364.07C2118.03 2374.99 2123.7 2389.34 2123.7 2407.13C2123.7 2424.92 2117.89 2439.34 2106.27 2450.41C2094.78 2461.47 2080.57 2467 2063.62 2467Z" fill="#828286"/>
<path d="M2171.33 2349.36V2369.53C2178.75 2354.82 2190.3 2347.47 2205.99 2347.47V2372.26H2199.9C2190.51 2372.26 2183.37 2374.64 2178.47 2379.4C2173.71 2384.16 2171.33 2392.43 2171.33 2404.19V2465.11H2147.38V2349.36H2171.33Z" fill="#828286"/>
<path d="M2337.62 2467C2322.22 2467 2309.26 2461.4 2298.76 2450.2C2288.25 2438.85 2283 2424.43 2283 2406.92C2283 2389.27 2288.18 2374.99 2298.55 2364.07C2309.05 2353 2322.08 2347.47 2337.62 2347.47C2346.72 2347.47 2354.71 2349.57 2361.57 2353.77C2368.57 2357.83 2373.96 2363.23 2377.75 2369.95V2349.36H2401.9V2467C2401.9 2483.25 2396.86 2496.48 2386.78 2506.71C2376.84 2517.07 2363.53 2522.25 2346.87 2522.25C2330.2 2522.25 2316.68 2518.54 2306.32 2511.12C2295.96 2503.84 2290.07 2493.89 2288.67 2481.29H2312.41C2314.23 2487.31 2318.08 2492.14 2323.97 2495.78C2329.99 2499.56 2337.48 2501.45 2346.44 2501.45C2355.41 2501.45 2362.83 2498.51 2368.71 2492.63C2374.74 2486.75 2377.75 2478.21 2377.75 2467V2443.47C2373.82 2450.62 2368.43 2456.36 2361.57 2460.7C2354.71 2464.9 2346.72 2467 2337.62 2467ZM2367.24 2435.7C2374.24 2428.56 2377.75 2419.04 2377.75 2407.13C2377.75 2395.23 2374.24 2385.77 2367.24 2378.77C2360.38 2371.77 2352.19 2368.27 2342.66 2368.27C2333.14 2368.27 2324.88 2371.7 2317.87 2378.56C2311.01 2385.42 2307.58 2394.81 2307.58 2406.71C2307.58 2418.62 2311.01 2428.21 2317.87 2435.49C2324.88 2442.63 2333.14 2446.21 2342.66 2446.21C2352.19 2446.21 2360.38 2442.7 2367.24 2435.7Z" fill="#828286"/>
<path d="M2457.31 2349.36V2369.53C2464.73 2354.82 2476.29 2347.47 2491.97 2347.47V2372.26H2485.88C2476.5 2372.26 2469.35 2374.64 2464.45 2379.4C2459.69 2384.16 2457.31 2392.43 2457.31 2404.19V2465.11H2433.36V2349.36H2457.31Z" fill="#828286"/>
<path d="M2589.19 2436.33C2596.19 2429.33 2599.7 2419.6 2599.7 2407.13C2599.7 2394.67 2596.26 2385 2589.4 2378.14C2582.68 2371.14 2574.49 2367.64 2564.82 2367.64C2555.16 2367.64 2547.04 2371.14 2540.45 2378.14C2533.87 2385 2530.58 2394.74 2530.58 2407.34C2530.58 2419.81 2533.8 2429.54 2540.24 2436.54C2546.69 2443.4 2554.67 2446.84 2564.19 2446.84C2573.86 2446.84 2582.19 2443.33 2589.19 2436.33ZM2564.19 2467C2547.39 2467 2533.52 2461.54 2522.6 2450.62C2511.67 2439.55 2506.21 2425.13 2506.21 2407.34C2506.21 2389.41 2511.81 2374.99 2523.02 2364.07C2534.36 2353 2548.44 2347.47 2565.24 2347.47C2582.05 2347.47 2596.05 2353 2607.26 2364.07C2618.6 2374.99 2624.28 2389.34 2624.28 2407.13C2624.28 2424.92 2618.46 2439.34 2606.84 2450.41C2595.35 2461.47 2581.14 2467 2564.19 2467Z" fill="#828286"/>
<path d="M2779.88 2349.36H2803.41L2767.48 2465.11H2742.27L2718.96 2379.61L2695.64 2465.11H2670.43L2634.29 2349.36H2658.66L2682.82 2442.42L2707.4 2349.36H2732.4L2755.93 2442L2779.88 2349.36Z" fill="#828286"/>
<path d="M2960.54 2435.7C2967.54 2428.56 2971.05 2419.04 2971.05 2407.13C2971.05 2395.23 2967.54 2385.77 2960.54 2378.77C2953.68 2371.77 2945.49 2368.27 2935.96 2368.27C2926.44 2368.27 2918.18 2371.7 2911.17 2378.56C2904.31 2385.42 2900.88 2394.81 2900.88 2406.71C2900.88 2418.62 2904.31 2428.21 2911.17 2435.49C2918.18 2442.63 2926.44 2446.21 2935.96 2446.21C2945.49 2446.21 2953.68 2442.7 2960.54 2435.7ZM2930.92 2467C2915.52 2467 2902.56 2461.4 2892.06 2450.2C2881.55 2438.85 2876.3 2424.43 2876.3 2406.92C2876.3 2389.27 2881.48 2374.99 2891.85 2364.07C2902.35 2353 2915.38 2347.47 2930.92 2347.47C2940.02 2347.47 2948.01 2349.57 2954.87 2353.77C2961.87 2357.83 2967.26 2363.23 2971.05 2369.95V2349.36H2995.2V2465.11H2971.05V2443.47C2967.12 2450.62 2961.73 2456.36 2954.87 2460.7C2948.01 2464.9 2940.02 2467 2930.92 2467Z" fill="#828286"/>
<path d="M3173.46 2435.49C3180.46 2428.21 3183.97 2418.62 3183.97 2406.71C3183.97 2394.81 3180.46 2385.42 3173.46 2378.56C3166.6 2371.7 3158.34 2368.27 3148.67 2368.27C3139.15 2368.27 3130.89 2371.77 3123.88 2378.77C3117.02 2385.77 3113.59 2395.23 3113.59 2407.13C3113.59 2419.04 3117.02 2428.56 3123.88 2435.7C3130.89 2442.7 3139.15 2446.21 3148.67 2446.21C3158.2 2446.21 3166.46 2442.63 3173.46 2435.49ZM3153.93 2347.47C3169.47 2347.47 3182.43 2353 3192.79 2364.07C3203.15 2374.99 3208.33 2389.27 3208.33 2406.92C3208.33 2424.43 3203.08 2438.85 3192.58 2450.2C3182.22 2461.4 3169.33 2467 3153.93 2467C3144.82 2467 3136.84 2464.9 3129.98 2460.7C3123.11 2456.36 3117.65 2450.62 3113.59 2443.47V2465.11H3089.64V2309.66H3113.59V2369.95C3117.51 2363.23 3122.9 2357.83 3129.77 2353.77C3136.77 2349.57 3144.82 2347.47 3153.93 2347.47Z" fill="#828286"/>
<path d="M3312.9 2349.36H3336.85V2465.11H3312.9V2446.84C3305.33 2460.14 3293.01 2466.79 3275.92 2466.79C3262.9 2466.79 3252.11 2462.52 3243.57 2453.98C3235.17 2445.29 3230.97 2433.18 3230.97 2417.63V2349.36H3254.71V2414.06C3254.71 2424.43 3257.3 2432.41 3262.48 2438.01C3267.66 2443.47 3274.73 2446.21 3283.7 2446.21C3292.66 2446.21 3299.73 2443.47 3304.91 2438.01C3310.24 2432.41 3312.9 2424.43 3312.9 2414.06V2349.36Z" fill="#828286"/>
<path d="M3363.19 2382.55C3363.19 2372.75 3367.32 2364.49 3375.59 2357.76C3383.85 2350.9 3394.7 2347.47 3408.15 2347.47C3421.59 2347.47 3432.24 2350.83 3440.08 2357.55C3448.06 2364.14 3452.33 2373.17 3452.89 2384.65H3428.32C3427.9 2378.91 3425.86 2374.43 3422.22 2371.21C3418.72 2367.99 3413.75 2366.38 3407.31 2366.38C3400.87 2366.38 3395.82 2367.85 3392.18 2370.79C3388.54 2373.59 3386.72 2377.37 3386.72 2382.13C3386.72 2386.75 3389.03 2390.39 3393.65 2393.06C3398.27 2395.72 3403.88 2397.68 3410.46 2398.94C3417.18 2400.2 3423.83 2401.74 3430.42 2403.56C3437.14 2405.38 3442.81 2408.74 3447.43 2413.64C3452.05 2418.41 3454.36 2424.85 3454.36 2432.97C3454.36 2443.05 3450.09 2451.25 3441.55 2457.55C3433.15 2463.85 3422.29 2467 3408.99 2467C3395.68 2467 3384.9 2463.78 3376.64 2457.34C3368.37 2450.9 3363.82 2441.72 3362.98 2429.82H3387.77C3388.19 2435.56 3390.29 2440.04 3394.07 2443.26C3397.85 2446.49 3402.97 2448.1 3409.41 2448.1C3415.99 2448.1 3421.17 2446.7 3424.95 2443.89C3428.88 2440.95 3430.84 2437.1 3430.84 2432.34C3430.84 2427.58 3428.53 2423.87 3423.9 2421.21C3419.28 2418.55 3413.61 2416.58 3406.89 2415.32C3400.31 2413.92 3393.65 2412.38 3386.93 2410.7C3380.35 2408.88 3374.75 2405.66 3370.12 2401.04C3365.5 2396.42 3363.19 2390.25 3363.19 2382.55Z" fill="#828286"/>
<path d="M3507.97 2318.69C3507.97 2323.03 3506.5 2326.67 3503.56 2329.61C3500.62 2332.55 3496.98 2334.02 3492.64 2334.02C3488.43 2334.02 3484.86 2332.55 3481.92 2329.61C3478.98 2326.67 3477.51 2323.03 3477.51 2318.69C3477.51 2314.35 3478.98 2310.71 3481.92 2307.77C3484.86 2304.82 3488.43 2303.35 3492.64 2303.35C3496.98 2303.35 3500.62 2304.82 3503.56 2307.77C3506.5 2310.71 3507.97 2314.35 3507.97 2318.69ZM3480.66 2465.11V2349.36H3504.61V2465.11H3480.66Z" fill="#828286"/>
<path d="M3560 2349.36V2367.64C3567.7 2354.19 3580.03 2347.47 3596.98 2347.47C3610 2347.47 3620.71 2351.81 3629.12 2360.49C3637.66 2369.18 3641.93 2381.29 3641.93 2396.84V2465.11H3618.19V2400.41C3618.19 2390.04 3615.6 2382.13 3610.42 2376.67C3605.24 2371.07 3598.17 2368.27 3589.2 2368.27C3580.24 2368.27 3573.1 2371.07 3567.77 2376.67C3562.59 2382.13 3560 2390.04 3560 2400.41V2465.11H3536.05V2349.36H3560Z" fill="#828286"/>
<path d="M3721.22 2467C3704.41 2467 3690.76 2461.54 3680.25 2450.62C3669.75 2439.69 3664.5 2425.2 3664.5 2407.13C3664.5 2389.06 3669.82 2374.64 3680.46 2363.86C3691.11 2352.93 3704.83 2347.47 3721.64 2347.47C3738.58 2347.47 3752.31 2352.72 3762.81 2363.23C3773.32 2373.59 3778.57 2387.17 3778.57 2403.98C3778.57 2408.04 3778.29 2411.82 3777.73 2415.32H3689.08C3689.64 2424.99 3692.86 2432.69 3698.74 2438.43C3704.76 2444.03 3712.25 2446.84 3721.22 2446.84C3734.24 2446.84 3743.41 2441.44 3748.74 2430.66H3774.58C3771.07 2441.3 3764.7 2450.06 3755.46 2456.92C3746.22 2463.64 3734.8 2467 3721.22 2467ZM3753.57 2398.94C3753.43 2389.41 3750.28 2381.85 3744.12 2376.25C3737.95 2370.51 3730.46 2367.64 3721.64 2367.64C3712.81 2367.64 3705.39 2370.51 3699.37 2376.25C3693.49 2381.85 3690.13 2389.41 3689.29 2398.94H3753.57Z" fill="#828286"/>
<path d="M3796.88 2382.55C3796.88 2372.75 3801.01 2364.49 3809.28 2357.76C3817.54 2350.9 3828.39 2347.47 3841.84 2347.47C3855.28 2347.47 3865.93 2350.83 3873.77 2357.55C3881.75 2364.14 3886.03 2373.17 3886.59 2384.65H3862.01C3861.59 2378.91 3859.56 2374.43 3855.91 2371.21C3852.41 2367.99 3847.44 2366.38 3841 2366.38C3834.56 2366.38 3829.52 2367.85 3825.87 2370.79C3822.23 2373.59 3820.41 2377.37 3820.41 2382.13C3820.41 2386.75 3822.72 2390.39 3827.34 2393.06C3831.97 2395.72 3837.57 2397.68 3844.15 2398.94C3850.87 2400.2 3857.53 2401.74 3864.11 2403.56C3870.83 2405.38 3876.5 2408.74 3881.12 2413.64C3885.75 2418.41 3888.06 2424.85 3888.06 2432.97C3888.06 2443.05 3883.78 2451.25 3875.24 2457.55C3866.84 2463.85 3855.98 2467 3842.68 2467C3829.38 2467 3818.59 2463.78 3810.33 2457.34C3802.07 2450.9 3797.51 2441.72 3796.67 2429.82H3821.46C3821.88 2435.56 3823.98 2440.04 3827.76 2443.26C3831.55 2446.49 3836.66 2448.1 3843.1 2448.1C3849.68 2448.1 3854.86 2446.7 3858.65 2443.89C3862.57 2440.95 3864.53 2437.1 3864.53 2432.34C3864.53 2427.58 3862.22 2423.87 3857.6 2421.21C3852.97 2418.55 3847.3 2416.58 3840.58 2415.32C3834 2413.92 3827.34 2412.38 3820.62 2410.7C3814.04 2408.88 3808.44 2405.66 3803.82 2401.04C3799.19 2396.42 3796.88 2390.25 3796.88 2382.55Z" fill="#828286"/>
<path d="M3909.1 2382.55C3909.1 2372.75 3913.23 2364.49 3921.5 2357.76C3929.76 2350.9 3940.61 2347.47 3954.06 2347.47C3967.5 2347.47 3978.15 2350.83 3985.99 2357.55C3993.97 2364.14 3998.24 2373.17 3998.8 2384.65H3974.23C3973.81 2378.91 3971.77 2374.43 3968.13 2371.21C3964.63 2367.99 3959.66 2366.38 3953.22 2366.38C3946.78 2366.38 3941.73 2367.85 3938.09 2370.79C3934.45 2373.59 3932.63 2377.37 3932.63 2382.13C3932.63 2386.75 3934.94 2390.39 3939.56 2393.06C3944.18 2395.72 3949.79 2397.68 3956.37 2398.94C3963.09 2400.2 3969.74 2401.74 3976.33 2403.56C3983.05 2405.38 3988.72 2408.74 3993.34 2413.64C3997.96 2418.41 4000.27 2424.85 4000.27 2432.97C4000.27 2443.05 3996 2451.25 3987.46 2457.55C3979.06 2463.85 3968.2 2467 3954.9 2467C3941.59 2467 3930.81 2463.78 3922.55 2457.34C3914.28 2450.9 3909.73 2441.72 3908.89 2429.82H3933.68C3934.1 2435.56 3936.2 2440.04 3939.98 2443.26C3943.76 2446.49 3948.88 2448.1 3955.32 2448.1C3961.9 2448.1 3967.08 2446.7 3970.86 2443.89C3974.79 2440.95 3976.75 2437.1 3976.75 2432.34C3976.75 2427.58 3974.44 2423.87 3969.81 2421.21C3965.19 2418.55 3959.52 2416.58 3952.8 2415.32C3946.22 2413.92 3939.56 2412.38 3932.84 2410.7C3926.26 2408.88 3920.66 2405.66 3916.03 2401.04C3911.41 2396.42 3909.1 2390.25 3909.1 2382.55Z" fill="#828286"/>
<path d="M84.5148 2687.79C91.5173 2680.65 95.0186 2671.13 95.0186 2659.22C95.0186 2647.32 91.5173 2637.86 84.5148 2630.86C77.6523 2623.86 69.4594 2620.36 59.9359 2620.36C50.4125 2620.36 42.1495 2623.79 35.147 2630.65C28.2845 2637.51 24.8533 2646.9 24.8533 2658.8C24.8533 2670.71 28.2845 2680.3 35.147 2687.58C42.1495 2694.72 50.4125 2698.3 59.9359 2698.3C69.4594 2698.3 77.6523 2694.79 84.5148 2687.79ZM54.8941 2719.09C39.4886 2719.09 26.5339 2713.49 16.0301 2702.29C5.52631 2690.94 0.274414 2676.52 0.274414 2659.01C0.274414 2641.37 5.45628 2627.08 15.82 2616.16C26.3238 2605.09 39.3485 2599.56 54.8941 2599.56C63.9974 2599.56 71.9803 2601.66 78.8428 2605.86C85.8453 2609.92 91.2372 2615.32 95.0186 2622.04V2601.45H119.177V2717.2H95.0186V2695.56C91.0972 2702.71 85.7052 2708.45 78.8428 2712.79C71.9803 2716.99 63.9974 2719.09 54.8941 2719.09Z" fill="#828286"/>
<path d="M226.89 2687.79C233.893 2680.65 237.394 2671.13 237.394 2659.22C237.394 2647.32 233.893 2637.86 226.89 2630.86C220.028 2623.86 211.835 2620.36 202.311 2620.36C192.788 2620.36 184.525 2623.79 177.523 2630.65C170.66 2637.51 167.229 2646.9 167.229 2658.8C167.229 2670.71 170.66 2680.3 177.523 2687.58C184.525 2694.72 192.788 2698.3 202.311 2698.3C211.835 2698.3 220.028 2694.79 226.89 2687.79ZM197.27 2719.09C181.864 2719.09 168.909 2713.49 158.406 2702.29C147.902 2690.94 142.65 2676.52 142.65 2659.01C142.65 2641.37 147.832 2627.08 158.196 2616.16C168.699 2605.09 181.724 2599.56 197.27 2599.56C206.373 2599.56 214.356 2601.66 221.218 2605.86C228.221 2609.92 233.613 2615.32 237.394 2622.04V2561.75H261.553V2717.2H237.394V2695.56C233.473 2702.71 228.081 2708.45 221.218 2712.79C214.356 2716.99 206.373 2719.09 197.27 2719.09Z" fill="#828286"/>
<path d="M279.354 2601.45H304.983L337.755 2695.78L370.526 2601.45H396.366L352.25 2717.2H323.259L279.354 2601.45Z" fill="#828286"/>
<path d="M441.358 2570.78C441.358 2575.12 439.887 2578.76 436.946 2581.7C434.005 2584.64 430.364 2586.12 426.022 2586.12C421.821 2586.12 418.25 2584.64 415.309 2581.7C412.368 2578.76 410.897 2575.12 410.897 2570.78C410.897 2566.44 412.368 2562.8 415.309 2559.86C418.25 2556.91 421.821 2555.44 426.022 2555.44C430.364 2555.44 434.005 2556.91 436.946 2559.86C439.887 2562.8 441.358 2566.44 441.358 2570.78ZM414.048 2717.2V2601.45H437.997V2717.2H414.048Z" fill="#828286"/>
<path d="M464.187 2634.64C464.187 2624.84 468.319 2616.58 476.582 2609.85C484.845 2602.99 495.699 2599.56 509.144 2599.56C522.588 2599.56 533.232 2602.92 541.075 2609.64C549.058 2616.23 553.33 2625.26 553.89 2636.74H529.311C528.891 2631 526.86 2626.52 523.219 2623.3C519.717 2620.08 514.746 2618.47 508.303 2618.47C501.861 2618.47 496.819 2619.94 493.178 2622.88C489.536 2625.68 487.716 2629.46 487.716 2634.22C487.716 2638.84 490.027 2642.49 494.648 2645.15C499.27 2647.81 504.872 2649.77 511.454 2651.03C518.177 2652.29 524.829 2653.83 531.412 2655.65C538.134 2657.47 543.806 2660.83 548.428 2665.73C553.049 2670.5 555.36 2676.94 555.36 2685.06C555.36 2695.14 551.089 2703.34 542.546 2709.64C534.143 2715.94 523.289 2719.09 509.984 2719.09C496.679 2719.09 485.895 2715.87 477.632 2709.43C469.369 2702.99 464.818 2693.81 463.977 2681.91H488.766C489.186 2687.65 491.287 2692.13 495.068 2695.35C498.85 2698.58 503.962 2700.19 510.404 2700.19C516.986 2700.19 522.168 2698.79 525.95 2695.99C529.871 2693.04 531.832 2689.19 531.832 2684.43C531.832 2679.67 529.521 2675.96 524.899 2673.3C520.278 2670.64 514.606 2668.68 507.883 2667.41C501.301 2666.01 494.648 2664.47 487.926 2662.79C481.344 2660.97 475.742 2657.75 471.12 2653.13C466.498 2648.51 464.187 2642.35 464.187 2634.64Z" fill="#828286"/>
<path d="M656.865 2688.42C663.867 2681.42 667.368 2671.69 667.368 2659.22C667.368 2646.76 663.937 2637.09 657.075 2630.23C650.352 2623.23 642.159 2619.73 632.496 2619.73C622.832 2619.73 614.709 2623.23 608.127 2630.23C601.545 2637.09 598.253 2646.83 598.253 2659.43C598.253 2671.9 601.475 2681.63 607.917 2688.63C614.359 2695.49 622.342 2698.93 631.866 2698.93C641.529 2698.93 649.862 2695.42 656.865 2688.42ZM631.866 2719.09C615.06 2719.09 601.195 2713.63 590.271 2702.71C579.347 2691.64 573.885 2677.22 573.885 2659.43C573.885 2641.51 579.487 2627.08 590.691 2616.16C602.035 2605.09 616.11 2599.56 632.916 2599.56C649.722 2599.56 663.727 2605.09 674.931 2616.16C686.275 2627.08 691.947 2641.44 691.947 2659.22C691.947 2677.01 686.135 2691.43 674.511 2702.5C663.027 2713.56 648.812 2719.09 631.866 2719.09Z" fill="#828286"/>
<path d="M739.57 2601.45V2621.62C746.993 2606.91 758.547 2599.56 774.233 2599.56V2624.35H768.141C758.757 2624.35 751.615 2626.73 746.713 2631.49C741.951 2636.25 739.57 2644.52 739.57 2656.28V2717.2H715.622V2601.45H739.57Z" fill="#828286"/>
<path d="M828.178 2715.31L782.592 2601.45H809.271L841.833 2689.68L875.655 2601.45H900.444L829.439 2771.61H804.65L828.178 2715.31Z" fill="#828286"/>
<path d="M1030.24 2719.09C1013.43 2719.09 999.776 2713.63 989.272 2702.71C978.768 2691.78 973.516 2677.36 973.516 2659.43C973.516 2641.37 978.768 2626.87 989.272 2615.95C999.916 2605.02 1013.57 2599.56 1030.24 2599.56C1044.24 2599.56 1055.8 2602.92 1064.9 2609.64C1074.14 2616.23 1080.37 2625.68 1083.6 2638H1057.76C1053.41 2625.82 1044.24 2619.73 1030.24 2619.73C1020.43 2619.73 1012.59 2623.23 1006.71 2630.23C1000.97 2637.09 998.095 2646.76 998.095 2659.22C998.095 2671.69 1000.97 2681.42 1006.71 2688.42C1012.59 2695.42 1020.43 2698.93 1030.24 2698.93C1044.1 2698.93 1053.27 2692.83 1057.76 2680.65H1083.6C1080.23 2692.41 1073.93 2701.8 1064.69 2708.8C1055.45 2715.66 1043.96 2719.09 1030.24 2719.09Z" fill="#828286"/>
<path d="M1182.67 2688.42C1189.67 2681.42 1193.17 2671.69 1193.17 2659.22C1193.17 2646.76 1189.74 2637.09 1182.88 2630.23C1176.16 2623.23 1167.96 2619.73 1158.3 2619.73C1148.64 2619.73 1140.51 2623.23 1133.93 2630.23C1127.35 2637.09 1124.06 2646.83 1124.06 2659.43C1124.06 2671.9 1127.28 2681.63 1133.72 2688.63C1140.16 2695.49 1148.15 2698.93 1157.67 2698.93C1167.33 2698.93 1175.67 2695.42 1182.67 2688.42ZM1157.67 2719.09C1140.86 2719.09 1127 2713.63 1116.08 2702.71C1105.15 2691.64 1099.69 2677.22 1099.69 2659.43C1099.69 2641.51 1105.29 2627.08 1116.5 2616.16C1127.84 2605.09 1141.91 2599.56 1158.72 2599.56C1175.53 2599.56 1189.53 2605.09 1200.74 2616.16C1212.08 2627.08 1217.75 2641.44 1217.75 2659.22C1217.75 2677.01 1211.94 2691.43 1200.32 2702.5C1188.83 2713.56 1174.62 2719.09 1157.67 2719.09Z" fill="#828286"/>
<path d="M1265.38 2601.45V2619.73C1273.08 2606.28 1285.4 2599.56 1302.35 2599.56C1311.31 2599.56 1319.29 2601.66 1326.3 2605.86C1333.3 2610.06 1338.62 2616.16 1342.26 2624.14C1346.32 2616.44 1351.93 2610.41 1359.07 2606.07C1366.35 2601.73 1374.54 2599.56 1383.65 2599.56C1396.95 2599.56 1407.88 2603.9 1416.42 2612.59C1424.96 2621.13 1429.23 2633.24 1429.23 2648.93V2717.2H1405.29V2652.5C1405.29 2642.14 1402.69 2634.22 1397.51 2628.76C1392.33 2623.16 1385.26 2620.36 1376.3 2620.36C1367.33 2620.36 1360.26 2623.16 1355.08 2628.76C1349.9 2634.22 1347.3 2642.14 1347.3 2652.5V2717.2H1323.57V2652.5C1323.57 2642.14 1320.98 2634.22 1315.79 2628.76C1310.61 2623.16 1303.54 2620.36 1294.58 2620.36C1285.61 2620.36 1278.47 2623.16 1273.15 2628.76C1267.97 2634.22 1265.38 2642.14 1265.38 2652.5V2717.2H1241.43V2601.45H1265.38Z" fill="#828286"/>
<path d="M1543.53 2687.58C1550.53 2680.3 1554.03 2670.71 1554.03 2658.8C1554.03 2646.9 1550.53 2637.51 1543.53 2630.65C1536.67 2623.79 1528.4 2620.36 1518.74 2620.36C1509.22 2620.36 1500.95 2623.86 1493.95 2630.86C1487.09 2637.86 1483.66 2647.32 1483.66 2659.22C1483.66 2671.13 1487.09 2680.65 1493.95 2687.79C1500.95 2694.79 1509.22 2698.3 1518.74 2698.3C1528.26 2698.3 1536.53 2694.72 1543.53 2687.58ZM1523.99 2599.56C1539.54 2599.56 1552.49 2605.09 1562.86 2616.16C1573.22 2627.08 1578.4 2641.37 1578.4 2659.01C1578.4 2676.52 1573.15 2690.94 1562.65 2702.29C1552.28 2713.49 1539.4 2719.09 1523.99 2719.09C1514.89 2719.09 1506.91 2716.99 1500.04 2712.79C1493.18 2708.45 1487.72 2702.71 1483.66 2695.56V2772.24H1459.71V2601.45H1483.66V2622.04C1487.58 2615.32 1492.97 2609.92 1499.83 2605.86C1506.84 2601.66 1514.89 2599.56 1523.99 2599.56Z" fill="#828286"/>
<path d="M1678.34 2687.79C1685.34 2680.65 1688.85 2671.13 1688.85 2659.22C1688.85 2647.32 1685.34 2637.86 1678.34 2630.86C1671.48 2623.86 1663.29 2620.36 1653.76 2620.36C1644.24 2620.36 1635.98 2623.79 1628.97 2630.65C1622.11 2637.51 1618.68 2646.9 1618.68 2658.8C1618.68 2670.71 1622.11 2680.3 1628.97 2687.58C1635.98 2694.72 1644.24 2698.3 1653.76 2698.3C1663.29 2698.3 1671.48 2694.79 1678.34 2687.79ZM1648.72 2719.09C1633.32 2719.09 1620.36 2713.49 1609.86 2702.29C1599.35 2690.94 1594.1 2676.52 1594.1 2659.01C1594.1 2641.37 1599.28 2627.08 1609.65 2616.16C1620.15 2605.09 1633.18 2599.56 1648.72 2599.56C1657.82 2599.56 1665.81 2601.66 1672.67 2605.86C1679.67 2609.92 1685.06 2615.32 1688.85 2622.04V2601.45H1713V2717.2H1688.85V2695.56C1684.92 2702.71 1679.53 2708.45 1672.67 2712.79C1665.81 2716.99 1657.82 2719.09 1648.72 2719.09Z" fill="#828286"/>
<path d="M1768.41 2601.45V2619.73C1776.11 2606.28 1788.44 2599.56 1805.38 2599.56C1818.41 2599.56 1829.12 2603.9 1837.52 2612.59C1846.07 2621.27 1850.34 2633.38 1850.34 2648.93V2717.2H1826.6V2652.5C1826.6 2642.14 1824.01 2634.22 1818.83 2628.76C1813.64 2623.16 1806.57 2620.36 1797.61 2620.36C1788.65 2620.36 1781.5 2623.16 1776.18 2628.76C1771 2634.22 1768.41 2642.14 1768.41 2652.5V2717.2H1744.46V2601.45H1768.41Z" fill="#828286"/>
<path d="M1912.82 2715.31L1867.23 2601.45H1893.91L1926.47 2689.68L1960.29 2601.45H1985.08L1914.08 2771.61H1889.29L1912.82 2715.31Z" fill="#828286"/>
</svg>
