<?xml version="1.0" encoding="UTF-8"?>
<svg xmlns="http://www.w3.org/2000/svg" width="46" height="46" viewBox="0 0 46 46" fill="none">
  <circle cx="23" cy="23" r="23" fill="#ED1B24"></circle>
  <path d="M34.289 21.1045L32.4077 19.2233C32.136 18.9516 31.6955 18.9516 31.4237 19.2233C31.152 19.4949 31.152 19.9356 31.4237 20.2073L32.1249 20.9084H28.9222C28.6009 18.0365 26.3141 15.7516 23.4422 15.43V13.3755L24.1358 14.0691C24.2717 14.2049 24.4497 14.2728 24.6278 14.2728C24.8059 14.2728 24.984 14.2048 25.1199 14.0691C25.3916 13.7974 25.3916 13.3567 25.1199 13.0851L23.2384 11.2037C22.9667 10.9321 22.5262 10.9321 22.2544 11.2037L20.3731 13.085C20.1014 13.3567 20.1014 13.7973 20.3731 14.069C20.6448 14.3406 21.0853 14.3406 21.3571 14.069L22.0506 13.3754V15.43C19.1788 15.7515 16.8919 18.0364 16.5706 20.9083H13.368L14.0691 20.2072C14.3408 19.9355 14.3408 19.4948 14.0691 19.2232C13.7973 18.9515 13.3569 18.9515 13.0851 19.2232L11.2038 21.1045C10.9321 21.3762 10.9321 21.8169 11.2038 22.0885L13.0851 23.9698C13.221 24.1057 13.399 24.1736 13.5771 24.1736C13.7552 24.1736 13.9332 24.1057 14.0691 23.9698C14.3408 23.6982 14.3408 23.2575 14.0691 22.9858L13.3832 22.2999H17.2278C17.612 22.2999 17.9235 21.9883 17.9235 21.6041C17.9235 18.9447 20.0871 16.7812 22.7464 16.7812C25.4057 16.7812 27.5693 18.9448 27.5693 21.6041C27.5693 21.9883 27.8808 22.2999 28.265 22.2999H32.1096L31.4236 22.9858C31.152 23.2575 31.152 23.6982 31.4236 23.9698C31.5596 24.1057 31.7376 24.1736 31.9157 24.1736C32.0938 24.1736 32.2718 24.1057 32.4077 23.9698L34.289 22.0885C34.5607 21.8169 34.5607 21.3762 34.289 21.1045Z" fill="white"></path>
  <path d="M26.0555 21.5413C26.0555 19.7168 24.5712 18.2325 22.7468 18.2325C20.9223 18.2325 19.438 19.7168 19.438 21.5413C19.438 23.3658 20.9223 24.8501 22.7468 24.8501C24.5712 24.8501 26.0555 23.3658 26.0555 21.5413Z" fill="white"></path>
  <path d="M27.1868 26.4536L27.1813 26.4518L25.4313 26.162C25.2823 26.1162 25.1232 26.1951 25.0696 26.342L23.0838 31.7904C22.9693 32.1048 22.5247 32.1048 22.4102 31.7904L20.4244 26.342C20.3812 26.2233 20.2692 26.1489 20.1492 26.1489C20.1207 26.1489 18.3127 26.4514 18.3127 26.4514C17.1063 26.8533 16.3003 27.9716 16.3003 29.2363V33.7698C16.3003 34.4492 16.8511 35 17.5304 35H27.9625C28.6419 35 29.1927 34.4492 29.1927 33.7698V29.2212C29.1925 27.9621 28.3834 26.8456 27.1868 26.4536Z" fill="white"></path>
  <path d="M23.5598 26.0134C23.4739 25.9197 23.3482 25.8726 23.2211 25.8726H22.2732C22.1461 25.8726 22.0206 25.9197 21.9346 26.0134C21.8016 26.1584 21.7823 26.3677 21.8766 26.5314L22.3833 27.2953L22.1461 29.2962L22.6132 30.5387C22.6588 30.6637 22.8354 30.6637 22.881 30.5387L23.3481 29.2962L23.1109 27.2953L23.6176 26.5314C23.7121 26.3677 23.6928 26.1583 23.5598 26.0134Z" fill="white"></path>
</svg>
