<?xml version="1.0" encoding="UTF-8"?>
<svg xmlns="http://www.w3.org/2000/svg" width="46" height="46" viewBox="0 0 46 46" fill="none">
  <circle cx="23" cy="23" r="23" fill="#ED1B24"></circle>
  <g clip-path="url(#clip0_134_49)">
    <path fill-rule="evenodd" clip-rule="evenodd" d="M25.4069 21.7352L25.942 22.2986C26.0826 22.4467 26.0767 22.6832 25.9286 22.8238L25.475 23.2545C25.5929 23.4883 25.679 23.7368 25.7309 23.9934L26.3032 24.0078C26.5079 24.0127 26.6709 24.1846 26.6655 24.3889L26.6461 25.1654C26.6406 25.3696 26.4692 25.5326 26.265 25.5271L25.6399 25.5112C25.5574 25.7595 25.4423 25.9958 25.2976 26.2138L25.6931 26.6297C25.8337 26.7777 25.8278 27.0142 25.6797 27.1548L25.1163 27.6899C24.9682 27.8306 24.7317 27.8246 24.5911 27.6765L24.1603 27.2234C23.9268 27.3407 23.6774 27.4271 23.4215 27.4788L23.4066 28.0517C23.4016 28.2559 23.2302 28.4188 23.0255 28.4139L22.2494 28.394C22.0452 28.3885 21.8822 28.2171 21.8877 28.0129L21.9036 27.3879C21.6553 27.3053 21.4191 27.1902 21.2011 27.0455L20.7852 27.4405C20.6371 27.5816 20.4006 27.5752 20.2595 27.4271L19.7249 26.8642C19.5838 26.7161 19.5898 26.4796 19.7383 26.339L20.1915 25.9082C20.0735 25.6745 19.9874 25.426 19.9356 25.1694L19.3632 25.155C19.159 25.15 18.9955 24.9781 19.0005 24.7739L19.0209 23.9973C19.0258 23.7931 19.1973 23.6302 19.4015 23.6356L20.0265 23.6515C20.109 23.4036 20.2242 23.1661 20.3688 22.9485L19.9738 22.5331C19.8332 22.3845 19.8392 22.1485 19.9872 22.0079L20.5502 21.4728C20.6982 21.3317 20.9347 21.3377 21.0754 21.4862L21.5066 21.9394C21.7372 21.8231 21.9851 21.7362 22.2449 21.6835L22.2599 21.1111C22.2648 20.9069 22.4362 20.7439 22.6409 20.7489L23.417 20.7688C23.6212 20.7742 23.7842 20.9457 23.7792 21.1499L23.7633 21.7749C24.0113 21.8569 24.2483 21.9722 24.4659 22.1167L24.8813 21.7222C25.0298 21.5811 25.2663 21.5876 25.4074 21.7357L25.4069 21.7352ZM14.9685 21.8385C14.8299 22.1282 14.4816 22.2499 14.1915 22.1113C13.9018 21.9727 13.7801 21.6264 13.9187 21.3347C14.2252 20.6923 14.6028 20.0896 15.0401 19.5356C15.4788 18.9792 15.9779 18.4731 16.5282 18.0266C16.7781 17.8224 17.1452 17.8607 17.3465 18.1101C17.5507 18.36 17.5124 18.7272 17.2625 18.9289C16.7781 19.3239 16.3369 19.7686 15.9528 20.2555C15.5687 20.7449 15.2393 21.2741 14.9685 21.8385ZM20.506 11.5621C21.6517 10.1466 22.9718 9.37643 23.9636 10.636C25.1033 10.6956 25.5918 12.4251 24.8077 13.2782C24.8639 13.2777 24.917 13.2892 24.9622 13.314C25.0224 13.3463 25.0676 13.3995 25.0904 13.475C25.1371 13.627 25.0715 13.7791 25.0378 13.9266C24.9856 14.1542 24.9275 14.4046 24.6681 14.3907L24.6264 14.3862C24.6169 14.8572 24.3874 15.0738 24.0863 15.3566C24.1434 15.44 24.2011 15.5245 24.2637 15.605C24.3039 15.6562 24.3302 15.6904 24.3774 15.7302C24.8952 16.1644 25.8695 16.2588 26.4185 16.5654C26.5959 16.6638 26.7564 16.7895 26.8851 16.9599C27.2075 17.3857 27.2597 17.7539 27.3243 18.2671C27.3327 18.3024 27.3377 18.3377 27.3377 18.3735C27.3377 18.4445 27.2801 18.5021 27.2095 18.5021H18.6631C18.5926 18.5021 18.5349 18.4445 18.5349 18.3735C18.5349 18.3372 18.5404 18.3009 18.5489 18.2656C18.6139 17.7529 18.6656 17.3852 18.9876 16.9599C19.1168 16.7895 19.2767 16.6643 19.4541 16.5654C19.9972 16.2623 20.9243 16.1664 21.4768 15.7451C21.5677 15.5881 21.6403 15.3983 21.7024 15.2279C21.4833 15.0252 21.3153 14.8055 21.2771 14.3877L21.2512 14.3882C21.1901 14.3877 21.1315 14.3738 21.0773 14.3425C20.9566 14.2739 20.8905 14.1427 20.8582 13.9927C20.82 13.8138 20.7743 13.2981 21.0207 13.1977C20.9904 12.6328 21.0863 11.738 20.506 11.5621ZM23.9427 15.4927C23.6451 15.7699 23.3201 15.9046 22.9907 15.9051C22.6464 15.9051 22.3006 15.757 21.9796 15.4713L21.8594 15.3665C21.7938 15.5399 21.7118 15.7471 21.61 15.8996C22.151 16.9962 23.7494 17.0344 24.2671 15.9061C24.1375 15.7739 24.0386 15.6333 23.9427 15.4927ZM23.81 11.6962C23.5487 11.9591 23.2729 12.0351 23.0017 12.0584C22.9222 12.0729 22.8437 12.0823 22.7661 12.0922C22.5063 12.124 22.2464 12.1563 21.9026 12.3938C21.7392 12.5071 21.6303 12.6442 21.5752 12.8032C21.519 12.9647 21.5156 13.154 21.5628 13.3686C21.5667 13.389 21.5658 13.4109 21.5583 13.4322C21.5369 13.4909 21.4713 13.5212 21.4122 13.4998C21.3208 13.4665 21.1236 13.3612 21.0744 13.4785C21.058 13.6027 21.048 13.791 21.0808 13.9455C21.1156 14.108 21.1762 14.1984 21.3496 14.1452L21.3804 14.1403C21.443 14.1388 21.4952 14.188 21.4962 14.2511C21.5086 14.7648 21.7372 14.9621 22.0144 15.201L22.1307 15.3019C22.4099 15.5498 22.7035 15.678 22.9907 15.678C23.271 15.678 23.5507 15.5558 23.8115 15.3039L23.9293 15.1921C24.2204 14.9188 24.4351 14.7171 24.3938 14.2262C24.3869 14.1328 24.4902 14.0687 24.5697 14.1219C24.6015 14.1422 24.6413 14.1621 24.6795 14.1641C24.7754 14.1691 24.8281 13.8039 24.8614 13.706C24.8817 13.6295 24.8842 13.5763 24.8738 13.5416C24.8624 13.5048 24.8296 13.5028 24.7958 13.5058C24.7396 13.5112 24.6721 13.5396 24.609 13.5863C24.5841 13.6081 24.5503 13.6186 24.5151 13.6126C24.5003 13.6101 24.4862 13.6048 24.4736 13.5968C24.4609 13.5889 24.45 13.5785 24.4414 13.5663C24.4327 13.5541 24.4266 13.5404 24.4233 13.5258C24.42 13.5112 24.4196 13.4962 24.4222 13.4814C24.5295 12.8569 24.4803 12.4495 24.3471 12.1722C24.2309 11.9293 24.0446 11.7812 23.8428 11.6714L23.81 11.6962ZM28.6072 24.836C29.7529 23.42 31.073 22.6504 32.0648 23.9094C33.2045 23.969 33.6929 25.6991 32.9089 26.5517C32.9651 26.5512 33.0182 26.5626 33.0634 26.5879C33.1236 26.6202 33.1688 26.6734 33.1916 26.7489C33.2383 26.9004 33.1732 27.0525 33.139 27.2C33.0868 27.4276 33.0291 27.678 32.7693 27.6646L32.7281 27.6596C32.7181 28.1307 32.4886 28.3473 32.1875 28.63C32.2446 28.714 32.3023 28.7979 32.3649 28.8784C32.4051 28.9296 32.4314 28.9639 32.4786 29.0036C32.9964 29.4379 33.9707 29.5323 34.5197 29.8388C34.6976 29.9372 34.8576 30.0634 34.9863 30.2333C35.3087 30.6591 35.3609 31.0273 35.4255 31.5406C35.4339 31.5758 35.4389 31.6111 35.4389 31.6469C35.4389 31.7179 35.3813 31.7756 35.3107 31.7756H26.7643C26.6938 31.7756 26.6361 31.7179 26.6361 31.6469C26.6361 31.6106 26.6416 31.5743 26.65 31.5391C26.7151 31.0263 26.7668 30.6586 27.0893 30.2333C27.218 30.0634 27.3779 29.9377 27.5553 29.8388C28.0984 29.5358 29.0255 29.4399 29.578 29.0185C29.6689 28.8615 29.7415 28.6717 29.8036 28.5013C29.585 28.2986 29.4165 28.0795 29.3783 27.6616L29.3524 27.6621C29.2913 27.6611 29.2327 27.6472 29.1785 27.6159C29.0578 27.5473 28.9917 27.4162 28.9594 27.2661C28.9212 27.0878 28.8755 26.572 29.1219 26.4717C29.0916 25.9062 29.1875 25.0114 28.6072 24.836ZM32.0439 28.7661C31.7463 29.0434 31.4218 29.178 31.0924 29.1785C30.7476 29.1785 30.4018 29.031 30.0808 28.7453L29.9606 28.6399C29.895 28.8133 29.813 29.0205 29.7112 29.1731C30.2522 30.2696 31.8506 30.3079 32.3683 29.1795C32.2387 29.0473 32.1398 28.9067 32.0439 28.7661ZM31.9112 24.9697C31.6499 25.2325 31.3741 25.3085 31.1028 25.3319C31.0234 25.3463 30.9448 25.3562 30.8673 25.3657C30.6075 25.398 30.3476 25.4298 30.0038 25.6678C29.8408 25.781 29.7315 25.9177 29.6764 26.0767C29.6202 26.2381 29.6168 26.4274 29.664 26.6421C29.6684 26.6625 29.6669 26.6843 29.6595 26.7057C29.6491 26.7339 29.6279 26.7568 29.6006 26.7695C29.5734 26.7821 29.5422 26.7835 29.5139 26.7733C29.422 26.74 29.2247 26.6346 29.1756 26.7519C29.1592 26.8761 29.1492 27.0644 29.182 27.2194C29.2168 27.3814 29.2774 27.4718 29.4508 27.4187L29.4816 27.4137C29.5442 27.4122 29.5964 27.4619 29.5979 27.5245C29.6098 28.0387 29.8384 28.2355 30.1161 28.4745L30.2324 28.5753C30.5111 28.8233 30.8052 28.9515 31.0924 28.9515C31.3721 28.9515 31.6519 28.8292 31.9127 28.5773L32.0305 28.466C32.3216 28.1923 32.5363 27.9905 32.495 27.4997C32.4881 27.4067 32.5914 27.3421 32.6714 27.3953C32.7027 27.4157 32.743 27.4361 32.7807 27.4375C32.8766 27.4425 32.9298 27.0773 32.9626 26.9794C32.9829 26.9034 32.9854 26.8498 32.975 26.815C32.9636 26.7782 32.9308 26.7762 32.897 26.7792C32.8408 26.7847 32.7738 26.813 32.7102 26.8597C32.6858 26.8816 32.6515 26.8925 32.6163 26.8865C32.5865 26.8813 32.5601 26.8645 32.5426 26.8399C32.5252 26.8152 32.5183 26.7846 32.5234 26.7549C32.6307 26.1303 32.5815 25.7229 32.4483 25.4457C32.3321 25.2027 32.1457 25.0551 31.944 24.9448L31.9112 24.9697ZM11.971 24.836C13.1168 23.42 14.4369 22.6504 15.4286 23.9094C16.5679 23.969 17.0563 25.6991 16.2728 26.5517C16.3284 26.5512 16.3816 26.5626 16.4273 26.5879C16.4869 26.6202 16.5326 26.6734 16.5555 26.7489C16.6022 26.9004 16.5366 27.0525 16.5028 27.2C16.4506 27.4276 16.3925 27.678 16.1332 27.6646L16.0914 27.6596C16.082 28.1307 15.8519 28.3473 15.5513 28.63C15.6085 28.714 15.6656 28.7979 15.7287 28.8784C15.7685 28.9296 15.7948 28.9639 15.8425 29.0036C16.3602 29.4379 17.3345 29.5323 17.8836 29.8388C18.0609 29.9372 18.2214 30.0634 18.3501 30.2333C18.6726 30.6591 18.7242 31.0273 18.7893 31.5406C18.7973 31.5758 18.8027 31.6111 18.8027 31.6469C18.8027 31.7179 18.7451 31.7756 18.6746 31.7756H10.1282C10.0576 31.7756 10 31.7179 10 31.6469C10 31.6106 10.0055 31.5743 10.0139 31.5391C10.0785 31.0263 10.1307 30.6586 10.4526 30.2333C10.5818 30.0634 10.7418 29.9377 10.9192 29.8388C11.4617 29.5358 12.3894 29.4399 12.9419 29.0185C13.0328 28.8615 13.1053 28.6717 13.1669 28.5013C12.9483 28.2986 12.7799 28.0795 12.7421 27.6616L12.7163 27.6621C12.6552 27.6611 12.5966 27.6472 12.5424 27.6159C12.4212 27.5473 12.3556 27.4162 12.3233 27.2661C12.285 27.0878 12.2393 26.572 12.4858 26.4717C12.4554 25.9062 12.5508 25.0114 11.971 24.836ZM15.4073 28.7661C15.1101 29.0434 14.7852 29.178 14.4558 29.1785C14.1115 29.1785 13.7657 29.031 13.4447 28.7453L13.3239 28.6399C13.2589 28.8133 13.1769 29.0205 13.075 29.1731C13.6156 30.2696 15.2145 30.3079 15.7322 29.1795C15.6025 29.0473 15.5036 28.9067 15.4073 28.7661ZM15.2751 24.9697C15.0137 25.2325 14.7375 25.3085 14.4667 25.3319C14.3867 25.3463 14.3087 25.3562 14.2307 25.3657C13.9709 25.398 13.7115 25.4298 13.3677 25.6678C13.2042 25.781 13.0954 25.9177 13.0397 26.0767C12.9836 26.2381 12.9806 26.4274 13.0278 26.6421C13.0318 26.6625 13.0308 26.6843 13.0234 26.7057C13.002 26.7643 12.9364 26.7946 12.8773 26.7733C12.7859 26.74 12.5886 26.6346 12.5394 26.7519C12.523 26.8761 12.5131 27.0644 12.5459 27.2194C12.5802 27.3814 12.6413 27.4718 12.8147 27.4187L12.8455 27.4137C12.9081 27.4122 12.9603 27.4619 12.9612 27.5245C12.9737 28.0387 13.2022 28.2355 13.4795 28.4745L13.5957 28.5753C13.8745 28.8233 14.1686 28.9515 14.4558 28.9515C14.7355 28.9515 15.0157 28.8292 15.2766 28.5773L15.3943 28.466C15.6855 28.1923 15.9001 27.9905 15.8589 27.4997C15.8514 27.4067 15.9548 27.3421 16.0348 27.3953C16.0661 27.4157 16.1063 27.4361 16.1446 27.4375C16.2405 27.4425 16.2931 27.0773 16.3264 26.9794C16.3468 26.9034 16.3493 26.8498 16.3389 26.815C16.3274 26.7782 16.2946 26.7762 16.2608 26.7792C16.2047 26.7847 16.1371 26.813 16.074 26.8597C16.0492 26.8816 16.0154 26.8925 15.9801 26.8865C15.9654 26.884 15.9513 26.8786 15.9386 26.8706C15.926 26.8626 15.915 26.8522 15.9064 26.84C15.8977 26.8277 15.8916 26.8139 15.8883 26.7993C15.885 26.7847 15.8847 26.7696 15.8872 26.7549C15.994 26.1303 15.9453 25.7229 15.8122 25.4457C15.6954 25.2027 15.5096 25.0551 15.3079 24.9448L15.2751 24.9697ZM28.6881 19.0298C28.4427 18.8241 28.4109 18.4564 28.6166 18.211C28.8228 17.9655 29.19 17.9337 29.4354 18.1394C29.5532 18.2383 29.6456 18.3183 29.7146 18.3809C29.7986 18.4564 29.887 18.5429 29.9834 18.6353C30.3362 18.9836 30.6616 19.3532 30.9513 19.7433C31.2444 20.1381 31.5075 20.5543 31.7383 20.9884C31.8874 21.2741 31.7781 21.6263 31.4949 21.7754C31.2092 21.9245 30.8564 21.8152 30.7078 21.5319C30.5081 21.1538 30.2771 20.7887 30.0172 20.4423C29.7549 20.0921 29.4712 19.7641 29.1671 19.4665C29.0975 19.397 29.0176 19.3239 28.9316 19.2439C28.8288 19.1515 28.7468 19.08 28.6881 19.0298ZM25.5982 32.3986C25.9028 32.2958 26.2322 32.4617 26.335 32.7658C26.4384 33.0704 26.2724 33.3998 25.9679 33.5026C25.4829 33.6666 24.9811 33.7923 24.4649 33.8743C23.9551 33.9582 23.4364 34 22.9157 34C22.3846 34 21.8574 33.9563 21.3392 33.8703C20.808 33.7819 20.2958 33.6517 19.8069 33.4838C19.5023 33.3789 19.3389 33.047 19.4437 32.7424C19.5485 32.4384 19.8804 32.2749 20.1845 32.3797C20.6212 32.5283 21.0704 32.6441 21.524 32.7196C21.9712 32.7931 22.4352 32.8329 22.9137 32.8329C23.3837 32.8329 23.8393 32.7951 24.2761 32.7241C24.7317 32.6525 25.1724 32.5412 25.5982 32.3986ZM22.872 23.0553C23.7151 23.0767 24.3809 23.7777 24.3596 24.6204C24.3382 25.4631 23.6371 26.1293 22.7945 26.1075C21.9518 26.0861 21.2855 25.385 21.3069 24.5424C21.3283 23.6997 22.0293 23.0334 22.872 23.0553Z" fill="white"></path>
  </g>
  <defs>
    <clipPath id="clip0_134_49">
      <rect width="25.4389" height="24" fill="white" transform="translate(10 10)"></rect>
    </clipPath>
  </defs>
</svg>
