<?xml version="1.0" encoding="UTF-8"?>
<svg xmlns="http://www.w3.org/2000/svg" width="46" height="46" viewBox="0 0 46 46" fill="none">
  <circle cx="23" cy="23" r="23" fill="#ED1B24"></circle>
  <g clip-path="url(#clip0_134_205)">
    <path d="M20.6189 30.9335C20.3962 30.9393 20.2009 30.7753 20.1697 30.5507C20.1365 30.3163 20.2947 30.0995 20.5251 30.0546C20.2712 28.6151 19.5779 27.8221 18.8455 26.9843C18.2751 26.3319 17.6834 25.6542 17.2166 24.6561C16.7576 23.6737 16.5056 22.6581 16.5134 21.6034C16.5232 20.5487 16.7908 19.4628 17.3728 18.3397C17.3767 18.3319 17.3806 18.3261 17.3845 18.3182C18.1482 17.0253 19.2166 16.162 20.406 15.6776C21.4041 15.2694 22.488 15.1307 23.5505 15.2284C24.6091 15.3261 25.6462 15.6581 26.5525 16.1932C27.7048 16.8749 28.6521 17.8866 29.1736 19.1639C29.4548 19.8553 29.6462 20.6268 29.6697 21.4725C29.6931 22.3143 29.5486 23.2225 29.1599 24.1835C28.6404 25.4706 27.9529 26.2694 27.3103 27.0175C26.7185 27.7069 26.1677 28.3475 25.8611 29.33C26.0349 29.371 26.1716 29.5136 26.199 29.7011C26.2322 29.9432 26.0623 30.1678 25.8201 30.2011L25.6697 30.2225C25.6423 30.4354 25.6248 30.6639 25.6169 30.9081L25.6658 30.9003C25.908 30.8671 26.1326 31.037 26.1658 31.2792C26.199 31.5214 26.0291 31.746 25.7869 31.7792L25.6345 31.8007C25.6365 31.83 25.6384 31.8593 25.6404 31.8886C25.6541 32.0604 25.656 32.2264 25.6462 32.3846L25.6716 32.3807C25.9158 32.3514 26.1365 32.5253 26.1677 32.7675C26.197 33.0116 26.0232 33.2323 25.781 33.2636L25.4529 33.3046C25.2185 33.912 24.8005 34.3729 24.3064 34.66C23.9666 34.8573 23.5896 34.9706 23.2107 34.994C22.8259 35.0175 22.4373 34.9452 22.0818 34.7733C21.6755 34.5741 21.3123 34.244 21.0486 33.7694C20.9216 33.705 20.8279 33.58 20.8084 33.4276C20.8005 33.3671 20.8064 33.3085 20.822 33.2538C20.7459 33.0272 20.6873 32.7792 20.6521 32.5057L20.6384 32.5077C20.3962 32.5409 20.1716 32.371 20.1384 32.1288C20.1052 31.8866 20.2751 31.662 20.5173 31.6288L20.6228 31.6132C20.6306 31.3749 20.6287 31.1483 20.6189 30.9335ZM24.9705 18.8788C25.0837 18.8807 25.199 18.9022 25.3103 18.9393C25.5447 19.0194 25.7693 19.1737 25.9431 19.3788C26.1169 19.5858 26.2419 19.8456 26.2732 20.1346C26.2869 20.2616 26.283 20.3925 26.2576 20.5272C26.3787 20.6386 26.4802 20.7616 26.5564 20.8944C26.6814 21.1073 26.7459 21.3436 26.738 21.5839C26.7302 21.8261 26.6521 22.0682 26.4861 22.2909C26.3865 22.4257 26.2556 22.5526 26.0916 22.6678C26.1033 23.0272 25.9959 23.3514 25.822 23.6014C25.6287 23.8807 25.3513 24.0741 25.0603 24.1346C24.99 24.3866 24.8201 24.6093 24.6052 24.7636C24.324 24.9647 23.9568 25.0585 23.6209 24.9667C23.3904 24.9042 23.1794 24.7577 23.0271 24.5077C22.8435 24.785 22.6013 24.9335 22.3474 24.9862C22.0232 25.0546 21.6873 24.955 21.4334 24.7577C21.238 24.6053 21.0896 24.3925 21.031 24.1503C20.9373 24.1425 20.8416 24.1229 20.7498 24.0917C20.5212 24.0136 20.3005 23.8651 20.1306 23.6659C19.9587 23.4667 19.8318 23.2167 19.7927 22.9374C19.7732 22.7987 19.7751 22.6522 19.8044 22.5038C19.699 22.4061 19.6091 22.2968 19.5349 22.1776C19.4041 21.9647 19.3298 21.7245 19.3337 21.4764C19.3376 21.2264 19.4158 20.9745 19.5876 20.7401C19.6834 20.6093 19.8103 20.4843 19.9685 20.369C19.9666 20.33 19.9666 20.2909 19.9685 20.2538C19.9822 19.8905 20.115 19.5721 20.3084 19.3358C20.3142 19.33 20.3181 19.3241 20.324 19.3182C20.5173 19.0897 20.7693 18.9374 21.031 18.8925C21.0408 18.8573 21.0505 18.8241 21.0623 18.7889C21.1541 18.5428 21.3396 18.3319 21.5681 18.1991C21.7986 18.0643 22.0759 18.0057 22.3455 18.0624C22.5876 18.1132 22.8201 18.2518 22.9998 18.5057C23.1794 18.2518 23.4119 18.1132 23.6541 18.0624C23.9001 18.0116 24.1521 18.0546 24.3689 18.1639C24.5818 18.2714 24.7654 18.4452 24.8767 18.6522C24.9197 18.7264 24.9509 18.8007 24.9705 18.8788ZM25.0447 23.5682C25.1658 23.5175 25.283 23.4198 25.3728 23.2889C25.4998 23.1034 25.572 22.8553 25.5369 22.5761L25.5349 22.5682V22.5624C25.5212 22.4569 25.5701 22.3475 25.6677 22.2889C25.8376 22.1893 25.9607 22.08 26.0466 21.9628C26.1404 21.8339 26.1873 21.6991 26.1912 21.5663C26.1951 21.4315 26.156 21.2968 26.0818 21.1698C26.0134 21.0526 25.9158 20.9452 25.7966 20.8534C25.6951 20.787 25.6482 20.6581 25.6892 20.537C25.7302 20.4159 25.74 20.3007 25.7283 20.1893C25.7087 20.0175 25.6326 19.8593 25.5251 19.7303C25.4158 19.6014 25.2771 19.5057 25.1365 19.4569C25.0759 19.4374 25.0154 19.4257 24.9587 19.4257C24.9158 19.5546 24.8455 19.6835 24.74 19.8085C24.6423 19.9237 24.4705 19.9393 24.3552 19.8417C24.24 19.744 24.2244 19.5721 24.322 19.4569C24.4822 19.2675 24.4841 19.0682 24.4001 18.9139C24.3416 18.8046 24.2439 18.7128 24.1287 18.6561C24.0173 18.5995 23.8923 18.5761 23.7732 18.6014C23.5994 18.6366 23.4314 18.7831 23.322 19.0878V23.7167C23.3435 23.7479 23.3572 23.7831 23.363 23.8241C23.4255 24.2069 23.5876 24.3905 23.7693 24.4413C23.9373 24.4882 24.1326 24.4315 24.2888 24.3202C24.4412 24.2108 24.5505 24.0526 24.5525 23.8866C24.5544 23.6971 24.4099 23.4803 24.0251 23.2831C23.8904 23.2147 23.8357 23.0487 23.9041 22.9139C23.9724 22.7792 24.1384 22.7245 24.2732 22.7928C24.7087 23.0136 24.947 23.2889 25.0447 23.5682ZM21.0564 19.4511C20.9451 19.4882 20.8357 19.5643 20.7439 19.6698C20.74 19.6757 20.7361 19.6796 20.7322 19.6835C20.6072 19.8358 20.5232 20.0389 20.5134 20.2733C20.5115 20.3358 20.5134 20.4022 20.5232 20.4706C20.5369 20.5741 20.49 20.6815 20.3962 20.7421C20.2322 20.8436 20.1111 20.953 20.0271 21.0682C19.9255 21.205 19.8806 21.3495 19.8787 21.4862C19.8767 21.6268 19.9197 21.7655 19.9978 21.8925C20.0642 21.9999 20.1541 22.0975 20.2654 22.1796C20.365 22.2479 20.4099 22.3749 20.3709 22.494C20.3279 22.6229 20.3181 22.7479 20.3337 22.8651C20.3572 23.0331 20.4353 23.1854 20.5427 23.3104C20.6501 23.4354 20.7849 23.5272 20.9236 23.5741C20.9685 23.5897 21.0134 23.5995 21.0564 23.6034C21.156 23.3124 21.406 23.0253 21.8611 22.7928C21.9959 22.7245 22.1599 22.7772 22.2302 22.912C22.2986 23.0468 22.2459 23.2108 22.1111 23.2811C21.7029 23.4882 21.5505 23.7225 21.5505 23.9257C21.5505 24.08 21.6404 24.2264 21.7712 24.328C21.9041 24.4315 22.0759 24.4843 22.2361 24.4511C22.4373 24.41 22.6326 24.2186 22.7361 23.8007C22.7419 23.7733 22.7537 23.7479 22.7673 23.7245V19.328C22.7615 19.3182 22.7556 19.3065 22.7498 19.2948L22.7478 19.2909L22.7459 19.287L22.7439 19.2831V19.2811V19.2792L22.7419 19.2753V19.2733V19.2714C22.74 19.2636 22.738 19.2557 22.7361 19.2479C22.6326 18.8319 22.4373 18.6425 22.2361 18.6014C22.1052 18.5741 21.9646 18.6053 21.8455 18.6757C21.7244 18.746 21.6267 18.8553 21.5798 18.9803C21.5193 19.1444 21.5564 19.3475 21.7654 19.5409C21.8767 19.6444 21.8826 19.8163 21.781 19.9276C21.6775 20.0389 21.5056 20.0448 21.3943 19.9432C21.2244 19.7831 21.115 19.6171 21.0564 19.4511ZM21.113 20.3553C21.2205 20.2499 21.3943 20.2499 21.5017 20.3593C21.6072 20.4667 21.6072 20.6405 21.4978 20.7479C21.3084 20.9335 21.2087 21.1757 21.199 21.4198C21.1892 21.6737 21.2712 21.9354 21.4451 22.1503C21.5408 22.2675 21.5212 22.4413 21.4041 22.535C21.2869 22.6307 21.113 22.6112 21.0193 22.494C20.7595 22.1718 20.6365 21.7811 20.6521 21.3983C20.6658 21.0175 20.8181 20.6444 21.113 20.3553ZM24.3884 20.6444C24.2654 20.5546 24.238 20.3846 24.3279 20.2616C24.4177 20.1386 24.5876 20.1112 24.7107 20.2011C24.7576 20.2362 24.8025 20.2714 24.8435 20.3085C25.1521 20.5878 25.322 20.955 25.3533 21.3358C25.3845 21.7128 25.2791 22.1014 25.0408 22.4276C25.0369 22.4335 25.031 22.4413 25.0251 22.4471C24.9919 22.4921 24.9587 22.5311 24.9275 22.5682C24.8259 22.6815 24.6521 22.6893 24.5388 22.5878C24.4255 22.4862 24.4177 22.3124 24.5193 22.1991C24.5447 22.1698 24.5662 22.1444 24.5857 22.119C24.5896 22.1132 24.5916 22.1093 24.5955 22.1034C24.7537 21.8846 24.824 21.6268 24.8044 21.3768C24.7849 21.1307 24.6755 20.8944 24.4763 20.7147C24.449 20.6913 24.4197 20.6678 24.3884 20.6444ZM12.4255 22.496C12.197 22.5018 12.0076 22.3241 11.9998 22.0956C11.9919 21.8671 12.1716 21.6776 12.4001 21.6698L14.0994 21.6112C14.3279 21.6034 14.5173 21.7831 14.5251 22.0116C14.533 22.2401 14.3533 22.4296 14.1248 22.4374L12.4255 22.496ZM33.6169 20.8143C33.8435 20.7909 34.0466 20.9569 34.0701 21.1835C34.0935 21.41 33.9275 21.6132 33.7009 21.6366L32.0095 21.8143C31.783 21.8378 31.5798 21.6718 31.5564 21.4452C31.533 21.2186 31.699 21.0155 31.9255 20.9921L33.6169 20.8143ZM30.5369 13.8866C30.6638 13.6971 30.9197 13.6464 31.1091 13.7733C31.2986 13.9003 31.3494 14.1561 31.2224 14.3456L30.2771 15.7596C30.1501 15.9491 29.8943 15.9999 29.7048 15.8729C29.5154 15.746 29.4646 15.4901 29.5916 15.3007L30.5369 13.8866ZM23.2556 11.4022C23.2615 11.1737 23.4509 10.994 23.6775 10.9999C23.906 11.0057 24.0857 11.1952 24.0798 11.4218L24.0369 13.121C24.031 13.3495 23.8416 13.5292 23.615 13.5233C23.3865 13.5175 23.2068 13.328 23.2126 13.1014L23.2556 11.4022ZM14.7107 14.0331C14.5427 13.8768 14.5349 13.6151 14.6892 13.4491C14.8455 13.2811 15.1072 13.2733 15.2732 13.4276L16.5173 14.5878C16.6853 14.744 16.6931 15.0057 16.5388 15.1718C16.3826 15.3397 16.1209 15.3475 15.9548 15.1932L14.7107 14.0331ZM21.3513 29.9354L24.9626 29.4237C25.2732 28.1151 25.949 27.328 26.6814 26.4784C27.283 25.7792 27.9236 25.0331 28.3923 23.8729C28.7361 23.0233 28.863 22.2264 28.8435 21.4921C28.824 20.7596 28.656 20.0839 28.406 19.4725C27.9568 18.3729 27.1345 17.4979 26.1326 16.9042C25.3298 16.4296 24.4138 16.1346 23.4783 16.0507C22.5466 15.9647 21.5955 16.0878 20.7185 16.4452C19.6912 16.8651 18.7673 17.6112 18.1033 18.7343C17.5876 19.7343 17.3494 20.6913 17.3416 21.6112C17.3337 22.537 17.5584 23.4335 17.9666 24.3065C18.3826 25.1971 18.9373 25.83 19.4685 26.4393C20.2947 27.3866 21.0779 28.2831 21.3513 29.9354ZM24.8162 30.3397L21.4431 30.8182C21.4529 31.0331 21.4568 31.2577 21.4529 31.496L24.783 31.0233C24.7869 30.7831 24.7966 30.5546 24.8162 30.3397ZM21.4705 32.3905C21.4939 32.5702 21.5291 32.7343 21.574 32.8866L24.8064 32.4882C24.8279 32.3202 24.8318 32.1425 24.8162 31.953V31.9491L24.8142 31.9159L21.4705 32.3905ZM22.033 33.7264C22.158 33.8573 22.2966 33.9589 22.4431 34.0292C22.6677 34.1386 22.9158 34.1835 23.1599 34.1698C23.4099 34.1542 23.6619 34.078 23.8904 33.9452C24.1052 33.8202 24.2986 33.6464 24.4529 33.4276L22.033 33.7264Z" fill="white"></path>
  </g>
  <defs>
    <clipPath id="clip0_134_205">
      <rect width="22.0723" height="24" fill="white" transform="translate(12 11)"></rect>
    </clipPath>
  </defs>
</svg>
