<?xml version="1.0" encoding="UTF-8"?>
<svg xmlns="http://www.w3.org/2000/svg" width="46" height="46" viewBox="0 0 46 46" fill="none">
  <circle cx="23" cy="23" r="23" fill="#ED1B24"></circle>
  <g clip-path="url(#clip0_134_101)">
    <path d="M30.8337 26.9361C30.7354 26.8697 30.6244 26.8402 30.5108 26.8623C30.3973 26.8844 30.3014 26.9435 30.2333 27.0369L29.8499 27.563C29.7136 27.504 29.5723 27.4597 29.421 27.4229C29.2696 27.386 29.1283 27.3565 28.977 27.3344L28.8559 26.646C28.8332 26.528 28.7726 26.4419 28.6843 26.3755C28.5859 26.3092 28.4825 26.287 28.3614 26.3092L27.4759 26.464C27.3624 26.4862 27.2741 26.5378 27.1984 26.6337C27.1303 26.7296 27.1 26.8304 27.1227 26.9484L27.2362 27.5778C27.0924 27.6368 26.9587 27.7031 26.8301 27.7818C26.7014 27.8556 26.5753 27.9441 26.4618 28.0301L25.8613 27.6269C25.7629 27.5605 25.6595 27.531 25.546 27.5532C25.4325 27.5753 25.3366 27.6343 25.2685 27.7302L24.7563 28.4407C24.6882 28.5366 24.658 28.6447 24.6807 28.7554C24.7034 28.8734 24.7639 28.9594 24.8623 29.0258L25.4022 29.3995C25.3416 29.5323 25.2962 29.6699 25.2584 29.8175C25.2205 29.965 25.1903 30.1026 25.1676 30.2502L24.4612 30.3682C24.3401 30.3903 24.2518 30.4493 24.1837 30.5353C24.1156 30.6312 24.0929 30.732 24.1156 30.85L24.2745 31.713C24.2972 31.8236 24.3502 31.9096 24.446 31.9834C24.5444 32.0498 24.6479 32.0793 24.769 32.0572L25.4148 31.9465C25.4753 32.0867 25.5435 32.217 25.6242 32.3423C25.6999 32.4677 25.7907 32.5907 25.879 32.7087L25.4653 33.2864C25.3971 33.3823 25.3669 33.4831 25.3896 33.5937C25.4123 33.7044 25.4728 33.7978 25.5687 33.8642L26.3053 34.3682C26.4037 34.4345 26.5147 34.4567 26.6283 34.4345C26.7418 34.4124 26.8376 34.3608 26.9133 34.2674L27.2968 33.7339C27.433 33.7929 27.5743 33.8371 27.7257 33.874C27.877 33.9109 28.0183 33.9404 28.1697 33.9625L28.2908 34.6509C28.3135 34.7689 28.374 34.8549 28.4623 34.9213C28.5607 34.9877 28.6641 35.0098 28.7852 34.9877L29.6707 34.8328C29.7843 34.8107 29.8726 34.7591 29.9482 34.6656C30.0164 34.5698 30.0466 34.469 30.0239 34.351L29.9104 33.7216C30.0542 33.6626 30.1879 33.5962 30.3166 33.5175C30.4452 33.4438 30.5714 33.3577 30.6925 33.2692L31.2853 33.6724C31.3837 33.7388 31.4871 33.7683 31.6082 33.7462C31.7293 33.724 31.8176 33.665 31.8857 33.5716L32.4029 32.8537C32.471 32.7578 32.4937 32.6497 32.471 32.539C32.4483 32.4284 32.3953 32.335 32.297 32.2612L31.7495 31.8949C31.8101 31.7621 31.8555 31.6245 31.8933 31.477C31.9312 31.3294 31.9614 31.1918 31.9841 31.0443L32.6905 30.9262C32.8116 30.9041 32.8999 30.8451 32.968 30.7566C33.0361 30.6607 33.0588 30.5599 33.0361 30.4419L32.8772 29.579C32.8545 29.4683 32.8015 29.3823 32.7056 29.3085C32.6073 29.2422 32.5038 29.2127 32.3827 29.2348L31.7369 29.3454C31.6764 29.2127 31.6082 29.0824 31.5275 28.9496C31.4518 28.8168 31.361 28.7013 31.2727 28.5907L31.6864 28.0055C31.7546 27.9096 31.7848 27.8089 31.7621 27.6982C31.7394 27.5876 31.6789 27.4942 31.583 27.4278L30.8539 26.9287L30.8337 26.9361ZM37.4964 24.5538L35.8516 24.5685C35.6119 24.571 35.4176 24.3817 35.4151 24.1481C35.4126 23.9146 35.6069 23.7253 35.844 23.7228L38.5509 23.6958H38.5535H38.5636H38.5661H38.5762H38.5787H38.5888H38.5913H38.6014H38.6039H38.614H38.6165L38.6266 23.6982H38.6292L38.6392 23.7007H38.6418L38.6519 23.7031H38.6544L38.6619 23.7056H38.6645L38.672 23.7081H38.6746L38.6821 23.7105H38.6847L38.6922 23.713H38.6947L38.7023 23.7154H38.7048L38.7124 23.7179H38.7149L38.7225 23.7203H38.725L38.7326 23.7228H38.7351L38.7427 23.7253H38.7452L38.7528 23.7277H38.7553L38.7629 23.7326H38.7654L38.773 23.7376H38.7755L38.783 23.7425H38.7856L38.7931 23.7474H38.7957L38.8032 23.7523H38.8057L38.8133 23.7572H38.8158L38.8234 23.7621H38.8259L38.8335 23.7671H38.836L38.8436 23.772H38.8461L38.8537 23.7769H38.8562L38.8638 23.7818H38.8663L38.8739 23.7867H38.8764L38.884 23.7916L38.8865 23.7941L38.8915 23.799L38.894 23.8015L38.8991 23.8064L38.9041 23.8113V23.8138L38.9092 23.8211V23.8236L38.9142 23.831V23.8334L38.9193 23.8408V23.8433L38.9243 23.8506V23.8531L38.9294 23.8605V23.8629L38.9344 23.8703V23.8728L38.9395 23.8801V23.8826L38.9445 23.89V23.8924L38.9495 23.8998V23.9023L38.9546 23.9096V23.9121L38.9596 23.9195V23.9219L38.9647 23.9293V23.9318L38.9697 23.9392V23.9416L38.9722 23.949V23.9514L38.9748 23.9588V23.9613L38.9773 23.9687L38.9798 23.976V23.9785V23.9809L38.9823 23.9883V23.9908L38.9849 23.9982V24.0006L38.9874 24.008V24.0104L38.9899 24.0178V24.0203L38.9924 24.0277V24.0301L38.995 24.04V24.0424L38.9975 24.0522V24.0547L39 24.0645V24.067L39.0025 24.0768V24.0867V24.0891V24.099V24.1014V24.1112V24.1137V24.1235V24.126L39.0151 26.8525C39.0151 27.086 38.8234 27.2754 38.5837 27.2778C38.3441 27.2778 38.1498 27.091 38.1498 26.8574L38.1423 25.1463L36.5529 26.6951C36.3839 26.8599 36.1064 26.8599 35.9373 26.6951C35.7683 26.5304 35.7683 26.26 35.9373 26.0953L37.4964 24.5538ZM22.5413 11.8556L20.8965 11.8703C20.6568 11.8728 20.4626 11.6835 20.46 11.4524C20.4575 11.2188 20.6518 11.0295 20.8914 11.027L23.5984 11H23.6009H23.611H23.6135H23.6236H23.6261H23.6362H23.6388H23.6488H23.6514H23.6615H23.664L23.6741 11.0025H23.6766L23.6867 11.0049H23.6892L23.6993 11.0074H23.7018L23.7094 11.0098H23.7119L23.7195 11.0123H23.722L23.7296 11.0148H23.7321L23.7397 11.0172H23.7422L23.7498 11.0197H23.7523L23.7598 11.0221H23.7624L23.7699 11.0246H23.7725L23.78 11.027H23.7826L23.7901 11.0295H23.7926L23.8002 11.032H23.8027L23.8103 11.0369H23.8128L23.8204 11.0418H23.8229L23.8305 11.0467H23.833L23.8406 11.0516H23.8431L23.8507 11.0565H23.8532L23.8608 11.0615H23.8633L23.8709 11.0664H23.8734L23.8809 11.0713H23.8835L23.891 11.0762H23.8936L23.9011 11.0811H23.9036L23.9112 11.086H23.9137L23.9213 11.091H23.9238L23.9314 11.0959L23.9339 11.0983L23.939 11.1033L23.9415 11.1057L23.9465 11.1106V11.1131L23.9516 11.118V11.1205L23.9566 11.1278V11.1303L23.9617 11.1377V11.1401L23.9667 11.1475V11.15L23.9718 11.1573V11.1598L23.9768 11.1672V11.1696L23.9819 11.177V11.1795L23.9869 11.1868V11.1893L23.9919 11.1967V11.1991L23.997 11.2065V11.209L24.002 11.2163V11.2188L24.0071 11.2262V11.2286L24.0121 11.236V11.2385L23.9945 11.2459V11.2483L23.997 11.2557V11.2581L23.9995 11.2655V11.268L24.002 11.2754L24.0046 11.2827V11.2852V11.2876L24.0071 11.295V11.2975L24.0096 11.3049V11.3073L24.0121 11.3147V11.3171L24.0146 11.3245V11.327L24.0172 11.3368V11.3393L24.0197 11.3491V11.3516L24.0222 11.3614V11.3639L24.0247 11.3737V11.3762V11.386V11.3958V11.3983V11.4081V11.4106V11.4204V11.4229V11.4327V11.4352L24.0374 14.1616C24.0374 14.3952 23.8456 14.5845 23.606 14.5845C23.3663 14.5845 23.172 14.3977 23.172 14.1641L23.1645 12.453L21.5751 14.0018C21.4061 14.1666 21.1286 14.1666 20.9596 14.0018C20.7905 13.8371 20.7905 13.5667 20.9596 13.402L22.5413 11.8556ZM32.5946 15.3663L29.5345 15.3958C29.1763 15.3983 28.8836 15.118 28.8811 14.7689C28.8786 14.4198 29.1662 14.1346 29.5244 14.1321L34.1739 14.0879H34.1764H34.1916H34.1941H34.2092H34.2118H34.2269H34.2294H34.2445H34.2471L34.2597 14.0904H34.2622L34.2748 14.0928H34.2773L34.29 14.0953H34.2925L34.3051 14.0977H34.3076L34.3202 14.1002H34.3228L34.3354 14.1026H34.3379L34.3505 14.1051H34.353L34.3656 14.1076H34.3682L34.3808 14.1125H34.3833L34.3959 14.1174H34.3984L34.4111 14.1223H34.4136L34.4262 14.1272H34.4287L34.4413 14.1321H34.4438L34.4565 14.1371H34.459L34.4716 14.142H34.4741L34.4867 14.1469L34.4893 14.1494L34.5019 14.1543L34.5044 14.1567L34.5145 14.1641L34.517 14.1666L34.5271 14.1739L34.5296 14.1764L34.5397 14.1838L34.5422 14.1862L34.5523 14.1936L34.5549 14.1961L34.5649 14.2034L34.5675 14.2059L34.5776 14.2133L34.5801 14.2157L34.5902 14.2231L34.5927 14.2256L34.6028 14.2329L34.6053 14.2354L34.6154 14.2428L34.6179 14.2452L34.628 14.2526L34.6305 14.2551L34.6406 14.2649L34.6431 14.2674L34.6532 14.2772L34.6558 14.2797L34.6659 14.2895L34.6684 14.2919L34.6759 14.3018L34.6785 14.3042L34.686 14.3141L34.6886 14.3165L34.6961 14.3264L34.6986 14.3288L34.7062 14.3387L34.7087 14.3411L34.7163 14.351L34.7188 14.3534L34.7264 14.3632L34.7289 14.3657L34.7365 14.3755L34.739 14.378L34.7466 14.3878L34.7491 14.3903L34.7567 14.4001V14.4026L34.7642 14.4149V14.4173L34.7718 14.4296L34.7769 14.4419V14.4444L34.7819 14.4567V14.4591L34.7869 14.4714V14.4739L34.792 14.4862V14.4886L34.797 14.5009V14.5034L34.8021 14.5157V14.5181L34.8071 14.5304V14.5329L34.8122 14.5452V14.5476L34.8147 14.5599V14.5624L34.8172 14.5747V14.5771L34.8197 14.5894V14.5919L34.8223 14.6066L34.8248 14.6189V14.6214L34.8273 14.6337V14.6361L34.8298 14.6484V14.6509L34.8324 14.6656V14.6681V14.6829V14.6853V14.7025V14.7173V14.7197L34.8525 19.3147C34.8551 19.6638 34.5649 19.9465 34.2067 19.949C33.8485 19.9514 33.5584 19.6687 33.5558 19.3196L33.5432 16.244L29.0426 20.6226C28.7878 20.8709 28.3765 20.8709 28.1217 20.6226C27.8669 20.3743 27.8669 19.9736 28.1217 19.7253L32.5946 15.3663ZM28.2555 28.9717C28.4875 28.9348 28.7222 28.9349 28.9543 28.9865C29.1788 29.0381 29.3831 29.1266 29.5698 29.2495C29.7489 29.3749 29.9079 29.5347 30.0365 29.7265C30.1652 29.9158 30.2459 30.1297 30.2838 30.3559C30.3216 30.5821 30.3216 30.8107 30.2686 31.0369C30.2157 31.2557 30.1248 31.4548 29.9987 31.6368C29.87 31.8113 29.7061 31.9662 29.5093 32.0916C29.315 32.217 29.0955 32.2956 28.8634 32.3325C28.6313 32.3694 28.3967 32.3694 28.1646 32.3178C27.9401 32.2661 27.7358 32.1776 27.5491 32.0547C27.37 31.9293 27.211 31.7695 27.0824 31.5777C26.9537 31.3884 26.873 31.1746 26.8351 30.9484C26.7973 30.7222 26.7973 30.4935 26.8503 30.2674C26.9032 30.0486 26.9941 29.8494 27.1202 29.6675C27.2489 29.4929 27.4128 29.338 27.6096 29.2127C27.8064 29.0897 28.0234 29.0086 28.2555 28.9717ZM21.4338 18.7074C21.396 18.6706 21.3657 18.6484 21.3279 18.6337C21.2976 18.6189 21.2598 18.6116 21.2144 18.6116C21.1689 18.6116 21.1311 18.6189 21.1008 18.6337C21.0706 18.6484 21.0327 18.6706 21.0024 18.7001L20.9949 18.7074L20.1447 19.536C19.9782 19.6982 19.7158 19.7179 19.5291 19.5876C19.4307 19.5286 19.3349 19.4696 19.2214 19.413C19.1003 19.354 18.9893 19.295 18.8833 19.2434C18.7698 19.1918 18.6512 19.1401 18.5301 19.0959C18.4242 19.059 18.3056 19.0148 18.1618 18.9705C17.96 18.9041 17.8313 18.7222 17.8313 18.523V17.2569C17.8313 17.2127 17.8237 17.1684 17.8086 17.1389C17.7935 17.1094 17.7708 17.0725 17.7405 17.0504C17.7102 17.0209 17.6799 16.9988 17.6497 16.984C17.6194 16.9693 17.574 16.9619 17.5286 16.9619H15.8963C15.8509 16.9619 15.8131 16.9693 15.7828 16.9766C15.7525 16.9914 15.7147 17.0135 15.6768 17.0504C15.6466 17.0799 15.6239 17.1094 15.6163 17.1389C15.6012 17.1684 15.5936 17.2127 15.5936 17.2569V18.4222C15.5936 18.6558 15.4195 18.8476 15.195 18.8918C15.0663 18.9213 14.9478 18.9508 14.8418 18.9803C14.7207 19.0172 14.6097 19.0541 14.4886 19.0983C14.3751 19.1426 14.2565 19.1868 14.143 19.2459C14.0219 19.2975 13.9185 19.3565 13.8125 19.4081C13.6182 19.5114 13.3912 19.4745 13.2424 19.327L12.3039 18.4198C12.2963 18.4124 12.2963 18.4124 12.2963 18.405C12.266 18.3755 12.2358 18.3534 12.2055 18.3387C12.1752 18.3239 12.1449 18.3239 12.0995 18.3239C12.0541 18.3239 12.0163 18.3313 11.986 18.346C11.9482 18.3608 11.9179 18.3829 11.88 18.4198L10.7372 19.5409C10.6994 19.5778 10.6767 19.6073 10.6615 19.6441C10.6464 19.6736 10.6388 19.7105 10.6388 19.7548C10.6388 19.799 10.6464 19.8359 10.6615 19.8654C10.6767 19.8949 10.6994 19.9318 10.7297 19.9613V19.9687L11.5798 20.7972C11.7438 20.957 11.7665 21.2151 11.6328 21.397C11.5723 21.4929 11.5117 21.5864 11.4537 21.697C11.3931 21.815 11.3326 21.9232 11.2796 22.0264C11.2266 22.1371 11.1737 22.2526 11.1283 22.3706C11.0904 22.4739 11.045 22.5894 10.9996 22.7296C10.9315 22.9262 10.7448 23.0516 10.5404 23.0516H9.24626C9.20085 23.0516 9.15544 23.059 9.12516 23.0738C9.09489 23.0885 9.06462 23.1106 9.03434 23.1328C9.00407 23.1623 8.98136 23.1918 8.9738 23.2213C8.95866 23.2508 8.95109 23.295 8.95109 23.3393V24.9348C8.95109 24.9791 8.95866 25.016 8.96623 25.0455C8.98136 25.075 9.00407 25.1119 9.04191 25.1487C9.07218 25.1782 9.10246 25.2004 9.13273 25.2077C9.163 25.2225 9.20841 25.2299 9.25382 25.2299H10.4496C10.6893 25.2299 10.8861 25.397 10.9315 25.6183C10.9618 25.7437 10.992 25.8593 11.0223 25.9551C11.0601 26.0731 11.098 26.1887 11.1434 26.3067C11.1888 26.4173 11.2342 26.5329 11.2948 26.6509C11.3553 26.7763 11.4083 26.8844 11.4613 26.9877C11.5597 27.177 11.5218 27.3983 11.3704 27.536L10.4395 28.4358L10.4269 28.4309C10.3966 28.4604 10.3739 28.4899 10.3588 28.5194C10.3437 28.5489 10.3437 28.5784 10.3437 28.6226C10.3437 28.6669 10.3512 28.7037 10.3664 28.7333C10.3815 28.7701 10.4042 28.807 10.4421 28.8365L11.5773 29.9576C11.6076 29.9871 11.6454 30.0092 11.6833 30.024C11.7211 30.0387 11.759 30.0461 11.8044 30.0461C11.8498 30.0461 11.8952 30.0387 11.933 30.024C11.9633 30.0092 12.0011 29.9871 12.0314 29.965L12.874 29.1291C13.0405 28.9594 13.3029 28.9471 13.4896 29.0701C13.588 29.1291 13.6838 29.1881 13.7974 29.2446C13.9185 29.3036 14.0295 29.3626 14.1354 29.4118C14.2489 29.4634 14.3675 29.5151 14.4886 29.5593C14.5946 29.5962 14.7131 29.6404 14.8569 29.6847C15.0588 29.7511 15.1874 29.933 15.1874 30.1321V31.3983C15.1874 31.4425 15.195 31.4868 15.2101 31.5163C15.2253 31.5458 15.248 31.5827 15.2707 31.6048C15.3312 31.6638 15.3993 31.6859 15.4876 31.6859H17.1249C17.1703 31.6859 17.2082 31.6786 17.2384 31.6712C17.2687 31.6564 17.3066 31.6343 17.3444 31.5974C17.3747 31.5679 17.3974 31.5384 17.4049 31.5089C17.4201 31.4794 17.4277 31.4352 17.4277 31.3909V30.2256C17.4277 29.992 17.6017 29.8002 17.8263 29.756C17.9549 29.7265 18.0735 29.697 18.1794 29.6675C18.3005 29.6306 18.4115 29.5937 18.5326 29.5495C18.6462 29.5052 18.7647 29.461 18.8858 29.402C19.0145 29.343 19.1255 29.2913 19.2314 29.2397C19.4257 29.1438 19.6528 29.1807 19.794 29.3282L20.7174 30.2354L20.7249 30.2428C20.7552 30.2723 20.7855 30.2944 20.8158 30.3092C20.846 30.3239 20.8839 30.3239 20.9293 30.3239C20.9747 30.3239 21.0125 30.3165 21.0428 30.3018C21.0731 30.287 21.1034 30.2649 21.1336 30.2354C21.1412 30.228 21.1488 30.2207 21.1563 30.2207L22.2992 29.1217C22.3294 29.0922 22.3521 29.0553 22.3673 29.0184C22.3824 28.9816 22.39 28.9447 22.39 28.9004C22.39 28.8562 22.3824 28.8119 22.3673 28.775C22.3521 28.7455 22.3294 28.7087 22.3067 28.6792L21.449 27.858C21.2749 27.6982 21.2623 27.4401 21.3884 27.2581C21.449 27.1623 21.5095 27.0688 21.5675 26.9582C21.6281 26.8402 21.6886 26.732 21.7416 26.6288C21.7946 26.5181 21.8476 26.4026 21.893 26.2846C21.9308 26.1813 21.9762 26.0658 22.0216 25.9256C22.0898 25.7289 22.2764 25.6036 22.4808 25.6036H23.78C23.8254 25.6036 23.8708 25.5962 23.9011 25.5814C23.9314 25.5667 23.9692 25.5446 23.9919 25.5224C24.0525 25.4634 24.0752 25.397 24.0752 25.311V23.7154C24.0752 23.6712 24.0676 23.6343 24.0601 23.6048C24.0449 23.5753 24.0222 23.5384 23.9844 23.5015C23.9541 23.472 23.9238 23.4499 23.8936 23.4425C23.8633 23.4278 23.8179 23.4204 23.7725 23.4204H22.5767C22.337 23.4204 22.1327 23.2459 22.0948 23.0246C22.0645 22.9213 22.0343 22.8132 22.004 22.7025C21.9661 22.5919 21.9283 22.4763 21.8753 22.351C21.8753 22.3436 21.8678 22.3362 21.8678 22.3288C21.8223 22.2108 21.7769 22.11 21.7315 22.0068C21.6785 21.8961 21.6256 21.788 21.565 21.6847C21.4591 21.4954 21.4969 21.2741 21.6483 21.1291L22.5792 20.2145C22.5792 20.2071 22.5868 20.2071 22.5943 20.2071C22.6246 20.1776 22.6473 20.1481 22.6624 20.1186C22.6776 20.0891 22.6776 20.0596 22.6776 20.0154C22.6776 19.9711 22.67 19.9342 22.6549 19.9047C22.6397 19.8679 22.617 19.8384 22.5792 19.8015L21.4288 18.6878L21.4338 18.7074ZM21.7038 17.7609C21.8627 17.8273 21.9964 17.9158 22.1175 18.0313L23.2679 19.1451H23.2755C23.3966 19.2631 23.4849 19.3934 23.553 19.5409C23.6211 19.6958 23.6514 19.8482 23.6514 20.0178C23.6514 20.185 23.6135 20.3473 23.553 20.4948C23.4849 20.6423 23.394 20.7726 23.2679 20.8832L22.5918 21.5495C22.5994 21.5716 22.6145 21.5937 22.6221 21.6159C22.6826 21.7412 22.7356 21.8715 22.7861 21.9969C22.7861 22.0043 22.7936 22.0117 22.7936 22.0191C22.8466 22.1444 22.892 22.2821 22.9374 22.4296L22.9526 22.4813H23.78C23.9516 22.4813 24.1181 22.5108 24.2694 22.5771C24.4208 22.6361 24.5545 22.732 24.6756 22.8476L24.6832 22.8549C24.8043 22.973 24.8926 23.1033 24.9531 23.2508C25.0137 23.3983 25.0515 23.5581 25.0515 23.7203V25.3159C25.0515 25.6601 24.9304 25.9527 24.6832 26.1936C24.5621 26.3116 24.4208 26.405 24.2694 26.464C24.1181 26.523 23.9541 26.5526 23.78 26.5526H22.8188C22.8113 26.5747 22.7961 26.6042 22.7886 26.6263C22.7356 26.7591 22.675 26.8894 22.617 27.0221C22.5489 27.1623 22.4884 27.2926 22.4228 27.4106L22.4001 27.4548L22.9854 28.0178L23.0081 28.04C23.1292 28.158 23.2099 28.2956 23.2704 28.4431C23.331 28.5907 23.3612 28.7431 23.3612 28.9127C23.3612 29.075 23.331 29.2274 23.2704 29.3749C23.2099 29.5224 23.1266 29.6527 23.0081 29.7781L22.9929 29.7929L21.8425 30.9066C21.7214 31.032 21.5877 31.118 21.4364 31.1844C21.285 31.2508 21.121 31.2803 20.9394 31.2803C20.7678 31.2803 20.6013 31.2434 20.4424 31.1844C20.2834 31.118 20.1497 31.0221 20.0362 30.9066L19.3677 30.2477C19.345 30.2624 19.3223 30.2698 19.292 30.2772C19.1633 30.3288 19.0296 30.3878 18.8858 30.4395C18.7496 30.4911 18.6083 30.5353 18.4645 30.5796C18.4418 30.587 18.4267 30.5943 18.404 30.5943V31.3934C18.404 31.5605 18.3737 31.7228 18.3056 31.8703C18.245 32.0178 18.1466 32.1481 18.0281 32.2661L18.0205 32.2735C17.8994 32.3915 17.7657 32.4776 17.6143 32.5366C17.463 32.5956 17.299 32.6325 17.1325 32.6325H15.4952C15.142 32.6325 14.8418 32.5144 14.5946 32.2735C14.4735 32.1555 14.3776 32.0178 14.3171 31.8703C14.2565 31.7228 14.2262 31.563 14.2262 31.3934V30.4567C14.2035 30.4493 14.1733 30.4345 14.1506 30.4272C14.0143 30.3755 13.8806 30.3165 13.7444 30.2575C13.6006 30.1912 13.4669 30.1321 13.3458 30.0682L13.3004 30.0461L12.7227 30.6165L12.7 30.6386C12.5789 30.7566 12.4376 30.8353 12.2862 30.8943C12.1348 30.9533 11.9784 30.9828 11.8044 30.9828C11.6379 30.9828 11.4814 30.9533 11.3301 30.8943C11.1787 30.8353 11.045 30.7541 10.9163 30.6386L10.9012 30.6238L9.75081 29.488C9.62972 29.37 9.54142 29.2397 9.47331 29.0922C9.40519 28.9373 9.37492 28.7849 9.37492 28.6152C9.37492 28.4456 9.41276 28.2858 9.47331 28.1383C9.54142 27.9908 9.63981 27.8605 9.75838 27.7425L10.4345 27.091C10.4194 27.0688 10.4118 27.0467 10.4042 27.0172C10.3512 26.8918 10.2907 26.7615 10.2377 26.6214C10.1847 26.4813 10.1318 26.351 10.0939 26.2108L10.0788 26.1518H9.26896C9.09489 26.1518 8.93091 26.1223 8.77954 26.0559C8.62817 25.9969 8.49447 25.901 8.37337 25.7855L8.3658 25.7781C8.24471 25.6601 8.15641 25.5298 8.09587 25.3823C8.03784 25.2299 8 25.0701 8 24.9078V23.3122C8 23.1451 8.03027 22.9902 8.09082 22.8353C8.15137 22.6878 8.24976 22.5575 8.36833 22.4321C8.48942 22.3141 8.6307 22.2207 8.78206 22.1616C8.93343 22.1026 9.09741 22.0731 9.27148 22.0731H10.2327C10.2402 22.051 10.2554 22.0215 10.2629 21.9994C10.3159 21.8666 10.3765 21.7363 10.4345 21.6036C10.5026 21.4634 10.5632 21.3331 10.6287 21.2151L10.6514 21.1709L10.0737 20.6005C9.95264 20.4825 9.85677 20.3522 9.79622 20.1973C9.72811 20.0424 9.69784 19.8826 9.69784 19.7203C9.69784 19.5532 9.72811 19.3983 9.79622 19.2434C9.86434 19.0885 9.95516 18.9582 10.0737 18.8402L11.2166 17.7191V17.7117C11.3376 17.5937 11.4714 17.5077 11.6227 17.4413C11.7817 17.3749 11.9381 17.3454 12.1121 17.3454C12.2862 17.3454 12.4502 17.3823 12.6016 17.4413C12.7529 17.5077 12.8866 17.5962 13.0002 17.7191L13.6838 18.378C13.7065 18.3706 13.7292 18.3559 13.7444 18.3485C13.873 18.2895 14.0068 18.2379 14.1506 18.1813C14.2868 18.1297 14.4281 18.0854 14.5719 18.0412C14.5946 18.0338 14.6097 18.0264 14.6324 18.0264V17.2274C14.6324 17.0578 14.6627 16.898 14.7308 16.7505C14.7913 16.603 14.8897 16.4726 15.0083 16.3546L15.0159 16.3473C15.137 16.2293 15.2707 16.1432 15.422 16.0842C15.5734 16.0252 15.7374 15.9883 15.9039 15.9883H17.5412C17.7127 15.9883 17.8717 16.0178 18.0306 16.0768C18.1895 16.1358 18.3232 16.2317 18.4443 16.3473C18.5654 16.4653 18.6613 16.603 18.7218 16.7505C18.7824 16.898 18.8127 17.0578 18.8127 17.2274V18.1641C18.8354 18.1715 18.8656 18.1862 18.8883 18.1936C19.0246 18.2452 19.1583 18.3042 19.2945 18.3632C19.4383 18.4296 19.572 18.4886 19.6931 18.5526L19.7385 18.5747L20.3238 18.0117C20.4449 17.8937 20.5786 17.8002 20.7375 17.7412C20.8965 17.6749 21.0605 17.6454 21.227 17.6454C21.401 17.6454 21.5575 17.6749 21.7164 17.7412V17.7609H21.7038ZM16.5119 20.7283C16.7591 20.7283 17.0089 20.7505 17.2485 20.8021C17.4806 20.8463 17.7153 20.9201 17.9473 21.0135C18.1643 21.1094 18.3762 21.2176 18.5705 21.343C18.7647 21.4683 18.9464 21.6134 19.1104 21.7757C19.2769 21.9379 19.4257 22.1125 19.5544 22.3092C19.6906 22.4985 19.8016 22.705 19.8924 22.9164C19.9 22.9312 19.9 22.9459 19.9076 22.9533C19.9984 23.1647 20.0665 23.386 20.1094 23.5974C20.1548 23.831 20.1851 24.0744 20.1851 24.3153C20.1851 24.5562 20.1624 24.7996 20.1094 25.0332C20.064 25.2594 19.9883 25.488 19.8924 25.7142C19.794 25.9256 19.683 26.1321 19.5544 26.3215C19.4181 26.5108 19.2769 26.6878 19.1104 26.8549C18.9438 27.0172 18.7647 27.1623 18.5629 27.2876C18.3687 27.4204 18.1567 27.5286 17.9398 27.6171C17.9246 27.6245 17.9095 27.6245 17.9019 27.6318C17.685 27.7203 17.4579 27.7867 17.241 27.8285C17.0013 27.8728 16.7515 27.9023 16.5043 27.9023C16.2571 27.9023 16.0073 27.8801 15.7677 27.8285C15.5356 27.7843 15.3009 27.7105 15.0688 27.6171C14.8519 27.5212 14.64 27.413 14.4457 27.2876C14.2515 27.1623 14.0698 27.0172 13.9058 26.8549C13.7393 26.6927 13.5905 26.5181 13.4618 26.3215C13.3256 26.1321 13.2146 25.9256 13.1238 25.7142C13.1162 25.6994 13.1162 25.6847 13.1086 25.6773C13.0178 25.4659 12.9497 25.2446 12.9068 25.0332C12.8614 24.7996 12.8311 24.5562 12.8311 24.3153C12.8311 24.0744 12.8538 23.831 12.9068 23.5974C12.9522 23.3712 13.0279 23.1426 13.1238 22.9164C13.2222 22.705 13.3332 22.4985 13.4618 22.3092C13.5905 22.1199 13.7393 21.9428 13.9058 21.7757C14.0698 21.6159 14.2515 21.4683 14.4457 21.343C14.64 21.2102 14.8519 21.102 15.0688 21.0135C15.084 21.0061 15.0991 21.0061 15.1067 20.9988C15.3236 20.9103 15.5507 20.8439 15.7677 20.8021C16.0073 20.7578 16.2571 20.7283 16.5043 20.7283H16.5119ZM17.0618 21.724C16.8903 21.6872 16.7011 21.6724 16.5144 21.6724C16.3277 21.6724 16.1461 21.6872 15.967 21.724C15.7954 21.7609 15.6365 21.8052 15.4851 21.8642C15.4775 21.8715 15.47 21.8715 15.4548 21.8789C15.2833 21.9527 15.1243 22.0338 14.9806 22.1272C14.8368 22.2231 14.703 22.3239 14.582 22.4419C14.4609 22.5599 14.3499 22.6902 14.259 22.8304C14.1606 22.9705 14.0799 23.1229 14.0042 23.2926C13.9361 23.4474 13.8831 23.6146 13.8453 23.7916C13.8075 23.9588 13.7923 24.1432 13.7923 24.3251C13.7923 24.5071 13.8075 24.6841 13.8453 24.8586C13.8831 25.0258 13.9285 25.1807 13.9891 25.3282C13.9967 25.3356 13.9967 25.343 14.0042 25.3577C14.0799 25.5274 14.1632 25.6798 14.259 25.8199C14.3574 25.96 14.4609 26.0904 14.582 26.2084C14.703 26.3264 14.8368 26.4345 14.9806 26.523C15.1243 26.6189 15.2808 26.6976 15.4548 26.7714C15.6138 26.8377 15.7853 26.8894 15.967 26.9262C16.1385 26.9631 16.3277 26.9779 16.5144 26.9779C16.7011 26.9779 16.8827 26.9631 17.0618 26.9262C17.2359 26.8894 17.3923 26.8451 17.5437 26.7861C17.5513 26.7787 17.5588 26.7787 17.574 26.7714C17.7455 26.6976 17.9045 26.6165 18.0483 26.523C18.1921 26.4272 18.3258 26.3264 18.4469 26.2084C18.568 26.0904 18.679 25.96 18.7698 25.8199C18.8682 25.6798 18.9489 25.5274 19.0246 25.3577C19.0927 25.2028 19.1457 25.0356 19.1835 24.8586C19.2214 24.689 19.2365 24.5071 19.2365 24.3251C19.2365 24.1432 19.2214 23.9662 19.1835 23.7916C19.1457 23.6245 19.1003 23.4696 19.0397 23.3221C19.0321 23.3147 19.0321 23.3073 19.0246 23.2926C18.9489 23.1229 18.8656 22.9705 18.7698 22.8304C18.6714 22.6902 18.568 22.5599 18.4469 22.4419C18.3258 22.3239 18.1921 22.2157 18.0483 22.1272C17.9045 22.0313 17.748 21.9527 17.574 21.8789C17.415 21.8101 17.241 21.7609 17.0618 21.724Z" fill="white"></path>
  </g>
  <defs>
    <clipPath id="clip0_134_101">
      <rect width="31" height="24" fill="white" transform="translate(8 11)"></rect>
    </clipPath>
  </defs>
</svg>
