<svg width="256" height="256" viewBox="0 0 256 256" fill="none" xmlns="http://www.w3.org/2000/svg">
<path d="M154.2 38.4501C154.403 37.6882 154.755 36.9738 155.234 36.3477C155.713 35.7217 156.312 35.1963 156.994 34.8016C157.677 34.4069 158.431 34.1506 159.212 34.0474C159.994 33.9442 160.788 33.996 161.55 34.2001C176.042 37.9803 189.264 45.5557 199.854 56.1459C210.445 66.7361 218.02 79.9582 221.8 94.4501C222.004 95.2117 222.056 96.0062 221.953 96.7879C221.85 97.5697 221.593 98.3234 221.199 99.006C220.804 99.6886 220.279 100.287 219.652 100.766C219.026 101.246 218.312 101.597 217.55 101.8C217.045 101.935 216.523 102.002 216 102C214.678 102.001 213.393 101.565 212.344 100.76C211.295 99.9557 210.542 98.8272 210.2 97.5501C206.955 85.102 200.449 73.7444 191.352 64.648C182.256 55.5517 170.898 49.0455 158.45 45.8001C157.688 45.5969 156.974 45.2456 156.348 44.7662C155.722 44.2868 155.196 43.6886 154.802 43.006C154.407 42.3234 154.151 41.5697 154.047 40.7879C153.944 40.0062 153.996 39.2118 154.2 38.4501ZM150.45 77.8001C165 81.6801 174.32 91.0001 178.2 105.55C178.542 106.827 179.295 107.956 180.344 108.76C181.393 109.565 182.678 110.001 184 110C184.523 110.002 185.045 109.935 185.55 109.8C186.312 109.597 187.026 109.246 187.652 108.766C188.279 108.287 188.804 107.689 189.199 107.006C189.593 106.323 189.85 105.57 189.953 104.788C190.056 104.006 190.004 103.212 189.8 102.45C184.8 83.7401 172.26 71.2001 153.55 66.2001C152.788 65.9965 151.994 65.945 151.213 66.0484C150.431 66.1518 149.677 66.4082 148.995 66.8028C147.617 67.5999 146.611 68.9118 146.2 70.4501C145.789 71.9883 146.006 73.6269 146.803 75.0053C147.6 76.3837 148.912 77.389 150.45 77.8001ZM229.89 174.8C228.177 187.872 221.762 199.873 211.844 208.56C201.926 217.247 189.184 222.024 176 222C97.7001 222 34.0001 158.3 34.0001 80.0001C33.9748 66.8205 38.7483 54.0824 47.4288 44.1653C56.1093 34.2481 68.1032 27.8301 81.1701 26.1101C84.1781 25.7445 87.2235 26.3648 89.8489 27.8776C92.4743 29.3905 94.538 31.7143 95.7301 34.5001L116.83 81.6001C117.762 83.7323 118.147 86.0632 117.952 88.3819C117.756 90.7006 116.986 92.934 115.71 94.8801C115.581 95.0782 115.441 95.2685 115.29 95.4501L94.2201 120.51C94.0922 120.77 94.0256 121.056 94.0256 121.345C94.0256 121.635 94.0922 121.92 94.2201 122.18C101.88 137.86 118.32 154.18 134.22 161.83C134.486 161.951 134.776 162.009 135.067 161.998C135.359 161.988 135.644 161.91 135.9 161.77L160.59 140.77C160.766 140.617 160.953 140.476 161.15 140.35C163.088 139.058 165.317 138.27 167.636 138.057C169.954 137.844 172.29 138.213 174.43 139.13L221.67 160.3C224.419 161.518 226.702 163.589 228.183 166.206C229.663 168.823 230.262 171.847 229.89 174.83V174.8ZM218 173.32C218.034 172.902 217.935 172.484 217.718 172.125C217.501 171.766 217.176 171.484 216.79 171.32L169.54 150.15C169.282 150.05 169.005 150.008 168.729 150.025C168.453 150.042 168.184 150.119 167.94 150.25L143.26 171.25C143.08 171.4 142.89 171.54 142.7 171.67C140.687 173.013 138.36 173.81 135.947 173.986C133.534 174.161 131.116 173.708 128.93 172.67C110.57 163.8 92.2701 145.67 83.4001 127.48C82.3568 125.307 81.8924 122.901 82.0519 120.496C82.2113 118.09 82.9891 115.767 84.3101 113.75C84.4389 113.55 84.5826 113.359 84.7401 113.18L105.8 88.1201C105.92 87.8582 105.983 87.5733 105.983 87.2851C105.983 86.9968 105.92 86.712 105.8 86.4501L84.7401 39.3101C84.6011 38.9317 84.3511 38.6042 84.0227 38.3705C83.6944 38.1367 83.3031 38.0076 82.9001 38.0001H82.6701C72.4995 39.353 63.1691 44.3615 56.421 52.0904C49.673 59.8192 45.9688 69.74 46.0001 80.0001C46.0001 151.68 104.32 210 176 210C186.262 210.031 196.184 206.325 203.913 199.575C211.642 192.825 216.649 183.492 218 173.32Z" fill="#ED1B24"/>
</svg>
