<?xml version="1.0" encoding="UTF-8"?>
<svg xmlns="http://www.w3.org/2000/svg" width="45" height="45" viewBox="0 0 45 45" fill="none">
  <g clip-path="url(#clip0_136_215)">
    <path d="M44.1425 18.946L40.6151 15.4186C40.1055 14.9092 39.2796 14.9092 38.7701 15.4186C38.2607 15.928 38.2607 16.7542 38.7701 17.2636L40.0848 18.5783H34.0798C33.4773 13.1934 29.1895 8.9092 23.8048 8.30633V4.45405L25.1052 5.75451C25.3601 6.0092 25.6938 6.13648 26.0278 6.13648C26.3617 6.13648 26.6955 6.00905 26.9504 5.75451C27.4598 5.24511 27.4598 4.4189 26.9504 3.90951L23.4226 0.381932C22.9131 -0.127311 22.0872 -0.127311 21.5776 0.381932L18.0501 3.90936C17.5407 4.4189 17.5407 5.24496 18.0501 5.75436C18.5596 6.2636 19.3855 6.2636 19.8951 5.75436L21.1955 4.4539V8.30617C15.8108 8.90905 11.5229 13.1933 10.9205 18.5781H4.91551L6.23021 17.2634C6.7396 16.7541 6.7396 15.9278 6.23021 15.4184C5.72051 14.9091 4.89475 14.9091 4.38521 15.4184L0.857631 18.946C0.348237 19.4554 0.348237 20.2816 0.857631 20.791L4.38506 24.3184C4.6399 24.5731 4.97369 24.7006 5.30763 24.7006C5.64157 24.7006 5.97536 24.5731 6.23021 24.3184C6.7396 23.8091 6.7396 22.9828 6.23021 22.4734L4.944 21.1872H12.1526C12.8731 21.1872 13.4572 20.6031 13.4572 19.8827C13.4572 14.8963 17.5138 10.8398 22.5001 10.8398C27.4863 10.8398 31.5429 14.8965 31.5429 19.8827C31.5429 20.6031 32.127 21.1872 32.8475 21.1872H40.0561L38.7699 22.4734C38.2605 22.9828 38.2605 23.8091 38.7699 24.3184C39.0248 24.5731 39.3585 24.7006 39.6925 24.7006C40.0264 24.7006 40.3602 24.5731 40.6151 24.3184L44.1425 20.791C44.6519 20.2816 44.6519 19.4554 44.1425 18.946Z" fill="#ED1B24"></path>
    <path d="M28.7052 19.765C28.7052 16.3441 25.9222 13.561 22.5013 13.561C19.0804 13.561 16.2974 16.3441 16.2974 19.765C16.2974 23.1859 19.0804 25.9689 22.5013 25.9689C25.9222 25.9689 28.7052 23.1859 28.7052 19.765Z" fill="#ED1B24"></path>
    <path d="M30.8258 28.9755L30.8155 28.9722L27.5342 28.4288C27.2548 28.3429 26.9565 28.4908 26.856 28.7663L23.1327 38.9822C22.918 39.5716 22.0843 39.5716 21.8696 38.9822L18.1463 28.7663C18.0652 28.5437 17.8552 28.4043 17.6302 28.4043C17.5769 28.4043 14.1868 28.9714 14.1868 28.9714C11.9248 29.7251 10.4136 31.8219 10.4136 34.1931V42.6935C10.4136 43.9673 11.4463 45.0001 12.7201 45.0001H32.2802C33.554 45.0001 34.5868 43.9673 34.5868 42.6935V34.1649C34.5865 31.804 33.0693 29.7105 30.8258 28.9755Z" fill="#ED1B24"></path>
    <path d="M24.0249 28.1502C23.8638 27.9746 23.6282 27.8862 23.3899 27.8862H21.6126C21.3743 27.8862 21.1388 27.9746 20.9776 28.1502C20.7282 28.422 20.692 28.8146 20.869 29.1214L21.819 30.5537L21.3743 34.3055L22.25 36.6352C22.3355 36.8694 22.6667 36.8694 22.7522 36.6352L23.6279 34.3055L23.1832 30.5537L24.1332 29.1214C24.3105 28.8144 24.2743 28.4218 24.0249 28.1502Z" fill="#ED1B24"></path>
  </g>
  <defs>
    <clipPath id="clip0_136_215">
      <rect width="45" height="45" fill="white"></rect>
    </clipPath>
  </defs>
</svg>
