<?xml version="1.0" encoding="UTF-8"?>
<svg xmlns="http://www.w3.org/2000/svg" width="42" height="45" viewBox="0 0 42 45" fill="none">
  <g clip-path="url(#clip0_136_223)">
    <path d="M16.1609 37.3755C15.7434 37.3865 15.3772 37.0789 15.3186 36.6577C15.2563 36.2183 15.553 35.8118 15.9851 35.7276C15.509 33.0286 14.209 31.5418 12.8357 29.9707C11.7663 28.7476 10.6567 27.4768 9.78147 25.6055C8.92087 23.7634 8.44846 21.8591 8.46311 19.8816C8.48142 17.9041 8.98313 15.8679 10.0744 13.7622C10.0818 13.7476 10.0891 13.7366 10.0964 13.7219C11.5283 11.2976 13.5315 9.67897 15.7617 8.77077C17.633 8.00539 19.6655 7.74538 21.6577 7.92848C23.6425 8.11159 25.5871 8.73415 27.2864 9.73757C29.447 11.0156 31.2231 12.9126 32.2009 15.3076C32.7282 16.604 33.0871 18.0506 33.1311 19.6362C33.175 21.2146 32.904 22.9175 32.1753 24.7193C31.2011 27.1326 29.9121 28.6304 28.7072 30.033C27.5976 31.3257 26.5649 32.5269 25.99 34.3689C26.3159 34.4458 26.5722 34.7132 26.6235 35.0647C26.6858 35.5188 26.3672 35.94 25.9131 36.0022L25.6311 36.0425C25.5798 36.4417 25.5468 36.8701 25.5322 37.3279L25.6238 37.3132C26.0779 37.251 26.499 37.5696 26.5613 38.0237C26.6235 38.4778 26.3049 38.8989 25.8508 38.9612L25.5652 39.0015C25.5688 39.0564 25.5725 39.1113 25.5761 39.1663C25.6018 39.4885 25.6054 39.7998 25.5871 40.0965L25.6347 40.0891C26.0925 40.0342 26.5063 40.3601 26.5649 40.8142C26.6198 41.272 26.2939 41.6858 25.8398 41.7444L25.2246 41.8213C24.7851 42.9602 24.0014 43.8245 23.0749 44.3628C22.4377 44.7327 21.7309 44.9451 21.0205 44.989C20.299 45.033 19.5703 44.8975 18.9038 44.5752C18.1421 44.2017 17.4609 43.5828 16.9665 42.6929C16.7285 42.572 16.5527 42.3377 16.5161 42.052C16.5014 41.9385 16.5124 41.8286 16.5417 41.7261C16.3989 41.3013 16.289 40.8362 16.2231 40.3235L16.1975 40.3272C15.7434 40.3894 15.3222 40.0708 15.26 39.6167C15.1977 39.1626 15.5163 38.7415 15.9704 38.6792L16.1682 38.6499C16.1828 38.2031 16.1792 37.7783 16.1609 37.3755ZM24.32 14.773C24.5324 14.7766 24.7485 14.8169 24.9572 14.8865C25.3967 15.0366 25.8178 15.3259 26.1438 15.7105C26.4697 16.0987 26.7041 16.5857 26.7627 17.1277C26.7883 17.3657 26.781 17.6111 26.7334 17.8638C26.9604 18.0725 27.1509 18.3032 27.2937 18.5523C27.528 18.9514 27.6489 19.3945 27.6342 19.845C27.6196 20.2991 27.4731 20.7532 27.1618 21.1707C26.9751 21.4234 26.7297 21.6614 26.4221 21.8775C26.4441 22.5513 26.2426 23.1592 25.9167 23.6279C25.5542 24.1516 25.0342 24.5142 24.4885 24.6277C24.3567 25.1001 24.0381 25.5176 23.6352 25.8069C23.1079 26.1841 22.4194 26.3599 21.7895 26.1878C21.3574 26.0706 20.9619 25.7959 20.6762 25.3272C20.332 25.8472 19.8779 26.1255 19.4018 26.2244C18.7939 26.3526 18.164 26.1658 17.688 25.7959C17.3217 25.5103 17.0434 25.1111 16.9336 24.657C16.7578 24.6424 16.5783 24.6057 16.4062 24.5471C15.9778 24.4007 15.5639 24.1223 15.2453 23.7488C14.9231 23.3753 14.685 22.9065 14.6118 22.3828C14.5752 22.1228 14.5788 21.8482 14.6338 21.5698C14.436 21.3867 14.2676 21.1817 14.1284 20.9583C13.883 20.5591 13.7439 20.1087 13.7512 19.6436C13.7585 19.1748 13.905 18.7024 14.2273 18.263C14.4067 18.0176 14.6447 17.7832 14.9414 17.5672C14.9377 17.4939 14.9377 17.4207 14.9414 17.3511C14.967 16.6699 15.216 16.073 15.5786 15.6299C15.5896 15.6189 15.5969 15.6079 15.6079 15.5969C15.9704 15.1685 16.4428 14.8828 16.9336 14.7986C16.9519 14.7327 16.9702 14.6704 16.9922 14.6045C17.1643 14.1431 17.5122 13.7476 17.9406 13.4986C18.3728 13.2459 18.8928 13.136 19.3982 13.2422C19.8523 13.3374 20.2881 13.5974 20.625 14.0735C20.9619 13.5974 21.3977 13.3374 21.8518 13.2422C22.3132 13.147 22.7856 13.2276 23.1921 13.4326C23.5913 13.6341 23.9355 13.96 24.1443 14.3482C24.2248 14.4873 24.2834 14.6265 24.32 14.773ZM24.4592 23.5657C24.6863 23.4705 24.906 23.2874 25.0744 23.042C25.3125 22.6941 25.448 22.229 25.3821 21.7053L25.3784 21.6907V21.6797C25.3528 21.482 25.4443 21.2769 25.6274 21.167C25.946 20.9802 26.1767 20.7752 26.3379 20.5554C26.5136 20.3137 26.6015 20.0611 26.6089 19.812C26.6162 19.5593 26.5429 19.3067 26.4038 19.0686C26.2756 18.8489 26.0925 18.6475 25.8691 18.4754C25.6787 18.3508 25.5908 18.1091 25.6677 17.8821C25.7446 17.655 25.7629 17.439 25.7409 17.2302C25.7043 16.908 25.5615 16.6113 25.3601 16.3696C25.155 16.1279 24.895 15.9485 24.6313 15.857C24.5178 15.8203 24.4043 15.7984 24.2981 15.7984C24.2175 16.0401 24.0857 16.2818 23.8879 16.5161C23.7048 16.7322 23.3825 16.7615 23.1665 16.5784C22.9504 16.3953 22.9211 16.073 23.1042 15.857C23.4045 15.5017 23.4082 15.1282 23.2507 14.8389C23.1408 14.6338 22.9577 14.4617 22.7417 14.3555C22.5329 14.2493 22.2986 14.2053 22.0752 14.2529C21.7492 14.3189 21.4343 14.5935 21.2292 15.1648V23.844C21.2695 23.9026 21.2951 23.9685 21.3061 24.0454C21.4233 24.7632 21.7273 25.1074 22.0678 25.2027C22.3828 25.2905 22.749 25.1843 23.042 24.9756C23.3276 24.7705 23.5327 24.4739 23.5363 24.1626C23.54 23.8074 23.269 23.4009 22.5476 23.031C22.2949 22.9028 22.1924 22.5916 22.3205 22.3389C22.4487 22.0862 22.76 21.9837 23.0127 22.1118C23.8293 22.5257 24.2761 23.042 24.4592 23.5657ZM16.9812 15.846C16.7724 15.9155 16.5674 16.0584 16.3952 16.2561C16.3879 16.2671 16.3806 16.2744 16.3733 16.2818C16.1389 16.5674 15.9814 16.9483 15.9631 17.3877C15.9594 17.5049 15.9631 17.6294 15.9814 17.7576C16.0071 17.9517 15.9192 18.1531 15.7434 18.2666C15.4358 18.457 15.2087 18.6621 15.0512 18.8782C14.8608 19.1345 14.7766 19.4055 14.7729 19.6619C14.7693 19.9256 14.8498 20.1856 14.9963 20.4236C15.1208 20.625 15.2893 20.8081 15.498 20.9619C15.6848 21.0901 15.769 21.3281 15.6958 21.5515C15.6152 21.7932 15.5969 22.0276 15.6262 22.2473C15.6701 22.5623 15.8166 22.8479 16.018 23.0823C16.2195 23.3167 16.4721 23.4888 16.7321 23.5767C16.8164 23.606 16.9006 23.6243 16.9812 23.6316C17.1679 23.086 17.6367 22.5476 18.49 22.1118C18.7426 21.9837 19.0503 22.0825 19.1821 22.3352C19.3103 22.5879 19.2114 22.8955 18.9587 23.0274C18.1933 23.4155 17.9077 23.855 17.9077 24.2359C17.9077 24.5252 18.0761 24.7998 18.3215 24.9902C18.5705 25.1843 18.8928 25.2832 19.1931 25.221C19.5703 25.1441 19.9365 24.7852 20.1306 24.0015C20.1416 23.9502 20.1635 23.9026 20.1892 23.8587V15.6153C20.1782 15.5969 20.1672 15.575 20.1562 15.553L20.1526 15.5457L20.1489 15.5383L20.1452 15.531V15.5274V15.5237L20.1416 15.5164V15.5127V15.509C20.1379 15.4944 20.1342 15.4798 20.1306 15.4651C19.9365 14.6851 19.5703 14.3299 19.1931 14.2529C18.9477 14.2017 18.6841 14.2603 18.4607 14.3921C18.2336 14.5239 18.0505 14.729 17.9626 14.9634C17.8491 15.271 17.9187 15.6519 18.3105 16.0144C18.5193 16.2085 18.5302 16.5308 18.3398 16.7395C18.1457 16.9483 17.8235 16.9592 17.6147 16.7688C17.2961 16.4685 17.091 16.1572 16.9812 15.846ZM17.0874 17.5415C17.2888 17.3438 17.6147 17.3438 17.8161 17.5488C18.0139 17.7503 18.0139 18.0762 17.8088 18.2776C17.4536 18.6255 17.2668 19.0796 17.2485 19.5374C17.2302 20.0134 17.384 20.5042 17.7099 20.907C17.8894 21.1267 17.8528 21.4527 17.633 21.6284C17.4133 21.8079 17.0874 21.7713 16.9116 21.5515C16.4245 20.9473 16.1938 20.2149 16.2231 19.4971C16.2488 18.783 16.5344 18.0835 17.0874 17.5415ZM23.2287 18.0835C22.998 17.9151 22.9467 17.5965 23.1152 17.3657C23.2837 17.135 23.6023 17.0838 23.833 17.2522C23.9209 17.3181 24.0051 17.3841 24.082 17.4536C24.6606 17.9773 24.9792 18.6658 25.0378 19.3799C25.0964 20.0867 24.8987 20.8154 24.4519 21.427C24.4446 21.438 24.4336 21.4527 24.4226 21.4636C24.3603 21.5479 24.2981 21.6211 24.2395 21.6907C24.049 21.9031 23.7231 21.9177 23.5107 21.7273C23.2983 21.5369 23.2837 21.211 23.4741 20.9986C23.5217 20.9436 23.562 20.896 23.5986 20.8484C23.6059 20.8374 23.6096 20.8301 23.6169 20.8191C23.9135 20.409 24.0454 19.9256 24.0088 19.4568C23.9721 18.9954 23.7671 18.5523 23.3935 18.2153C23.3423 18.1714 23.2873 18.1275 23.2287 18.0835ZM0.798312 21.5552C0.369845 21.5662 0.0146203 21.2329 -2.81389e-05 20.8045C-0.0146766 20.376 0.322237 20.0208 0.750704 20.0061L3.93674 19.8963C4.36521 19.8816 4.72043 20.2185 4.73508 20.647C4.74973 21.0755 4.41281 21.4307 3.98435 21.4453L0.798312 21.5552ZM40.5322 18.4021C40.957 18.3582 41.3379 18.6695 41.3818 19.0943C41.4258 19.5191 41.1145 19.8999 40.6897 19.9439L37.5183 20.2771C37.0935 20.3211 36.7126 20.0098 36.6687 19.585C36.6247 19.1602 36.936 18.7793 37.3608 18.7354L40.5322 18.4021ZM34.7571 5.41261C34.9951 5.05739 35.4748 4.96218 35.83 5.20021C36.1853 5.43825 36.2805 5.91799 36.0425 6.27321L34.27 8.92458C34.032 9.2798 33.5522 9.37502 33.197 9.13698C32.8418 8.89894 32.7466 8.41921 32.9846 8.06398L34.7571 5.41261ZM21.1047 0.754412C21.1157 0.325945 21.4709 -0.0109692 21.8957 1.70799e-05C22.3242 0.0110034 22.6611 0.366228 22.6501 0.791033L22.5696 3.97707C22.5586 4.40553 22.2033 4.74245 21.7785 4.73146C21.3501 4.72048 21.0132 4.36525 21.0241 3.94045L21.1047 0.754412ZM5.08298 5.68727C4.76804 5.3943 4.75339 4.90358 5.0427 4.5923C5.33567 4.27736 5.82639 4.26271 6.13767 4.55202L8.47043 6.72731C8.78537 7.02028 8.80002 7.511 8.51071 7.82228C8.21775 8.13722 7.72702 8.15187 7.41574 7.86257L5.08298 5.68727ZM17.5342 35.5042L24.3054 34.5447C24.8877 32.0911 26.1548 30.6153 27.528 29.0222C28.656 27.7112 29.8572 26.3123 30.7361 24.137C31.3806 22.544 31.6186 21.0498 31.582 19.6729C31.5454 18.2996 31.2304 17.0325 30.7617 15.8862C29.9194 13.8245 28.3777 12.1839 26.499 11.0706C24.9939 10.1807 23.2763 9.6277 21.5222 9.47023C19.7754 9.3091 17.9919 9.53981 16.3476 10.21C14.4214 10.9973 12.6892 12.3963 11.4441 14.502C10.4773 16.377 10.0305 18.1714 10.0158 19.8963C10.0012 21.6321 10.4223 23.313 11.1877 24.95C11.9677 26.6199 13.0078 27.8064 14.0039 28.949C15.553 30.7251 17.0215 32.406 17.5342 35.5042ZM24.0307 36.2622L17.7063 37.1594C17.7246 37.5623 17.7319 37.9834 17.7246 38.4302L23.9685 37.544C23.9758 37.0935 23.9941 36.6651 24.0307 36.2622ZM17.7575 40.1074C17.8015 40.4444 17.8674 40.752 17.9516 41.0376L24.0124 40.2905C24.0527 39.9756 24.06 39.6423 24.0307 39.2871V39.2798L24.0271 39.2175L17.7575 40.1074ZM18.8122 42.6123C19.0466 42.8577 19.3066 43.0481 19.5813 43.1799C20.0024 43.385 20.4675 43.4693 20.9253 43.4436C21.394 43.4143 21.8664 43.2715 22.2949 43.0225C22.6977 42.7881 23.0603 42.4622 23.3496 42.052L18.8122 42.6123Z" fill="#ED1B24"></path>
  </g>
  <defs>
    <clipPath id="clip0_136_223">
      <rect width="41.3855" height="45" fill="white"></rect>
    </clipPath>
  </defs>
</svg>
