<?xml version="1.0" encoding="UTF-8"?>
<svg xmlns="http://www.w3.org/2000/svg" width="45" height="36" viewBox="0 0 45 36" fill="none">
  <g clip-path="url(#clip0_136_226)">
    <path d="M33.1458 23.7378C33.0029 23.6389 32.8418 23.595 32.677 23.6279C32.5122 23.6609 32.373 23.7488 32.2742 23.8879L31.7175 24.6716C31.5198 24.5837 31.3147 24.5178 31.095 24.4629C30.8752 24.408 30.6702 24.364 30.4504 24.3311L30.2747 23.3057C30.2417 23.1299 30.1538 23.0017 30.0256 22.9028C29.8828 22.804 29.7327 22.771 29.5569 22.804L28.2715 23.0347C28.1067 23.0676 27.9785 23.1445 27.8687 23.2874C27.7698 23.4302 27.7258 23.5803 27.7588 23.7561L27.9236 24.6936C27.7148 24.7815 27.5208 24.8804 27.334 24.9976C27.1472 25.1074 26.9641 25.2393 26.7993 25.3674L25.9277 24.7668C25.7849 24.668 25.6348 24.624 25.47 24.657C25.3052 24.6899 25.166 24.7778 25.0671 24.9207L24.3237 25.979C24.2249 26.1218 24.1809 26.283 24.2139 26.4478C24.2468 26.6235 24.3347 26.7517 24.4775 26.8506L25.2612 27.4072C25.1733 27.605 25.1074 27.8101 25.0525 28.0298C24.9976 28.2495 24.9536 28.4546 24.9207 28.6743L23.8953 28.8501C23.7195 28.8831 23.5913 28.9709 23.4924 29.0991C23.3936 29.2419 23.3606 29.3921 23.3936 29.5679L23.6243 30.8533C23.6572 31.0181 23.7341 31.1462 23.8733 31.2561C24.0161 31.355 24.1663 31.3989 24.342 31.366L25.2795 31.2012C25.3674 31.4099 25.4663 31.604 25.5835 31.7908C25.6934 31.9775 25.8252 32.1606 25.9534 32.3364L25.3528 33.197C25.2539 33.3398 25.21 33.49 25.2429 33.6548C25.2759 33.8196 25.3638 33.9587 25.5029 34.0576L26.5723 34.8084C26.7151 34.9072 26.8762 34.9402 27.041 34.9072C27.2058 34.8743 27.345 34.7974 27.4548 34.6582L28.0115 33.8635C28.2092 33.9514 28.4143 34.0173 28.634 34.0723C28.8538 34.1272 29.0588 34.1711 29.2786 34.2041L29.4543 35.2295C29.4873 35.4053 29.5752 35.5334 29.7034 35.6323C29.8462 35.7312 29.9963 35.7642 30.1721 35.7312L31.4575 35.5005C31.6223 35.4675 31.7505 35.3906 31.8604 35.2515C31.9592 35.1086 32.0032 34.9585 31.9702 34.7827L31.8054 33.8452C32.0142 33.7573 32.2083 33.6584 32.395 33.5413C32.5818 33.4314 32.7649 33.3032 32.9407 33.1714L33.8013 33.772C33.9441 33.8709 34.0942 33.9148 34.27 33.8818C34.4458 33.8489 34.574 33.761 34.6729 33.6218L35.4236 32.5525C35.5225 32.4097 35.5554 32.2485 35.5225 32.0837C35.4895 31.9189 35.4126 31.7798 35.2698 31.6699L34.4751 31.1243C34.563 30.9265 34.6289 30.7214 34.6838 30.5017C34.7388 30.282 34.7827 30.0769 34.8157 29.8572L35.8411 29.6814C36.0168 29.6484 36.145 29.5605 36.2439 29.4287C36.3428 29.2859 36.3757 29.1357 36.3428 28.96L36.1121 27.6746C36.0791 27.5098 36.0022 27.3816 35.863 27.2717C35.7202 27.1729 35.5701 27.1289 35.3943 27.1619L34.4568 27.3267C34.3689 27.1289 34.27 26.9348 34.1528 26.7371C34.043 26.5393 33.9111 26.3672 33.783 26.2024L34.3835 25.3308C34.4824 25.188 34.5264 25.0378 34.4934 24.873C34.4605 24.7083 34.3726 24.5691 34.2334 24.4702L33.175 23.7268L33.1458 23.7378ZM42.8174 20.1892L40.4297 20.2112C40.0818 20.2148 39.7998 19.9329 39.7961 19.585C39.7925 19.2371 40.0745 18.9551 40.4187 18.9514L44.3481 18.9111H44.3518H44.3665H44.3701H44.3848H44.3884H44.4031H44.4067H44.4214H44.425H44.4397H44.4434L44.458 18.9148H44.4617L44.4763 18.9185H44.48L44.4946 18.9221H44.4983L44.5093 18.9258H44.5129L44.5239 18.9294H44.5276L44.5386 18.9331H44.5422L44.5532 18.9368H44.5569L44.5679 18.9404H44.5715L44.5825 18.9441H44.5862L44.5972 18.9478H44.6008L44.6118 18.9514H44.6155L44.6265 18.9551H44.6301L44.6411 18.9587H44.6448L44.6558 18.9661H44.6594L44.6704 18.9734H44.6741L44.6851 18.9807H44.6887L44.6997 18.988H44.7034L44.7144 18.9954H44.718L44.729 19.0027H44.7327L44.7437 19.01H44.7473L44.7583 19.0173H44.762L44.773 19.0247H44.7766L44.7876 19.032H44.7913L44.8022 19.0393H44.8059L44.8169 19.0466H44.8206L44.8315 19.054L44.8352 19.0576L44.8425 19.0649L44.8462 19.0686L44.8535 19.0759L44.8608 19.0833V19.0869L44.8682 19.0979V19.1016L44.8755 19.1125V19.1162L44.8828 19.1272V19.1309L44.8901 19.1418V19.1455L44.8975 19.1565V19.1602L44.9048 19.1711V19.1748L44.9121 19.1858V19.1895L44.9194 19.2004V19.2041L44.9268 19.2151V19.2187L44.9341 19.2297V19.2334L44.9414 19.2444V19.248L44.9487 19.259V19.2627L44.9561 19.2737V19.2773L44.9597 19.2883V19.292L44.9634 19.303V19.3066L44.967 19.3176L44.9707 19.3286V19.3323V19.3359L44.9744 19.3469V19.3506L44.978 19.3616V19.3652L44.9817 19.3762V19.3799L44.9854 19.3909V19.3945L44.989 19.4055V19.4092L44.9927 19.4238V19.4275L44.9963 19.4421V19.4458L45 19.4604V19.4641L45.0037 19.4788V19.4934V19.4971V19.5117V19.5154V19.53V19.5337V19.5483V19.552L45.022 23.6133C45.022 23.9612 44.7437 24.2432 44.3958 24.2468C44.0479 24.2468 43.7659 23.9685 43.7659 23.6206L43.7549 21.0718L41.4478 23.3789C41.2024 23.6243 40.7996 23.6243 40.5542 23.3789C40.3088 23.1335 40.3088 22.7307 40.5542 22.4854L42.8174 20.1892ZM21.1084 1.27441L18.7207 1.29639C18.3728 1.30005 18.0908 1.01807 18.0872 0.673828C18.0835 0.325928 18.3655 0.0439453 18.7134 0.0402832L22.6428 0H22.6465H22.6611H22.6648H22.6794H22.6831H22.6978H22.7014H22.7161H22.7197H22.7344H22.738L22.7527 0.00366211H22.7563L22.771 0.00732422H22.7747L22.7893 0.0109863H22.793L22.804 0.0146484H22.8076L22.8186 0.0183105H22.8223L22.8333 0.0219727H22.8369L22.8479 0.0256348H22.8516L22.8625 0.0292969H22.8662L22.8772 0.032959H22.8809L22.8918 0.0366211H22.8955L22.9065 0.0402832H22.9102L22.9211 0.0439453H22.9248L22.9358 0.0476074H22.9395L22.9504 0.0549316H22.9541L22.9651 0.0622559H22.9688L22.9797 0.0695801H22.9834L22.9944 0.0769043H22.998L23.009 0.0842285H23.0127L23.0237 0.0915527H23.0273L23.0383 0.098877H23.042L23.053 0.106201H23.0566L23.0676 0.113525H23.0713L23.0823 0.12085H23.0859L23.0969 0.128174H23.1006L23.1116 0.135498H23.1152L23.1262 0.142822L23.1299 0.146484L23.1372 0.153809L23.1409 0.157471L23.1482 0.164795V0.168457L23.1555 0.175781V0.179443L23.1628 0.19043V0.194092L23.1702 0.205078V0.20874L23.1775 0.219727V0.223389L23.1848 0.234375V0.238037L23.1921 0.249023V0.252686L23.1995 0.263672V0.267334L23.2068 0.27832V0.281982L23.2141 0.292969V0.296631L23.2214 0.307617V0.311279L23.2288 0.322266V0.325928L23.2361 0.336914V0.340576L23.2434 0.351562V0.355225L23.2178 0.366211V0.369873L23.2214 0.380859V0.384521L23.2251 0.395508V0.39917L23.2288 0.410156L23.2324 0.421143V0.424805V0.428467L23.2361 0.439453V0.443115L23.2397 0.454102V0.457764L23.2434 0.46875V0.472412L23.2471 0.483398V0.487061L23.2507 0.501709V0.505371L23.2544 0.52002V0.523682L23.2581 0.53833V0.541992L23.2617 0.556641V0.560303V0.574951V0.5896V0.593262V0.60791V0.611572V0.626221V0.629883V0.644531V0.648193L23.28 4.70947C23.28 5.05737 23.0017 5.33936 22.6538 5.33936C22.3059 5.33936 22.0239 5.06104 22.0239 4.71313L22.0129 2.16431L19.7058 4.47144C19.4604 4.7168 19.0576 4.7168 18.8123 4.47144C18.5669 4.22607 18.5669 3.82324 18.8123 3.57788L21.1084 1.27441ZM35.7019 6.50391L31.2598 6.54785C30.7397 6.55151 30.3149 6.13403 30.3113 5.61401C30.3076 5.09399 30.7251 4.66919 31.2451 4.66553L37.9944 4.59961H37.998H38.02H38.0237H38.0457H38.0493H38.0713H38.075H38.0969H38.1006L38.1189 4.60327H38.1226L38.1409 4.60693H38.1445L38.1628 4.6106H38.1665L38.1848 4.61426H38.1885L38.2068 4.61792H38.2104L38.2288 4.62158H38.2324L38.2507 4.62524H38.2544L38.2727 4.62891H38.2764L38.2947 4.63623H38.2983L38.3166 4.64355H38.3203L38.3386 4.65088H38.3423L38.3606 4.6582H38.3643L38.3826 4.66553H38.3862L38.4045 4.67285H38.4082L38.4265 4.68018H38.4302L38.4485 4.6875L38.4521 4.69116L38.4705 4.69849L38.4741 4.70215L38.4888 4.71313L38.4924 4.7168L38.5071 4.72778L38.5107 4.73145L38.5254 4.74243L38.5291 4.74609L38.5437 4.75708L38.5474 4.76074L38.562 4.77173L38.5657 4.77539L38.5803 4.78638L38.584 4.79004L38.5986 4.80103L38.6023 4.80469L38.6169 4.81567L38.6206 4.81934L38.6353 4.83032L38.6389 4.83398L38.6536 4.84497L38.6572 4.84863L38.6719 4.86328L38.6755 4.86694L38.6902 4.88159L38.6938 4.88525L38.7085 4.8999L38.7122 4.90356L38.7231 4.91821L38.7268 4.92187L38.7378 4.93652L38.7415 4.94019L38.7524 4.95483L38.7561 4.9585L38.7671 4.97314L38.7708 4.97681L38.7817 4.99146L38.7854 4.99512L38.7964 5.00977L38.8 5.01343L38.811 5.02808L38.8147 5.03174L38.8257 5.04639L38.8293 5.05005L38.8403 5.0647V5.06836L38.8513 5.08667V5.09033L38.8623 5.10864L38.8696 5.12695V5.13062L38.877 5.14893V5.15259L38.8843 5.1709V5.17456L38.8916 5.19287V5.19653L38.8989 5.21484V5.21851L38.9062 5.23682V5.24048L38.9136 5.25879V5.26245L38.9209 5.28076V5.28442L38.9246 5.30273V5.3064L38.9282 5.32471V5.32837L38.9319 5.34668V5.35034L38.9355 5.37231L38.9392 5.39063V5.39429L38.9429 5.4126V5.41626L38.9465 5.43457V5.43823L38.9502 5.46021V5.46387V5.48584V5.4895V5.51514V5.53711V5.54077L38.9795 12.3853C38.9832 12.9053 38.562 13.3264 38.042 13.3301C37.522 13.3337 37.1008 12.9126 37.0972 12.3926L37.0789 7.81128L30.5457 14.3335C30.1758 14.7034 29.5789 14.7034 29.209 14.3335C28.8391 13.9636 28.8391 13.3667 29.209 12.9968L35.7019 6.50391ZM29.4031 26.77C29.74 26.7151 30.0806 26.7151 30.4175 26.792C30.7434 26.8689 31.04 27.0007 31.311 27.1838C31.571 27.3706 31.8018 27.6086 31.9885 27.8943C32.1753 28.1763 32.2925 28.4949 32.3474 28.8318C32.4023 29.1687 32.4023 29.5093 32.3254 29.8462C32.2485 30.1721 32.1167 30.4688 31.9336 30.7397C31.7468 30.9998 31.5088 31.2305 31.2231 31.4172C30.9412 31.604 30.6226 31.7212 30.2856 31.7761C29.9487 31.8311 29.6082 31.8311 29.2712 31.7542C28.9453 31.6772 28.6487 31.5454 28.3777 31.3623C28.1177 31.1755 27.887 30.9375 27.7002 30.6519C27.5134 30.3699 27.3962 30.0513 27.3413 29.7144C27.2864 29.3774 27.2864 29.0369 27.3633 28.7C27.4402 28.374 27.572 28.0774 27.7551 27.8064C27.9419 27.5464 28.1799 27.3157 28.4656 27.1289C28.7512 26.9458 29.0662 26.825 29.4031 26.77ZM19.5007 11.4807C19.4458 11.4258 19.4019 11.3928 19.3469 11.3708C19.303 11.3489 19.248 11.3379 19.1821 11.3379C19.1162 11.3379 19.0613 11.3489 19.0173 11.3708C18.9734 11.3928 18.9185 11.4258 18.8745 11.4697L18.8635 11.4807L17.6294 12.7148C17.3877 12.9565 17.0068 12.9858 16.7358 12.7917C16.593 12.7039 16.4539 12.616 16.2891 12.5317C16.1133 12.4438 15.9521 12.356 15.7983 12.2791C15.6335 12.2021 15.4614 12.1252 15.2856 12.0593C15.1318 12.0044 14.9597 11.9385 14.751 11.8726C14.458 11.7737 14.2712 11.5027 14.2712 11.2061V9.32007C14.2712 9.25415 14.2603 9.18823 14.2383 9.14429C14.2163 9.10034 14.1833 9.04541 14.1394 9.01245C14.0955 8.96851 14.0515 8.93555 14.0076 8.91357C13.9636 8.8916 13.8977 8.88062 13.8318 8.88062H11.4624C11.3965 8.88062 11.3416 8.8916 11.2976 8.90259C11.2537 8.92456 11.1987 8.95752 11.1438 9.01245C11.0999 9.0564 11.0669 9.10034 11.0559 9.14429C11.0339 9.18823 11.0229 9.25415 11.0229 9.32007V11.0559C11.0229 11.4038 10.7703 11.6895 10.4443 11.7554C10.2576 11.7993 10.0854 11.8433 9.93164 11.8872C9.75586 11.9421 9.59473 11.9971 9.41895 12.063C9.25415 12.1289 9.08203 12.1948 8.91724 12.2827C8.74146 12.3596 8.59131 12.4475 8.4375 12.5244C8.15552 12.6782 7.82593 12.6233 7.60986 12.4036L6.24756 11.0522C6.23657 11.0413 6.23657 11.0413 6.23657 11.0303C6.19263 10.9863 6.14868 10.9534 6.10474 10.9314C6.06079 10.9094 6.01685 10.9094 5.95093 10.9094C5.88501 10.9094 5.83008 10.9204 5.78613 10.9424C5.7312 10.9644 5.68726 10.9973 5.63232 11.0522L3.97339 12.7222C3.91846 12.7771 3.8855 12.821 3.86353 12.876C3.84155 12.9199 3.83057 12.9749 3.83057 13.0408C3.83057 13.1067 3.84155 13.1616 3.86353 13.2056C3.8855 13.2495 3.91846 13.3044 3.9624 13.3484V13.3594L5.19653 14.5935C5.43457 14.8315 5.46753 15.2161 5.27344 15.4871C5.18555 15.6299 5.09766 15.769 5.01343 15.9338C4.92554 16.1096 4.83765 16.2708 4.76074 16.4246C4.68384 16.5894 4.60693 16.7615 4.54102 16.9373C4.48608 17.0911 4.42017 17.2632 4.35425 17.4719C4.25537 17.7649 3.98437 17.9517 3.68774 17.9517H1.80908C1.74316 17.9517 1.67725 17.9626 1.6333 17.9846C1.58936 18.0066 1.54541 18.0396 1.50146 18.0725C1.45752 18.1165 1.42456 18.1604 1.41357 18.2043C1.3916 18.2483 1.38062 18.3142 1.38062 18.3801V20.7568C1.38062 20.8228 1.3916 20.8777 1.40259 20.9216C1.42456 20.9656 1.45752 21.0205 1.51245 21.0754C1.5564 21.1194 1.60034 21.1523 1.64429 21.1633C1.68823 21.1853 1.75415 21.1963 1.82007 21.1963H3.55591C3.90381 21.1963 4.18945 21.4453 4.25537 21.7749C4.29932 21.9617 4.34326 22.1338 4.38721 22.2766C4.44214 22.4524 4.49707 22.6245 4.56299 22.8003C4.62891 22.9651 4.69482 23.1372 4.78271 23.313C4.87061 23.4998 4.94751 23.6609 5.02441 23.8147C5.16724 24.0967 5.1123 24.4263 4.89258 24.6313L3.54126 25.9717L3.52295 25.9644C3.479 26.0083 3.44605 26.0522 3.42407 26.0962C3.4021 26.1401 3.4021 26.1841 3.4021 26.25C3.4021 26.3159 3.41309 26.3708 3.43506 26.4148C3.45703 26.4697 3.48999 26.5247 3.54492 26.5686L5.19287 28.2385C5.23682 28.2825 5.29175 28.3154 5.34668 28.3374C5.40161 28.3594 5.45654 28.3704 5.52246 28.3704C5.58838 28.3704 5.6543 28.3594 5.70923 28.3374C5.75317 28.3154 5.80811 28.2825 5.85205 28.2495L7.0752 27.0044C7.31689 26.7517 7.69775 26.7334 7.96875 26.9165C8.11157 27.0044 8.25073 27.0923 8.41553 27.1765C8.59131 27.2644 8.75244 27.3523 8.90625 27.4255C9.07104 27.5024 9.24316 27.5793 9.41895 27.6453C9.57275 27.7002 9.74487 27.7661 9.95361 27.832C10.2466 27.9309 10.4333 28.2019 10.4333 28.4985V30.3845C10.4333 30.4504 10.4443 30.5164 10.4663 30.5603C10.4883 30.6042 10.5212 30.6592 10.5542 30.6921C10.6421 30.78 10.741 30.813 10.8691 30.813H13.2458C13.3118 30.813 13.3667 30.802 13.4106 30.791C13.4546 30.769 13.5095 30.7361 13.5645 30.6812C13.6084 30.6372 13.6414 30.5933 13.6523 30.5493C13.6743 30.5054 13.6853 30.4395 13.6853 30.3735V28.6377C13.6853 28.2898 13.938 28.0042 14.2639 27.9382C14.4507 27.8943 14.6228 27.8503 14.7766 27.8064C14.9524 27.7515 15.1135 27.6965 15.2893 27.6306C15.4541 27.5647 15.6262 27.4988 15.802 27.4109C15.9888 27.323 16.1499 27.2461 16.3037 27.1692C16.5857 27.0264 16.9153 27.0813 17.1204 27.301L18.4607 28.6523L18.4717 28.6633C18.5156 28.7073 18.5596 28.7402 18.6035 28.7622C18.6475 28.7842 18.7024 28.7842 18.7683 28.7842C18.8342 28.7842 18.8892 28.7732 18.9331 28.7512C18.9771 28.7292 19.021 28.6963 19.0649 28.6523C19.0759 28.6414 19.0869 28.6304 19.0979 28.6304L20.7568 26.9934C20.8008 26.9495 20.8337 26.8945 20.8557 26.8396C20.8777 26.7847 20.8887 26.7297 20.8887 26.6638C20.8887 26.5979 20.8777 26.532 20.8557 26.4771C20.8337 26.4331 20.8008 26.3782 20.7678 26.3342L19.5227 25.1111C19.27 24.873 19.2517 24.4885 19.4348 24.2175C19.5227 24.0747 19.6106 23.9355 19.6948 23.7708C19.7827 23.595 19.8706 23.4338 19.9475 23.28C20.0244 23.1152 20.1013 22.9431 20.1672 22.7673C20.2222 22.6135 20.2881 22.4414 20.354 22.2327C20.4529 21.9397 20.7239 21.7529 21.0205 21.7529H22.9065C22.9724 21.7529 23.0383 21.7419 23.0823 21.72C23.1262 21.698 23.1812 21.665 23.2141 21.6321C23.302 21.5442 23.335 21.4453 23.335 21.3171V18.9404C23.335 18.8745 23.324 18.8196 23.313 18.7756C23.291 18.7317 23.2581 18.6768 23.2031 18.6218C23.1592 18.5779 23.1152 18.5449 23.0713 18.5339C23.0273 18.512 22.9614 18.501 22.8955 18.501H21.1597C20.8118 18.501 20.5151 18.241 20.4602 17.9114C20.4163 17.7576 20.3723 17.5964 20.3284 17.4316C20.2734 17.2668 20.2185 17.0947 20.1416 16.908C20.1416 16.897 20.1306 16.886 20.1306 16.875C20.0647 16.6992 19.9988 16.5491 19.9329 16.3953C19.856 16.2305 19.7791 16.0693 19.6912 15.9155C19.5374 15.6335 19.5923 15.304 19.812 15.0879L21.1633 13.7256C21.1633 13.7146 21.1743 13.7146 21.1853 13.7146C21.2292 13.6707 21.2622 13.6267 21.2842 13.5828C21.3062 13.5388 21.3062 13.4949 21.3062 13.429C21.3062 13.363 21.2952 13.3081 21.2732 13.2642C21.2512 13.2092 21.2183 13.1653 21.1633 13.1104L19.4934 11.4514L19.5007 11.4807ZM19.8926 10.0708C20.1233 10.1697 20.3174 10.3015 20.4932 10.4736L22.1631 12.1326H22.1741C22.3499 12.3083 22.478 12.5024 22.5769 12.7222C22.6758 12.9529 22.7197 13.1799 22.7197 13.4326C22.7197 13.6816 22.6648 13.9233 22.5769 14.1431C22.478 14.3628 22.3462 14.5569 22.1631 14.7217L21.1816 15.7141C21.1926 15.7471 21.2146 15.78 21.2256 15.813C21.3135 15.9998 21.3904 16.1938 21.4636 16.3806C21.4636 16.3916 21.4746 16.4026 21.4746 16.4136C21.5515 16.6003 21.6174 16.8054 21.6833 17.0251L21.7053 17.1021H22.9065C23.1555 17.1021 23.3972 17.146 23.6169 17.2449C23.8367 17.3328 24.0308 17.4756 24.2065 17.6477L24.2175 17.6587C24.3933 17.8345 24.5215 18.0286 24.6094 18.2483C24.6973 18.468 24.7522 18.7061 24.7522 18.9478V21.3245C24.7522 21.8372 24.5764 22.2729 24.2175 22.6318C24.0417 22.8076 23.8367 22.9468 23.6169 23.0347C23.3972 23.1226 23.1592 23.1665 22.9065 23.1665H21.5112C21.5002 23.1995 21.4783 23.2434 21.4673 23.2764C21.3904 23.4741 21.3025 23.6682 21.2183 23.866C21.1194 24.0747 21.0315 24.2688 20.9363 24.4446L20.9033 24.5105L21.7529 25.3491L21.7859 25.3821C21.9617 25.5579 22.0789 25.7629 22.1667 25.9827C22.2546 26.2024 22.2986 26.4294 22.2986 26.6821C22.2986 26.9238 22.2546 27.1509 22.1667 27.3706C22.0789 27.5903 21.958 27.7844 21.7859 27.9712L21.7639 27.9932L20.094 29.6521C19.9182 29.8389 19.7241 29.967 19.5044 30.0659C19.2847 30.1648 19.0466 30.2087 18.783 30.2087C18.5339 30.2087 18.2922 30.1538 18.0615 30.0659C17.8308 29.967 17.6367 29.8242 17.4719 29.6521L16.5015 28.6707C16.4685 28.6926 16.4355 28.7036 16.3916 28.7146C16.2048 28.7915 16.0107 28.8794 15.802 28.9563C15.6042 29.0332 15.3992 29.0991 15.1904 29.165C15.1575 29.176 15.1355 29.187 15.1025 29.187V30.3772C15.1025 30.6262 15.0586 30.8679 14.9597 31.0876C14.8718 31.3074 14.729 31.5015 14.5569 31.6772L14.5459 31.6882C14.3701 31.864 14.176 31.9922 13.9563 32.0801C13.7366 32.168 13.4985 32.2229 13.2568 32.2229H10.8801C10.3674 32.2229 9.93164 32.0471 9.57275 31.6882C9.39697 31.5125 9.25781 31.3074 9.16992 31.0876C9.08203 30.8679 9.03809 30.6299 9.03809 30.3772V28.9819C9.00513 28.9709 8.96118 28.949 8.92822 28.938C8.73047 28.8611 8.53638 28.7732 8.33862 28.6853C8.12988 28.5864 7.93579 28.4985 7.76001 28.4033L7.69409 28.3704L6.85547 29.22L6.82251 29.2529C6.64673 29.4287 6.44165 29.5459 6.22192 29.6338C6.0022 29.7217 5.77515 29.7656 5.52246 29.7656C5.28076 29.7656 5.05371 29.7217 4.83398 29.6338C4.61426 29.5459 4.42017 29.425 4.2334 29.2529L4.21143 29.231L2.5415 27.5391C2.36572 27.3633 2.23755 27.1692 2.13867 26.9495C2.03979 26.7187 1.99585 26.4917 1.99585 26.239C1.99585 25.9863 2.05078 25.7483 2.13867 25.5286C2.23755 25.3088 2.38037 25.1147 2.55249 24.939L3.53394 23.9685C3.51196 23.9355 3.50098 23.9026 3.48999 23.8586C3.41309 23.6719 3.3252 23.4778 3.24829 23.269C3.17139 23.0603 3.09448 22.8662 3.03955 22.6575L3.01758 22.5696H1.84204C1.58936 22.5696 1.35132 22.5256 1.13159 22.4268C0.911865 22.3389 0.717773 22.196 0.541992 22.0239L0.531006 22.0129C0.355225 21.8372 0.227051 21.6431 0.13916 21.4233C0.0549316 21.1963 0 20.9583 0 20.7166V18.3398C0 18.0908 0.0439453 17.8601 0.131836 17.6294C0.219727 17.4097 0.362549 17.2156 0.534668 17.0288C0.710449 16.853 0.915527 16.7139 1.13525 16.626C1.35498 16.5381 1.59302 16.4941 1.8457 16.4941H3.24097C3.25195 16.4612 3.27393 16.4172 3.28491 16.3843C3.36182 16.1865 3.44971 15.9924 3.53394 15.7947C3.63281 15.5859 3.7207 15.3918 3.81592 15.2161L3.84888 15.1501L3.01025 14.3005C2.83447 14.1248 2.69531 13.9307 2.60742 13.7C2.50854 13.4692 2.4646 13.2312 2.4646 12.9895C2.4646 12.7405 2.50854 12.5098 2.60742 12.2791C2.7063 12.0483 2.83813 11.8542 3.01025 11.6785L4.66919 10.0085V9.99756C4.84497 9.82178 5.03906 9.6936 5.25879 9.59473C5.4895 9.49585 5.71655 9.4519 5.96924 9.4519C6.22192 9.4519 6.45996 9.50684 6.67969 9.59473C6.89941 9.6936 7.09351 9.82544 7.2583 10.0085L8.25073 10.99C8.28369 10.979 8.31665 10.957 8.33862 10.946C8.52539 10.8582 8.71948 10.7812 8.92822 10.697C9.12598 10.6201 9.33105 10.5542 9.53979 10.4883C9.57275 10.4773 9.59473 10.4663 9.62769 10.4663V9.27612C9.62769 9.02344 9.67163 8.7854 9.77051 8.56567C9.8584 8.34595 10.0012 8.15186 10.1733 7.97607L10.1843 7.96509C10.3601 7.78931 10.5542 7.66113 10.7739 7.57324C10.9937 7.48535 11.2317 7.43042 11.4734 7.43042H13.8501C14.0991 7.43042 14.3298 7.47437 14.5605 7.56226C14.7913 7.65015 14.9854 7.79297 15.1611 7.96509C15.3369 8.14087 15.4761 8.34595 15.564 8.56567C15.6519 8.7854 15.6958 9.02344 15.6958 9.27612V10.6714C15.7288 10.6824 15.7727 10.7043 15.8057 10.7153C16.0034 10.7922 16.1975 10.8801 16.3953 10.968C16.604 11.0669 16.7981 11.1548 16.9739 11.25L17.0398 11.283L17.8894 10.4443C18.0652 10.2686 18.2593 10.1294 18.49 10.0415C18.7207 9.94263 18.9587 9.89868 19.2004 9.89868C19.4531 9.89868 19.6802 9.94263 19.9109 10.0415V10.0708H19.8926ZM12.356 14.491C12.7148 14.491 13.0774 14.5239 13.4253 14.6008C13.7622 14.6667 14.1028 14.7766 14.4397 14.9158C14.7546 15.0586 15.0623 15.2197 15.3442 15.4065C15.6262 15.5933 15.8899 15.8093 16.1279 16.051C16.3696 16.2927 16.5857 16.5527 16.7725 16.8457C16.9702 17.1277 17.1313 17.4353 17.2632 17.7502C17.2742 17.7722 17.2742 17.7942 17.2852 17.8052C17.417 18.1201 17.5159 18.4497 17.5781 18.7646C17.644 19.1125 17.688 19.4751 17.688 19.834C17.688 20.1929 17.655 20.5554 17.5781 20.9033C17.5122 21.2402 17.4023 21.5808 17.2632 21.9177C17.1204 22.2327 16.9592 22.5403 16.7725 22.8223C16.5747 23.1042 16.3696 23.3679 16.1279 23.6169C15.8862 23.8586 15.6262 24.0747 15.3333 24.2615C15.0513 24.4592 14.7437 24.6204 14.4287 24.7522C14.4067 24.7632 14.3848 24.7632 14.3738 24.7742C14.0588 24.906 13.7292 25.0049 13.4143 25.0671C13.0664 25.1331 12.7039 25.177 12.345 25.177C11.9861 25.177 11.6235 25.144 11.2756 25.0671C10.9387 25.0012 10.5981 24.8914 10.2612 24.7522C9.94629 24.6094 9.63867 24.4482 9.35669 24.2615C9.07471 24.0747 8.81104 23.8586 8.573 23.6169C8.3313 23.3752 8.11523 23.1152 7.92847 22.8223C7.73071 22.5403 7.56958 22.2327 7.43774 21.9177C7.42676 21.8958 7.42676 21.8738 7.41577 21.8628C7.28394 21.5479 7.18506 21.2183 7.1228 20.9033C7.05689 20.5554 7.01294 20.1929 7.01294 19.834C7.01294 19.4751 7.0459 19.1125 7.1228 18.7646C7.18872 18.4277 7.29858 18.0872 7.43774 17.7502C7.58057 17.4353 7.7417 17.1277 7.92847 16.8457C8.11523 16.5637 8.3313 16.3 8.573 16.051C8.81104 15.813 9.07471 15.5933 9.35669 15.4065C9.63867 15.2087 9.94629 15.0476 10.2612 14.9158C10.2832 14.9048 10.3052 14.9048 10.3162 14.8938C10.6311 14.762 10.9607 14.6631 11.2756 14.6008C11.6235 14.5349 11.9861 14.491 12.345 14.491H12.356ZM13.1543 15.9741C12.9053 15.9192 12.6306 15.8972 12.3596 15.8972C12.0886 15.8972 11.825 15.9192 11.5649 15.9741C11.3159 16.0291 11.0852 16.095 10.8655 16.1829C10.8545 16.1938 10.8435 16.1938 10.8215 16.2048C10.5725 16.3147 10.3418 16.4355 10.1331 16.5747C9.92432 16.7175 9.73022 16.8677 9.55444 17.0435C9.37866 17.2192 9.21753 17.4133 9.08569 17.6221C8.94287 17.8308 8.82568 18.0579 8.71582 18.3105C8.61694 18.5413 8.54004 18.7903 8.48511 19.054C8.43018 19.303 8.4082 19.5776 8.4082 19.8486C8.4082 20.1196 8.43018 20.3833 8.48511 20.6433C8.54004 20.8923 8.60596 21.123 8.69385 21.3428C8.70483 21.3538 8.70483 21.3647 8.71582 21.3867C8.82568 21.6394 8.94653 21.8665 9.08569 22.0752C9.22852 22.2839 9.37866 22.478 9.55444 22.6538C9.73022 22.8296 9.92432 22.9907 10.1331 23.1226C10.3418 23.2654 10.5688 23.3826 10.8215 23.4924C11.0522 23.5913 11.3013 23.6682 11.5649 23.7231C11.814 23.7781 12.0886 23.8 12.3596 23.8C12.6306 23.8 12.8943 23.7781 13.1543 23.7231C13.407 23.6682 13.634 23.6023 13.8538 23.5144C13.8647 23.5034 13.8757 23.5034 13.8977 23.4924C14.1467 23.3826 14.3774 23.2617 14.5862 23.1226C14.7949 22.9797 14.989 22.8296 15.1648 22.6538C15.3406 22.478 15.5017 22.2839 15.6335 22.0752C15.7764 21.8665 15.8936 21.6394 16.0034 21.3867C16.1023 21.156 16.1792 20.907 16.2341 20.6433C16.2891 20.3906 16.311 20.1196 16.311 19.8486C16.311 19.5776 16.2891 19.314 16.2341 19.054C16.1792 18.8049 16.1133 18.5742 16.0254 18.3545C16.0144 18.3435 16.0144 18.3325 16.0034 18.3105C15.8936 18.0579 15.7727 17.8308 15.6335 17.6221C15.4907 17.4133 15.3406 17.2192 15.1648 17.0435C14.989 16.8677 14.7949 16.7065 14.5862 16.5747C14.3774 16.4319 14.1504 16.3147 13.8977 16.2048C13.667 16.1023 13.4143 16.0291 13.1543 15.9741Z" fill="#ED1B24"></path>
  </g>
  <defs>
    <clipPath id="clip0_136_226">
      <rect width="45" height="35.7495" fill="white"></rect>
    </clipPath>
  </defs>
</svg>
