<?xml version="1.0" encoding="UTF-8"?>
<svg xmlns="http://www.w3.org/2000/svg" width="46" height="46" viewBox="0 0 46 46" fill="none">
  <circle cx="23" cy="23" r="23" fill="#ED1B24"></circle>
  <path d="M34.0341 31.5271L29.2749 26.7679C28.8669 26.3599 28.3005 26.2111 27.7749 26.3167L26.6685 25.2079C28.5405 22.7071 28.3413 19.1383 26.0709 16.8655C23.5797 14.3743 19.5261 14.3743 17.0349 16.8655C14.5437 19.3567 14.5437 23.4103 17.0349 25.9015C19.3077 28.1743 22.8765 28.3735 25.3773 26.4991L26.4861 27.6055C26.3781 28.1335 26.5269 28.6999 26.9349 29.1079L31.6941 33.8671C32.3397 34.5127 33.3885 34.5127 34.0341 33.8671C34.6797 33.2215 34.6797 32.1727 34.0341 31.5271ZM24.7773 24.6103C22.9989 26.3887 20.1021 26.3887 18.3237 24.6103C16.5453 22.8319 16.5453 19.9351 18.3237 18.1567C20.1021 16.3783 22.9989 16.3783 24.7773 18.1567C26.5581 19.9375 26.5581 22.8319 24.7773 24.6103Z" fill="white"></path>
  <path d="M14.5967 22.8007L11.0999 26.3119C10.9655 26.4463 10.9679 26.6623 11.0999 26.7967C11.1671 26.8639 11.2535 26.8975 11.3423 26.8975C11.4311 26.8975 11.5175 26.8639 11.5847 26.7967L14.8655 23.5039C14.7695 23.2711 14.6903 23.0311 14.6207 22.7863C14.6135 22.7911 14.6039 22.7935 14.5967 22.8007Z" fill="white"></path>
  <path d="M25.5697 12.9439L28.3225 11.9239L26.3305 16.3807C26.5009 16.5751 26.6665 16.7743 26.8105 16.9831L28.9129 12.2767L29.9425 14.8783C29.9953 15.0127 30.1249 15.0943 30.2617 15.0943C30.3049 15.0943 30.3457 15.0871 30.3865 15.0703C30.5617 15.0007 30.6481 14.8015 30.5785 14.6263L29.2297 11.2159C29.1625 11.0431 28.9681 10.9567 28.7929 11.0215L25.3321 12.3031C25.1545 12.3679 25.0633 12.5647 25.1305 12.7423C25.1953 12.9199 25.3945 13.0111 25.5697 12.9439Z" fill="white"></path>
  <path d="M21.7824 18.7111C21.7032 18.6271 21.5856 18.5887 21.4704 18.6103C21.3552 18.6319 21.2616 18.7111 21.216 18.8167L18.9648 24.3487C19.1592 24.4735 19.3608 24.5815 19.572 24.6727L21.6504 19.5655L24.024 22.0615C24.1032 22.1431 24.216 22.1815 24.3288 22.1623C24.4416 22.1431 24.5376 22.0687 24.5832 21.9655L25.2744 20.4199C25.2312 20.0503 25.14 19.6903 25.0032 19.3495L24.168 21.2191L21.7824 18.7111Z" fill="white"></path>
</svg>
