<svg width="256" height="256" viewBox="0 0 256 256" fill="none" xmlns="http://www.w3.org/2000/svg">
<path d="M224 50H32C30.4087 50 28.8826 50.6321 27.7574 51.7574C26.6321 52.8826 26 54.4087 26 56V192C26 195.713 27.475 199.274 30.1005 201.899C32.726 204.525 36.287 206 40 206H216C219.713 206 223.274 204.525 225.899 201.899C228.525 199.274 230 195.713 230 192V56C230 54.4087 229.368 52.8826 228.243 51.7574C227.117 50.6321 225.591 50 224 50ZM128 135.86L47.42 62H208.58L128 135.86ZM101.67 128L38 186.36V69.64L101.67 128ZM110.55 136.14L124 148.42C125.106 149.432 126.551 149.993 128.05 149.993C129.549 149.993 130.994 149.432 132.1 148.42L145.5 136.14L208.58 194H47.43L110.55 136.14ZM154.33 128L218 69.64V186.36L154.33 128Z" fill="#ED1B24"/>
</svg>
