<svg width="256" height="256" viewBox="0 0 256 256" fill="none" xmlns="http://www.w3.org/2000/svg">
<path d="M128 66C120.484 66 113.137 68.2287 106.888 72.4042C100.639 76.5796 95.7687 82.5144 92.8926 89.458C90.0164 96.4016 89.2639 104.042 90.7302 111.413C92.1964 118.785 95.8155 125.556 101.13 130.87C106.444 136.184 113.215 139.804 120.587 141.27C127.958 142.736 135.598 141.984 142.542 139.107C149.486 136.231 155.42 131.361 159.596 125.112C163.771 118.863 166 111.516 166 104C166 93.9218 161.996 84.2563 154.87 77.1299C147.744 70.0036 138.078 66 128 66ZM128 130C122.858 130 117.831 128.475 113.555 125.618C109.279 122.761 105.947 118.701 103.979 113.95C102.011 109.199 101.496 103.971 102.5 98.9277C103.503 93.8841 105.979 89.2514 109.615 85.6152C113.251 81.9791 117.884 79.5028 122.928 78.4996C127.971 77.4964 133.199 78.0113 137.95 79.9791C142.701 81.947 146.761 85.2795 149.618 89.5552C152.475 93.8309 154 98.8577 154 104C154 110.896 151.261 117.509 146.385 122.385C141.509 127.261 134.896 130 128 130ZM128 18C105.2 18.0265 83.3404 27.0957 67.218 43.218C51.0957 59.3404 42.0265 81.1995 42 104C42 134.91 56.34 167.74 83.47 198.94C95.7151 213.091 109.497 225.836 124.56 236.94C125.568 237.646 126.769 238.024 128 238.024C129.231 238.024 130.432 237.646 131.44 236.94C146.503 225.836 160.285 213.091 172.53 198.94C199.66 167.74 214 134.94 214 104C213.974 81.1995 204.904 59.3404 188.782 43.218C172.66 27.0957 150.8 18.0265 128 18ZM128 224.51C113 212.93 54 163.62 54 104C54 84.374 61.7964 65.5518 75.6741 51.6741C89.5518 37.7964 108.374 30 128 30C147.626 30 166.448 37.7964 180.326 51.6741C194.204 65.5518 202 84.374 202 104C202 163.62 143 212.93 128 224.51Z" fill="#ED1B24"/>
</svg>
