<?xml version="1.0" encoding="UTF-8"?>
<svg xmlns="http://www.w3.org/2000/svg" width="48" height="45" viewBox="0 0 48 45" fill="none">
  <g clip-path="url(#clip0_136_221)">
    <path fill-rule="evenodd" clip-rule="evenodd" d="M28.888 22.0035L29.8913 23.0599C30.155 23.3375 30.1438 23.781 29.8662 24.0446L29.0156 24.8523C29.2368 25.2905 29.3981 25.7565 29.4954 26.2376L30.5686 26.2646C30.9524 26.2739 31.258 26.5963 31.2477 26.9792L31.2114 28.4353C31.2011 28.8181 30.8797 29.1237 30.4969 29.1135L29.3249 29.0836C29.1701 29.5492 28.9543 29.9921 28.683 30.4009L29.4246 31.1807C29.6882 31.4583 29.677 31.9017 29.3994 32.1654L28.343 33.1687C28.0654 33.4324 27.6219 33.4212 27.3583 33.1436L26.5506 32.2939C26.1127 32.5138 25.6451 32.6759 25.1653 32.7728L25.1374 33.8469C25.128 34.2298 24.8066 34.5354 24.4228 34.526L22.9677 34.4888C22.5848 34.4785 22.2792 34.1571 22.2895 33.7742L22.3193 32.6023C21.8537 32.4475 21.4108 32.2317 21.002 31.9604L20.2222 32.701C19.9446 32.9656 19.5012 32.9535 19.2366 32.6759L18.2342 31.6204C17.9696 31.3428 17.9808 30.8993 18.2594 30.6357L19.109 29.828C18.8878 29.3898 18.7265 28.9238 18.6292 28.4427L17.556 28.4157C17.1731 28.4064 16.8666 28.084 16.8759 27.7011L16.9141 26.2451C16.9234 25.8622 17.2448 25.5566 17.6277 25.5669L18.7997 25.5967C18.9543 25.1318 19.1705 24.6865 19.4416 24.2784L18.7009 23.4996C18.4373 23.2211 18.4485 22.7786 18.7261 22.5149L19.7816 21.5116C20.0592 21.247 20.5027 21.2582 20.7663 21.5368L21.5749 22.3864C22.0072 22.1684 22.4721 22.0053 22.9593 21.9066L22.9872 20.8334C22.9965 20.4505 23.3179 20.1449 23.7018 20.1543L25.1569 20.1915C25.5398 20.2018 25.8454 20.5232 25.8361 20.9061L25.8062 22.078C26.2711 22.2317 26.7155 22.4479 27.1235 22.719L27.9023 21.9793C28.1809 21.7147 28.6243 21.7268 28.8889 22.0044L28.888 22.0035ZM9.316 22.1973C9.05608 22.7404 8.40303 22.9686 7.85898 22.7087C7.31585 22.4488 7.08761 21.7995 7.34753 21.2526C7.92233 20.0481 8.63034 18.918 9.45015 17.8793C10.2728 16.836 11.2085 15.8871 12.2403 15.05C12.7089 14.6671 13.3973 14.7389 13.7746 15.2065C14.1575 15.6751 14.0858 16.3636 13.6172 16.7418C12.7089 17.4824 11.8816 18.3162 11.1615 19.2292C10.4414 20.1468 9.82372 21.139 9.316 22.1973ZM19.6987 2.92898C21.8469 0.27485 24.3222 -1.16913 26.1817 1.19248C28.3188 1.30427 29.2345 4.54717 27.7645 6.14672C27.8697 6.14579 27.9694 6.16722 28.0542 6.2138C28.1669 6.27435 28.2517 6.37403 28.2946 6.51564C28.3821 6.80071 28.2592 7.08578 28.1958 7.36246C28.098 7.78913 27.989 8.25866 27.5027 8.23258L27.4244 8.22419C27.4067 9.10735 26.9763 9.51353 26.4118 10.0436C26.5189 10.2001 26.627 10.3585 26.7444 10.5094C26.8198 10.6054 26.8692 10.6696 26.9577 10.7442C27.9284 11.5584 29.7553 11.7354 30.7847 12.3102C31.1173 12.4946 31.4182 12.7303 31.6595 13.0499C32.2641 13.8483 32.3619 14.5386 32.483 15.5009C32.4989 15.5671 32.5082 15.6332 32.5082 15.7003C32.5082 15.8335 32.4001 15.9416 32.2678 15.9416H16.2434C16.1111 15.9416 16.003 15.8335 16.003 15.7003C16.003 15.6323 16.0133 15.5643 16.0291 15.4981C16.1511 14.5367 16.248 13.8473 16.8517 13.0499C17.0939 12.7303 17.3939 12.4956 17.7265 12.3102C18.7447 11.7419 20.4831 11.5621 21.519 10.7721C21.6895 10.4777 21.8255 10.1219 21.942 9.80232C21.5311 9.42223 21.2163 9.01046 21.1445 8.22699L21.0961 8.22792C20.9815 8.22699 20.8716 8.2009 20.77 8.14221C20.5436 8.01365 20.4197 7.76771 20.3592 7.48636C20.2875 7.15099 20.2017 6.18399 20.6638 5.9958C20.607 4.93658 20.7868 3.25876 19.6987 2.92898ZM26.1426 10.2989C25.5845 10.8187 24.9753 11.0712 24.3576 11.0721C23.712 11.0721 23.0636 10.7945 22.4618 10.2588L22.2364 10.0622C22.1134 10.3874 21.9597 10.7758 21.7687 11.0618C22.7832 13.1179 25.7802 13.1896 26.7509 11.074C26.5077 10.8262 26.3224 10.5625 26.1426 10.2989ZM25.8938 3.18051C25.4038 3.67333 24.8868 3.81586 24.3781 3.85965C24.229 3.88666 24.0819 3.90436 23.9365 3.92299C23.4493 3.98262 22.9621 4.04317 22.3174 4.48848C22.0109 4.70088 21.8069 4.958 21.7035 5.25611C21.5982 5.55888 21.5917 5.91382 21.6802 6.31628C21.6876 6.35447 21.6858 6.39546 21.6718 6.43552C21.6317 6.54545 21.5088 6.60228 21.3979 6.56222C21.2265 6.4998 20.8567 6.3023 20.7644 6.52216C20.7337 6.75506 20.7151 7.10814 20.7765 7.39786C20.8418 7.7025 20.9554 7.87205 21.2805 7.77237L21.3383 7.76305C21.4557 7.76026 21.5535 7.85248 21.5554 7.9708C21.5786 8.93407 22.0072 9.30392 22.527 9.75202L22.745 9.94113C23.2686 10.406 23.8191 10.6464 24.3576 10.6464C24.883 10.6464 25.4075 10.4172 25.8966 9.94486L26.1174 9.73525C26.6633 9.22287 27.0658 8.84464 26.9884 7.92422C26.9754 7.74908 27.1692 7.6289 27.3182 7.72858C27.3779 7.76678 27.4524 7.80404 27.5241 7.80777C27.7039 7.81708 27.8027 7.13236 27.8651 6.94883C27.9033 6.80536 27.9079 6.70568 27.8884 6.64047C27.8669 6.57153 27.8055 6.56781 27.7421 6.5734C27.6368 6.58364 27.5101 6.63675 27.3918 6.72432C27.3453 6.76531 27.2819 6.78487 27.2158 6.77369C27.1881 6.76905 27.1617 6.75899 27.138 6.7441C27.1143 6.72921 27.0937 6.70978 27.0775 6.68693C27.0614 6.66407 27.0498 6.63824 27.0437 6.61093C27.0375 6.58361 27.0368 6.55534 27.0415 6.52775C27.2428 5.35673 27.1505 4.59282 26.9009 4.07298C26.6829 3.61743 26.3335 3.33981 25.9553 3.13393L25.8938 3.18051ZM34.8884 27.8176C37.0367 25.1625 39.5119 23.7195 41.3714 26.0802C43.5085 26.192 44.4243 29.4358 42.9542 31.0344C43.0595 31.0335 43.1592 31.0549 43.2439 31.1024C43.3567 31.163 43.4414 31.2627 43.4843 31.4043C43.5719 31.6884 43.4498 31.9735 43.3855 32.2501C43.2877 32.6768 43.1797 33.1463 42.6924 33.1212L42.6151 33.1119C42.5965 33.995 42.1661 34.4012 41.6015 34.9313C41.7087 35.0887 41.8167 35.2462 41.9341 35.3971C42.0096 35.493 42.0589 35.5573 42.1474 35.6319C43.1182 36.4461 44.945 36.6231 45.9745 37.1979C46.308 37.3823 46.6079 37.619 46.8492 37.9376C47.4538 38.7359 47.5517 39.4263 47.6728 40.3886C47.6886 40.4548 47.6979 40.5209 47.6979 40.588C47.6979 40.7212 47.5898 40.8293 47.4576 40.8293H31.4331C31.3008 40.8293 31.1928 40.7212 31.1928 40.588C31.1928 40.52 31.203 40.452 31.2188 40.3858C31.3409 39.4244 31.4378 38.735 32.0424 37.9376C32.2837 37.619 32.5836 37.3833 32.9162 37.1979C33.9345 36.6296 35.6728 36.4498 36.7088 35.6598C36.8792 35.3654 37.0153 35.0095 37.1317 34.69C36.7218 34.3099 36.406 33.8991 36.3343 33.1156L36.2858 33.1165C36.1712 33.1147 36.0613 33.0886 35.9598 33.0299C35.7334 32.9013 35.6095 32.6554 35.5489 32.3741C35.4772 32.0396 35.3915 31.0726 35.8536 30.8844C35.7967 29.8243 35.9765 28.1465 34.8884 27.8176ZM41.3323 35.1866C40.7743 35.7064 40.1659 35.9588 39.5483 35.9598C38.9017 35.9598 38.2534 35.6831 37.6515 35.1474L37.4261 34.9499C37.3031 35.2751 37.1494 35.6635 36.9584 35.9495C37.9729 38.0056 40.9699 38.0773 41.9406 35.9616C41.6975 35.7138 41.5121 35.4502 41.3323 35.1866ZM41.0836 28.0682C40.5935 28.561 40.0765 28.7035 39.5678 28.7473C39.4188 28.7744 39.2716 28.793 39.1263 28.8107C38.639 28.8712 38.1518 28.9309 37.5071 29.3771C37.2016 29.5895 36.9966 29.8457 36.8932 30.1438C36.7879 30.4466 36.7814 30.8015 36.8699 31.204C36.8783 31.2422 36.8755 31.2832 36.8615 31.3232C36.842 31.3761 36.8023 31.4191 36.7512 31.4428C36.7001 31.4666 36.6416 31.4691 36.5886 31.4499C36.4162 31.3875 36.0464 31.19 35.9542 31.4098C35.9234 31.6427 35.9048 31.9958 35.9663 32.2865C36.0315 32.5902 36.1451 32.7597 36.4703 32.6601L36.528 32.6507C36.6454 32.6479 36.7432 32.7411 36.746 32.8585C36.7684 33.8227 37.1969 34.1916 37.7177 34.6397L37.9357 34.8288C38.4583 35.2937 39.0098 35.534 39.5483 35.534C40.0728 35.534 40.5973 35.3049 41.0863 34.8325L41.3071 34.6239C41.8531 34.1106 42.2555 33.7323 42.1782 32.8119C42.1651 32.6377 42.3589 32.5166 42.5089 32.6163C42.5676 32.6545 42.6431 32.6927 42.7139 32.6955C42.8937 32.7048 42.9933 32.02 43.0548 31.8365C43.093 31.694 43.0977 31.5934 43.0781 31.5282C43.0567 31.4592 42.9952 31.4555 42.9318 31.4611C42.8266 31.4713 42.7008 31.5244 42.5816 31.612C42.5359 31.653 42.4716 31.6735 42.4055 31.6623C42.3497 31.6525 42.3001 31.6211 42.2675 31.5748C42.2348 31.5286 42.2218 31.4713 42.2313 31.4154C42.4325 30.2444 42.3403 29.4805 42.0906 28.9607C41.8726 28.5051 41.5233 28.2284 41.145 28.0216L41.0836 28.0682ZM3.69566 27.8176C5.84393 25.1625 8.31919 23.7195 10.1787 26.0802C12.3148 26.192 13.2306 29.4358 11.7614 31.0344C11.8658 31.0335 11.9655 31.0549 12.0512 31.1024C12.163 31.163 12.2487 31.2627 12.2915 31.4043C12.3791 31.6884 12.2561 31.9735 12.1928 32.2501C12.095 32.6768 11.986 33.1463 11.4997 33.1212L11.4214 33.1119C11.4037 33.995 10.9724 34.4012 10.4088 34.9313C10.5159 35.0887 10.623 35.2462 10.7413 35.3971C10.8159 35.493 10.8652 35.5573 10.9547 35.6319C11.9254 36.4461 13.7523 36.6231 14.7817 37.1979C15.1143 37.3823 15.4152 37.619 15.6565 37.9376C16.2611 38.7359 16.358 39.4263 16.48 40.3886C16.4949 40.4548 16.5052 40.5209 16.5052 40.588C16.5052 40.7212 16.3971 40.8293 16.2648 40.8293H0.240353C0.108066 40.8293 0 40.7212 0 40.588C0 40.52 0.0102476 40.452 0.0260848 40.3858C0.147193 39.4244 0.245011 38.735 0.848687 37.9376C1.0909 37.619 1.39088 37.3833 1.72346 37.1979C2.74077 36.6296 4.48006 36.4498 5.516 35.6598C5.68649 35.3654 5.8225 35.0095 5.93802 34.69C5.52811 34.3099 5.2123 33.8991 5.1415 33.1156L5.09306 33.1165C4.97847 33.1147 4.86854 33.0886 4.767 33.0299C4.53969 32.9013 4.41671 32.6554 4.35616 32.3741C4.28443 32.0396 4.19872 31.0726 4.66079 30.8844C4.60397 29.8243 4.78283 28.1465 3.69566 27.8176ZM10.1386 35.1866C9.5815 35.7064 8.97224 35.9588 8.35459 35.9598C7.70899 35.9598 7.0606 35.6831 6.45878 35.1474L6.2324 34.9499C6.11036 35.2751 5.95665 35.6635 5.76567 35.9495C6.77925 38.0056 9.77714 38.0773 10.7479 35.9616C10.5047 35.7138 10.3193 35.4502 10.1386 35.1866ZM9.8908 28.0682C9.40077 28.561 8.88281 28.7035 8.37508 28.7473C8.2251 28.7744 8.07883 28.793 7.93257 28.8107C7.44535 28.8712 6.95905 28.9309 6.31438 29.3771C6.00789 29.5895 5.80387 29.8457 5.69953 30.1438C5.59426 30.4466 5.58867 30.8015 5.67717 31.204C5.68462 31.2422 5.68276 31.2832 5.66879 31.3232C5.62873 31.4331 5.50576 31.49 5.39489 31.4499C5.22348 31.3875 4.85364 31.19 4.76141 31.4098C4.73066 31.6427 4.71203 31.9958 4.77352 32.2865C4.8378 32.5902 4.95239 32.7597 5.27751 32.6601L5.33527 32.6507C5.45265 32.6479 5.55047 32.7411 5.55234 32.8585C5.57563 33.8227 6.00416 34.1916 6.52399 34.6397L6.74199 34.8288C7.26462 35.2937 7.81612 35.534 8.35459 35.534C8.87908 35.534 9.4045 35.3049 9.89359 34.8325L10.1144 34.6239C10.6603 34.1106 11.0627 33.7323 10.9854 32.8119C10.9715 32.6377 11.1652 32.5166 11.3152 32.6163C11.3739 32.6545 11.4494 32.6927 11.5211 32.6955C11.7009 32.7048 11.7996 32.02 11.8621 31.8365C11.9003 31.694 11.9049 31.5934 11.8854 31.5282C11.8639 31.4592 11.8024 31.4555 11.7391 31.4611C11.6338 31.4713 11.5071 31.5244 11.3888 31.612C11.3422 31.653 11.2789 31.6735 11.2127 31.6623C11.1851 31.6576 11.1586 31.6474 11.1349 31.6324C11.1112 31.6174 11.0906 31.5979 11.0745 31.575C11.0583 31.5521 11.0468 31.5262 11.0406 31.4988C11.0344 31.4714 11.0337 31.4431 11.0385 31.4154C11.2388 30.2444 11.1475 29.4805 10.8979 28.9607C10.6789 28.5051 10.3305 28.2284 9.95228 28.0216L9.8908 28.0682ZM35.0403 16.9309C34.5801 16.5452 34.5204 15.8559 34.9061 15.3956C35.2927 14.9354 35.9812 14.8758 36.4414 15.2615C36.6622 15.4469 36.8355 15.5969 36.965 15.7143C37.1224 15.8559 37.2882 16.018 37.4689 16.1912C38.1304 16.8443 38.7406 17.5374 39.2837 18.2687C39.8332 19.0089 40.3265 19.7893 40.7594 20.6033C41.0388 21.139 40.8339 21.7995 40.3029 22.0789C39.7672 22.3584 39.1058 22.1535 38.8272 21.6225C38.4527 20.9135 38.0195 20.2288 37.5323 19.5795C37.0404 18.9227 36.5085 18.3078 35.9383 17.7498C35.8079 17.6194 35.6579 17.4824 35.4968 17.3324C35.3039 17.1592 35.1502 17.025 35.0403 16.9309ZM29.2466 41.9975C29.8177 41.8046 30.4354 42.1158 30.6282 42.6859C30.822 43.257 30.5108 43.8747 29.9398 44.0675C29.0305 44.3749 28.0896 44.6106 27.1217 44.7643C26.1658 44.9218 25.1933 45 24.2169 45C23.2211 45 22.2326 44.918 21.261 44.7569C20.2651 44.5911 19.3046 44.347 18.3879 44.0321C17.8168 43.8355 17.5104 43.2132 17.7069 42.6421C17.9035 42.072 18.5258 41.7655 19.0959 41.9621C19.9148 42.2406 20.757 42.4577 21.6075 42.5993C22.446 42.7372 23.3161 42.8117 24.2132 42.8117C25.0945 42.8117 25.9488 42.7409 26.7677 42.6077C27.6219 42.4735 28.4483 42.2648 29.2466 41.9975ZM24.135 24.4787C25.7159 24.5188 26.9642 25.8333 26.9242 27.4133C26.8841 28.9933 25.5696 30.2426 23.9896 30.2016C22.4096 30.1615 21.1604 28.847 21.2004 27.267C21.2405 25.687 22.555 24.4378 24.135 24.4787Z" fill="#ED1B24"></path>
  </g>
  <defs>
    <clipPath id="clip0_136_221">
      <rect width="47.6979" height="45" fill="white"></rect>
    </clipPath>
  </defs>
</svg>
