<?xml version="1.0" encoding="UTF-8"?>
<svg xmlns="http://www.w3.org/2000/svg" width="45" height="45" viewBox="0 0 45 45" fill="none">
  <g clip-path="url(#clip0_136_229)">
    <path d="M43.6409 39.096L34.7174 30.1725C33.9524 29.4075 32.8904 29.1285 31.9049 29.3265L29.8304 27.2475C33.3404 22.5585 32.9669 15.867 28.7099 11.6055C24.0389 6.93455 16.4384 6.93455 11.7674 11.6055C7.09641 16.2765 7.09641 23.877 11.7674 28.548C16.0289 32.8095 22.7204 33.183 27.4094 29.6685L29.4884 31.743C29.2859 32.733 29.5649 33.795 30.3299 34.56L39.2534 43.4835C40.4639 44.694 42.4304 44.694 43.6409 43.4835C44.8514 42.273 44.8514 40.3065 43.6409 39.096ZM26.2844 26.127C22.9499 29.4615 17.5184 29.4615 14.1839 26.127C10.8494 22.7925 10.8494 17.361 14.1839 14.0265C17.5184 10.692 22.9499 10.692 26.2844 14.0265C29.6234 17.3655 29.6234 22.7925 26.2844 26.127Z" fill="#ED1B24"></path>
    <path d="M7.19548 22.734L0.638976 29.3175C0.386976 29.5695 0.391476 29.9745 0.638976 30.2265C0.764976 30.3525 0.926976 30.4155 1.09348 30.4155C1.25998 30.4155 1.42198 30.3525 1.54798 30.2265L7.69948 24.0525C7.51948 23.616 7.37098 23.166 7.24048 22.707C7.22698 22.716 7.20898 22.7205 7.19548 22.734Z" fill="#ED1B24"></path>
    <path d="M27.7693 4.25251L32.9308 2.34001L29.1958 10.6965C29.5153 11.061 29.8258 11.4345 30.0958 11.826L34.0378 3.00151L35.9683 7.87951C36.0673 8.13151 36.3103 8.28451 36.5668 8.28451C36.6478 8.28451 36.7243 8.27101 36.8008 8.23951C37.1293 8.10901 37.2913 7.73551 37.1608 7.40701L34.6318 1.01251C34.5058 0.688506 34.1413 0.526506 33.8128 0.648006L27.3238 3.05101C26.9908 3.17251 26.8198 3.54151 26.9458 3.87451C27.0673 4.20751 27.4408 4.37851 27.7693 4.25251Z" fill="#ED1B24"></path>
    <path d="M20.6683 15.0661C20.5198 14.9086 20.2993 14.8366 20.0833 14.8771C19.8673 14.9176 19.6918 15.0661 19.6063 15.2641L15.3853 25.6366C15.7498 25.8706 16.1278 26.0731 16.5238 26.2441L20.4208 16.6681L24.8713 21.3481C25.0198 21.5011 25.2313 21.5731 25.4428 21.5371C25.6543 21.5011 25.8343 21.3616 25.9198 21.1681L27.2158 18.2701C27.1348 17.5771 26.9638 16.9021 26.7073 16.2631L25.1413 19.7686L20.6683 15.0661Z" fill="#ED1B24"></path>
  </g>
  <defs>
    <clipPath id="clip0_136_229">
      <rect width="45" height="45" fill="white"></rect>
    </clipPath>
  </defs>
</svg>
